<svg width="24" height="24" viewBox="0 0 24 24" fill="none" xmlns="http://www.w3.org/2000/svg">
<path d="M19.0311 3.44205H16.8748V2.60908C16.8748 2.4681 16.8188 2.33289 16.7191 2.23321C16.6194 2.13352 16.4842 2.07751 16.3432 2.07751C16.2023 2.07751 16.0671 2.13352 15.9674 2.23321C15.8677 2.33289 15.8117 2.4681 15.8117 2.60908V3.44205H8.24371V2.60908C8.24371 2.4681 8.18771 2.33289 8.08802 2.23321C7.98833 2.13352 7.85313 2.07751 7.71215 2.07751C7.57117 2.07751 7.43596 2.13352 7.33628 2.23321C7.23659 2.33289 7.18059 2.4681 7.18059 2.60908V3.44205H5.02762C4.43624 3.44267 3.86924 3.67773 3.4509 4.09572C3.03256 4.51371 2.79701 5.08052 2.7959 5.67189V19.6753C2.79664 20.2669 3.03202 20.8341 3.4504 21.2524C3.86879 21.6707 4.436 21.906 5.02762 21.9066H19.0311C19.6226 21.9058 20.1897 21.6705 20.608 21.2522C21.0262 20.834 21.2616 20.2669 21.2623 19.6753V5.67189C21.2612 5.0806 21.0257 4.51386 20.6075 4.09589C20.1892 3.67791 19.6223 3.44279 19.0311 3.44205ZM5.02762 4.50517H7.18059V5.33814C7.18059 5.47912 7.23659 5.61432 7.33628 5.71401C7.43596 5.8137 7.57117 5.8697 7.71215 5.8697C7.85313 5.8697 7.98833 5.8137 8.08802 5.71401C8.18771 5.61432 8.24371 5.47912 8.24371 5.33814V4.50517H15.8126V5.33814C15.8126 5.47912 15.8686 5.61432 15.9683 5.71401C16.068 5.8137 16.2032 5.8697 16.3442 5.8697C16.4852 5.8697 16.6204 5.8137 16.7201 5.71401C16.8197 5.61432 16.8757 5.47912 16.8757 5.33814V4.50517H19.0311C19.34 4.50665 19.6358 4.63006 19.8542 4.84856C20.0727 5.06705 20.196 5.36296 20.1973 5.67189V7.17189H3.85902V5.67189C3.86038 5.36255 3.984 5.0663 4.20291 4.84774C4.42183 4.62917 4.71828 4.50603 5.02762 4.50517ZM19.0311 20.8435H5.02762C4.71803 20.8426 4.42137 20.7193 4.20242 20.5004C3.98346 20.2815 3.86001 19.9849 3.85902 19.6753V8.23501H20.1973V19.6753C20.1963 19.9845 20.0732 20.2808 19.8547 20.4996C19.6363 20.7184 19.3402 20.842 19.0311 20.8435Z" fill="#EB7605"/>
</svg>
