<svg width="43" height="52" viewBox="0 0 43 52" fill="none" xmlns="http://www.w3.org/2000/svg">
<path d="M37.9198 16.9504L40.7198 13.5232C40.8802 13.341 41.0009 13.1274 41.0742 12.896C41.1475 12.6646 41.1717 12.4205 41.1454 12.1792C41.125 11.9353 41.0549 11.6982 40.9393 11.4824C40.8237 11.2667 40.6652 11.0769 40.4734 10.9248L38.2334 9.02079C38.0505 8.86154 37.8368 8.74159 37.6056 8.66837C37.3744 8.59516 37.1307 8.57025 36.8894 8.59519C36.6455 8.6156 36.4084 8.68576 36.1927 8.80133C35.9769 8.91691 35.7871 9.07545 35.635 9.26719L32.947 12.5152C30.4908 10.9566 27.7368 9.92667 24.8606 9.49119V6.95999H27.4814C27.9745 6.95999 28.4474 6.76411 28.7961 6.41544C29.1447 6.06678 29.3406 5.59388 29.3406 5.10079V2.09919C29.3406 1.6061 29.1447 1.1332 28.7961 0.784537C28.4474 0.43587 27.9745 0.23999 27.4814 0.23999H15.5198C15.0267 0.23999 14.5538 0.43587 14.2052 0.784537C13.8565 1.1332 13.6606 1.6061 13.6606 2.09919V5.10079C13.6606 5.59388 13.8565 6.06678 14.2052 6.41544C14.5538 6.76411 15.0267 6.95999 15.5198 6.95999H18.1406V9.49119C15.1114 9.96985 12.2223 11.101 9.67342 12.8064L6.78382 9.19999C6.46594 8.82439 6.01358 8.58826 5.52368 8.5422C5.03379 8.49614 4.54534 8.64382 4.16302 8.95359L1.92302 10.8352C1.54408 11.1499 1.30367 11.6007 1.25341 12.0907C1.20315 12.5807 1.34706 13.0709 1.65422 13.456L4.70062 17.2416V17.3536C2.22673 20.5079 0.69519 24.2975 0.282745 28.285C-0.1297 32.2725 0.593763 36.2953 2.36964 39.8893C4.14552 43.4832 6.90143 46.5017 10.3193 48.5965C13.7372 50.6913 17.6778 51.7769 21.6862 51.7282C25.6947 51.6794 29.6076 50.4981 32.9735 48.3208C36.3394 46.1435 39.0211 43.0587 40.709 39.4227C42.3969 35.7866 43.0222 31.7473 42.5128 27.7711C42.0035 23.7948 40.3802 20.0436 37.8302 16.9504H37.9198ZM37.0238 10.992L38.7486 12.4032L36.3742 15.2928C35.8404 14.771 35.2796 14.2776 34.6942 13.8144L37.0238 10.992ZM15.9006 2.47999H27.1006V4.71999H15.9006V2.47999ZM20.3806 6.95999H22.6206V9.19999C22.2398 9.19999 21.8814 9.19999 21.5006 9.19999C21.1198 9.19999 20.7614 9.19999 20.3806 9.19999V6.95999ZM3.55822 12.4032L5.30542 10.992L7.88142 14.1504C7.30958 14.6286 6.76373 15.1371 6.24622 15.6736L3.55822 12.4032ZM21.5006 49.52C17.7349 49.52 14.0537 48.4033 10.9226 46.3112C7.79145 44.219 5.35105 41.2454 3.90996 37.7663C2.46886 34.2872 2.09181 30.4589 2.82647 26.7655C3.56113 23.0721 5.37452 19.6795 8.03731 17.0167C10.7001 14.3539 14.0927 12.5405 17.7861 11.8058C21.4795 11.0712 25.3078 11.4482 28.7869 12.8893C32.266 14.3304 35.2397 16.7708 37.3318 19.9019C39.4239 23.033 40.5406 26.7142 40.5406 30.48C40.5347 35.5279 38.5268 40.3673 34.9574 43.9368C31.388 47.5062 26.5485 49.5141 21.5006 49.52V49.52Z" fill="#EB7605"/>
<path d="M22.6209 30.0096V19.28C22.6209 18.983 22.5029 18.6981 22.2929 18.4881C22.0829 18.278 21.798 18.16 21.5009 18.16C21.2039 18.16 20.919 18.278 20.709 18.4881C20.4989 18.6981 20.3809 18.983 20.3809 19.28V30.48C20.3791 30.6269 20.4081 30.7726 20.466 30.9076C20.5239 31.0426 20.6093 31.164 20.7169 31.264L29.6769 40.224C29.7775 40.3312 29.8989 40.4166 30.0338 40.4749C30.1686 40.5333 30.314 40.5634 30.4609 40.5634C30.6079 40.5634 30.7533 40.5333 30.8881 40.4749C31.0229 40.4166 31.1444 40.3312 31.2449 40.224C31.3521 40.1235 31.4375 40.002 31.4958 39.8672C31.5542 39.7323 31.5843 39.587 31.5843 39.44C31.5843 39.2931 31.5542 39.1477 31.4958 39.0129C31.4375 38.878 31.3521 38.7566 31.2449 38.656L22.6209 30.0096Z" fill="#EB7605"/>
</svg>
