<svg width="48" height="48" viewBox="0 0 48 48" fill="none" xmlns="http://www.w3.org/2000/svg">
<path d="M22.4095 9.17969C18.1503 9.17969 14.023 10.6565 10.7306 13.3584C7.43828 16.0603 5.18465 19.8202 4.35373 23.9975C3.52282 28.1747 4.16603 32.5108 6.17377 36.267C8.18151 40.0232 11.4295 42.967 15.3645 44.5969C19.2994 46.2267 23.6777 46.4418 27.7535 45.2055C31.8292 43.9692 35.3501 41.3579 37.7164 37.8166C40.0826 34.2753 41.1478 30.0231 40.7303 25.7845C40.3128 21.546 38.4386 17.5833 35.4269 14.5716L22.4095 27.5889L22.4095 9.17969Z" stroke="#69C0B0" stroke-width="1.5" stroke-linejoin="round"/>
<path d="M4 27.5889C4 30.0065 4.47617 32.4003 5.40134 34.6339C6.3265 36.8674 7.68253 38.8968 9.39201 40.6062L22.4095 27.5889L4 27.5889Z" stroke="#69C0B0" stroke-width="1.5" stroke-linejoin="round"/>
<path d="M9.39201 14.5716C7.68253 16.2811 6.3265 18.3105 5.40134 20.544C4.47617 22.7775 4 25.1714 4 27.5889L22.4095 27.5889L9.39201 14.5716Z" stroke="#69C0B0" stroke-width="1.5" stroke-linejoin="round"/>
<path d="M38.1222 7.39194C36.4128 5.68249 34.3833 4.32647 32.1498 3.40132C29.9162 2.47617 27.5223 2 25.1048 2L25.1048 20.4093L38.1222 7.39194Z" stroke="#69C0B0" stroke-width="1.5" stroke-linejoin="round"/>
<path d="M35.4269 40.6062C37.1364 38.8968 38.4924 36.8674 39.4176 34.6339C40.3428 32.4003 40.8189 30.0065 40.8189 27.5889L22.4095 27.5889L35.4269 40.6062Z" stroke="#69C0B0" stroke-width="1.5" stroke-linejoin="round"/>
<path d="M9.39201 40.6062C11.1015 42.3157 13.1309 43.6717 15.3645 44.5969C17.598 45.522 19.9919 45.9982 22.4095 45.9982L22.4095 27.5889L9.39201 40.6062Z" stroke="#69C0B0" stroke-width="1.5" stroke-linejoin="round"/>
<path d="M22.4095 45.9982C24.827 45.9982 27.2209 45.522 29.4545 44.5969C31.688 43.6717 33.7175 42.3157 35.4269 40.6062L22.4095 27.5889L22.4095 45.9982Z" stroke="#69C0B0" stroke-width="1.5" stroke-linejoin="round"/>
<path d="M35.4269 14.5716C38.4386 17.5833 40.3128 21.5459 40.7303 25.7845C41.1478 30.0231 40.0826 34.2753 37.7164 37.8166C35.3501 41.3579 31.8292 43.9692 27.7534 45.2055C23.6777 46.4418 19.2994 46.2267 15.3645 44.5969C11.4295 42.967 8.18149 40.0232 6.17376 36.267C4.16602 32.5108 3.52282 28.1747 4.35374 23.9975C5.18466 19.8202 7.43829 16.0603 10.7306 13.3584C14.023 10.6565 18.1504 9.17968 22.4095 9.17969L22.4095 12.1064C18.8275 12.1064 15.3563 13.3484 12.5874 15.6208C9.81843 17.8931 7.92308 21.0553 7.22426 24.5684C6.52544 28.0816 7.06639 31.7283 8.75493 34.8873C10.4435 38.0464 13.1751 40.5222 16.4845 41.8929C19.7938 43.2637 23.4761 43.4446 26.9039 42.4048C30.3316 41.365 33.2928 39.1689 35.2829 36.1906C37.2729 33.2123 38.1687 29.6361 37.8176 26.0714C37.4665 22.5067 35.8903 19.174 33.3574 16.6411L35.4269 14.5716Z" stroke="#69C0B0" stroke-width="1.5" stroke-linejoin="round"/>
<path d="M38.1222 7.39194C34.6698 3.93954 29.9873 2 25.1048 2L25.1048 5.43139C29.0772 5.43139 32.8869 7.00941 35.6959 9.8183L38.1222 7.39194Z" stroke="#69C0B0" stroke-width="1.5" stroke-linejoin="round"/>
<path d="M21.8801 17.2575C21.805 17.0491 21.6796 16.8624 21.5151 16.7141C21.3506 16.5657 21.1521 16.4601 20.9371 16.4068C20.722 16.3535 20.4972 16.354 20.2824 16.4083C20.0676 16.4627 19.8696 16.5691 19.7058 16.7183C19.542 16.8674 19.4175 17.0547 19.3433 17.2634C19.2692 17.4722 19.2477 17.696 19.2807 17.9151C19.3137 18.1342 19.4002 18.3417 19.5326 18.5193C19.665 18.697 19.8391 18.8392 20.0396 18.9335" stroke="#69C0B0" stroke-width="1.5" stroke-linecap="round" stroke-linejoin="round"/>
<path d="M33.1084 34.9365C33.2837 34.801 33.4229 34.6244 33.5136 34.4223C33.6044 34.2202 33.6439 33.9988 33.6286 33.7778C33.6133 33.5568 33.5438 33.343 33.4262 33.1552C33.3085 32.9675 33.1464 32.8117 32.9542 32.7016C32.7619 32.5915 32.5455 32.5305 32.3241 32.524C32.1026 32.5175 31.883 32.5658 31.6846 32.6644C31.4863 32.7631 31.3153 32.9092 31.1869 33.0897C31.0585 33.2702 30.9766 33.4796 30.9484 33.6994" stroke="#69C0B0" stroke-width="1.5" stroke-linecap="round" stroke-linejoin="round"/>
<path d="M19.8463 36.7831C20.0285 36.9091 20.2389 36.9883 20.459 37.0136C20.6791 37.0389 20.9021 37.0095 21.1081 36.928C21.3141 36.8466 21.4969 36.7156 21.6402 36.5466C21.7835 36.3777 21.8829 36.176 21.9296 35.9594C21.9763 35.7429 21.9689 35.5181 21.9081 35.3051C21.8472 35.0921 21.7347 34.8974 21.5806 34.7382C21.4266 34.5791 21.2356 34.4604 21.0247 34.3926C20.8137 34.3249 20.5893 34.3102 20.3714 34.3499" stroke="#69C0B0" stroke-width="1.5" stroke-linecap="round" stroke-linejoin="round"/>
<path d="M29.7291 11.6347C29.9113 11.7607 30.1218 11.8399 30.3419 11.8652C30.5619 11.8904 30.7849 11.8611 30.9909 11.7796C31.1969 11.6981 31.3797 11.5671 31.523 11.3982C31.6663 11.2292 31.7657 11.0275 31.8124 10.811C31.8592 10.5944 31.8518 10.3697 31.7909 10.1567C31.73 9.94368 31.6176 9.74897 31.4635 9.5898C31.3094 9.43064 31.1184 9.31193 30.9075 9.2442C30.6965 9.17646 30.4722 9.16179 30.2542 9.20149" stroke="#69C0B0" stroke-width="1.5" stroke-linecap="round" stroke-linejoin="round"/>
<path d="M17.5852 36.2498C17.3842 36.1567 17.1633 36.1146 16.9422 36.1272C16.721 36.1398 16.5063 36.2068 16.3172 36.3222C16.1281 36.4376 15.9704 36.5979 15.858 36.7888C15.7457 36.9798 15.6821 37.1955 15.673 37.4168C15.6639 37.6382 15.7095 37.8583 15.8059 38.0578C15.9022 38.2573 16.0462 38.43 16.2252 38.5606C16.4042 38.6911 16.6126 38.7755 16.832 38.8062C17.0514 38.837 17.275 38.8132 17.483 38.7369" stroke="#69C0B0" stroke-width="1.5" stroke-linecap="round" stroke-linejoin="round"/>
<path d="M27.4681 11.1013C27.267 11.0082 27.0462 10.9661 26.825 10.9788C26.6038 10.9914 26.3891 11.0584 26.2 11.1738C26.0109 11.2892 25.8532 11.4495 25.7408 11.6404C25.6285 11.8313 25.5649 12.047 25.5558 12.2684C25.5467 12.4897 25.5924 12.7099 25.6887 12.9094C25.785 13.1089 25.929 13.2816 26.108 13.4121C26.287 13.5427 26.4954 13.627 26.7148 13.6578C26.9342 13.6885 27.1578 13.6647 27.3658 13.5884" stroke="#69C0B0" stroke-width="1.5" stroke-linecap="round" stroke-linejoin="round"/>
<path d="M32.2914 22.2147C32.7405 22.6637 33.6386 22.6637 33.6386 21.7656M30.9443 25.358C31.7165 24.5287 32.0626 24.694 32.7405 25.807M28.699 24.0109C30.0462 24.4599 29.5971 25.807 28.25 25.807" stroke="#69C0B0" stroke-width="1.5" stroke-linecap="round" stroke-linejoin="round"/>
<path d="M13.4321 30.2772C13.8811 30.7262 14.7792 30.7262 14.7792 29.8281M12.0849 33.4205C12.8572 32.5912 13.2032 32.7565 13.8811 33.8695M9.83967 32.0734C11.1868 32.5224 10.7378 33.8695 9.39062 33.8695" stroke="#69C0B0" stroke-width="1.5" stroke-linecap="round" stroke-linejoin="round"/>
<path d="M26.3618 33.6998C26.9905 33.7896 27.709 33.2507 27.1701 32.5322M27.1703 37.0227C27.2905 35.8959 27.6665 35.8205 28.8767 36.3041M24.5659 37.2923C25.913 36.8431 26.3621 38.1903 25.2844 38.9986" stroke="#69C0B0" stroke-width="1.5" stroke-linecap="round" stroke-linejoin="round"/>
<path d="M10.9205 23.8489C10.9443 23.2143 10.3335 22.5559 9.67508 23.1667M14.1411 22.6988C13.008 22.6967 12.8938 22.3305 13.2488 21.0766M14.6805 25.261C14.0935 23.968 15.3865 23.381 16.3027 24.3687" stroke="#69C0B0" stroke-width="1.5" stroke-linecap="round" stroke-linejoin="round"/>
</svg>
