<svg width="48" height="48" viewBox="0 0 48 48" fill="none" xmlns="http://www.w3.org/2000/svg">
<path d="M8.50746 23.2005V29.9886M8.50746 23.2005C1.75392 21.7571 0.499093 19.0764 1.53083 14.6882M8.50746 23.2005C15.4302 21.4172 16.6185 18.4314 15.0539 13.1174M13.4699 31.335L21.7692 20.1604L27.5385 24.4165L25.2308 26.8486M25.2308 26.8486L29.8462 21.9844L41.3846 26.8486M25.2308 26.8486V33.5368V34.8784M25.2308 26.8486H31.5769V31.7127C31.5769 33.5368 34.4615 33.5368 34.4615 31.7127V30.4967M41.3846 26.8486H37.3462V30.4967C37.3462 32.3208 34.4615 32.3208 34.4615 30.4967M41.3846 26.8486V33.8751M34.4615 29.2807V30.4967M26.6698 35.9689C27.0185 36.3788 27.147 36.7939 26.9615 37.1849C26.2024 38.785 21.7132 38.1578 18.8846 36.7559M26.6698 35.9689H41.3846V33.8751M26.6698 35.9689C26.3506 35.5935 25.8469 35.2226 25.2308 34.8784M25.2308 34.8784C23.4044 33.8583 20.5903 33.0742 18.6658 33.1121M41.3846 33.8751C44.2269 34.4229 46 35.124 46 35.9689C46 41.441 1 41.441 1 35.3609C1 34.4343 4.00967 33.4068 7.34615 32.9288M18.8846 36.7559C17.4138 36.0269 16.392 35.0885 16.5769 34.1448C16.7152 33.4393 17.5376 33.1344 18.6658 33.1121M18.8846 36.7559C16.9512 37.1753 14.5034 36.4346 13.1154 35.3722M18.6658 33.1121C17.9237 32.4654 16.3088 31.9171 14.8462 31.9371M14.8462 31.9371C14.213 31.9458 13.6084 32.061 13.1154 32.3208C11.4713 33.1871 11.8597 34.4112 13.1154 35.3722M14.8462 31.9371C11.1923 30.241 5.48563 28.3992 7.34615 32.3208C8.5 34.7528 12.3462 35.7738 13.1154 35.3722M18.8846 29.2807H19.4615M22.3462 29.8887L22.9231 29.2807M1.53083 14.6882C1.97695 12.7907 2.8506 10.574 3.89208 8H13.1228C13.9431 9.91084 14.6096 11.608 15.0539 13.1174M1.53083 14.6882C2.51271 14.4855 5.28266 14.3234 8.50746 15.2962C11.7323 16.2691 14.2154 14.249 15.0539 13.1174M22.3462 24.4165C21.7089 24.4165 21.1923 24.961 21.1923 25.6326C21.1923 26.3042 21.7089 26.8486 22.3462 26.8486C22.9834 26.8486 23.5 26.3042 23.5 25.6326C23.5 24.961 22.9834 24.4165 22.3462 24.4165Z" stroke="#69C0B0" stroke-width="1.5" stroke-linecap="round" stroke-linejoin="round"/>
</svg>
