<svg width="48" height="48" viewBox="0 0 48 48" fill="none" xmlns="http://www.w3.org/2000/svg">
<path d="M8 22.7344V31.7344M40 22.7344V31.7344" stroke="#69C0B0" stroke-width="1.5" stroke-linecap="round" stroke-linejoin="round"/>
<path d="M33.4902 17.3233C36.1013 18.3551 37.6998 19.7737 37.9618 21.2917C38.2239 22.8097 37.1299 24.3136 34.9015 25.4989C32.6731 26.6842 29.4769 27.4621 25.9602 27.6753C22.4435 27.8884 18.8693 27.5207 15.9614 26.6467C13.0536 25.7727 11.0295 24.4578 10.2992 22.9681C9.56885 21.4785 10.1869 19.9256 12.0281 18.624C13.8693 17.3223 16.796 16.3692 20.2154 15.9578C23.6349 15.5463 27.2914 15.7072 30.4444 16.4078" stroke="#69C0B0" stroke-width="1.5"/>
<path d="M37.7855 22.8624C37.4482 22.1822 36.7198 21.5343 35.6463 20.9596C34.5729 20.3849 33.1776 19.8959 31.5486 19.5234" stroke="#69C0B0" stroke-width="1.5"/>
<path d="M28.1621 18.9604C26.3219 18.7558 24.3832 18.6891 22.4673 18.7644C20.5515 18.8398 18.6999 19.0556 17.0285 19.3984C15.3571 19.7412 13.9018 20.2035 12.7539 20.7565C11.606 21.3094 10.7901 21.9411 10.3574 22.6118" stroke="#69C0B0" stroke-width="1.5"/>
<path d="M8.00403 30.9763C7.95554 32.5291 8.34515 34.0728 9.14935 35.5143C9.95355 36.9558 11.1557 38.2654 12.6832 39.3639C14.2108 40.4624 16.0321 41.3272 18.0373 41.906C20.0425 42.4848 22.19 42.7656 24.3503 42.7316C26.5107 42.6976 28.639 42.3494 30.6071 41.7081C32.5751 41.0667 34.342 40.1455 35.8011 39C37.2603 37.8545 38.3815 36.5084 39.0971 35.0429C39.8127 33.5774 40.1079 32.0229 39.9649 30.4732" stroke="#69C0B0" stroke-width="1.5"/>
<path d="M8.5 23.7344C7.0719 23.7344 5.69979 24.0374 4.67388 24.5793C3.64798 25.1211 3.04871 25.8594 3.00284 26.638C2.95697 27.4166 3.46808 28.1743 4.42808 28.751C5.38808 29.3277 6.72169 29.6782 8.14684 29.7282" stroke="#69C0B0" stroke-width="1.5"/>
<path d="M7.5 24.7344C6.85086 24.7344 6.22718 24.8859 5.76086 25.1568C5.29453 25.4278 5.02214 25.7969 5.00129 26.1862C4.98044 26.5755 5.21276 26.9544 5.64913 27.2427C6.08549 27.5311 6.69168 27.7063 7.33947 27.7313" stroke="#69C0B0" stroke-width="1.5"/>
<path d="M40.5 27.7344C41.1491 27.7344 41.7728 27.5829 42.2391 27.3119C42.7055 27.041 42.9779 26.6718 42.9987 26.2826C43.0196 25.8933 42.7872 25.5144 42.3509 25.226C41.9145 24.9377 41.3083 24.7625 40.6605 24.7375" stroke="#69C0B0" stroke-width="1.5"/>
<path d="M39.5 29.7344C40.9281 29.7344 42.3002 29.4314 43.3261 28.8895C44.352 28.3476 44.9513 27.6093 44.9972 26.8307C45.043 26.0522 44.5319 25.2944 43.5719 24.7177C42.6119 24.141 41.2783 23.7906 39.8532 23.7406" stroke="#69C0B0" stroke-width="1.5"/>
<path d="M34.3621 15.6387C37.4779 16.9629 39.4614 18.8333 39.9054 20.8658C40.3494 22.8983 39.2201 24.9386 36.7495 26.5679C34.2789 28.1971 30.6544 29.2915 26.6204 29.6264C22.5865 29.9612 18.4492 29.5111 15.0582 28.3684C11.6672 27.2258 9.27987 25.4773 8.3865 23.4821C7.49314 21.4869 8.16152 19.3964 10.2544 17.6399C12.3473 15.8834 15.7058 14.5942 19.6402 14.0371C23.5747 13.48 27.7864 13.6972 31.4106 14.6442" stroke="#69C0B0" stroke-width="1.5"/>
<path d="M36.3917 29.7951C34.7249 30.8155 32.5798 31.6142 30.147 32.1204C27.7143 32.6266 25.0692 32.8245 22.4467 32.6966" stroke="#69C0B0" stroke-width="1.5" stroke-linecap="round" stroke-linejoin="round"/>
<path d="M35.7479 9.80831L27 20.8044L30 21.8044L36.4797 12.6032C37.8086 10.7161 39.5551 9.16116 41.5832 8.05936L43 7.28968C44.5 6.23438 43 4.23791 41 5.3044L38.6225 7.04588C37.5457 7.83468 36.5789 8.76369 35.7479 9.80831Z" stroke="#69C0B0" stroke-width="1.5" stroke-linecap="round" stroke-linejoin="round"/>
</svg>
