<svg width="48" height="48" viewBox="0 0 48 48" fill="none" xmlns="http://www.w3.org/2000/svg">
<path d="M8.37282 23.5566H4.681C2.84735 21.8314 1.45066 21.6795 1.45066 24.0225V26.3521C1.45066 28.2047 3.33301 27.4376 4.681 26.3521H7.44986M13.9105 30.5319L8.8343 26.3521H7.44986M22.2171 30.5319C17.2418 30.157 15.6623 31.4499 13.1666 34.2276M22.2171 30.5319C21.7547 32.2179 22.0815 33.1994 24.5245 35.2045M22.2171 30.5319C22.9811 30.1378 23.6265 29.4661 24.1042 28.6366M8.37282 23.5432C9.20183 22.633 9.9619 21.8879 10.6802 21.2806M7.44986 26.3521C6.52691 27.887 4.86559 31.2364 5.60396 32.3546M5.60396 32.3546C6.34232 33.4728 7.44986 34.7205 7.91134 35.2045M5.60396 32.3546C3.27136 31.632 2.91217 32.8426 2.38636 35.2045M7.91134 35.2045H2.38636M7.91134 35.2045H11.6032M2.38636 35.2045H1.00193C0.97756 36.5227 1.16989 37.1978 2.38636 38H44.8423C46.2214 36.977 46.1363 36.366 45.7652 35.2045H42.0607M11.6032 35.2045C8.95603 33.9801 8.50792 33.061 8.8343 30.9568C10.9554 31.0782 12.195 31.2427 13.1666 34.2276M11.6032 35.2045H13.4491M13.4491 35.2045C13.3572 34.8492 13.2632 34.5244 13.1666 34.2276M13.4491 35.2045H24.5245M10.6802 21.2806C13.6729 18.7503 15.9406 18.6111 19.4483 18.884C25.304 19.96 25.9352 25.4575 24.1042 28.6366M10.6802 21.2806C12.9397 17.9185 18.0337 15.4065 23.6016 14.7627M24.5245 35.2045H29.6008M29.6008 35.2045C27.7746 33.6791 27.5238 32.6964 27.7549 30.9568C30.1488 31.066 31.305 31.5005 31.9082 35.2045M29.6008 35.2045H31.9082M31.9082 35.2045H42.0607M24.1042 28.6366C29.7597 27.8069 32.9404 27.2695 37.9074 31.898C34.4379 27.7783 32.8264 25.4787 34.2155 22.1138C37.9228 25.4138 40.016 27.192 44.0344 31.898M42.0607 35.2045C44.5784 33.7058 45.1443 28.6366 42.0607 23.0363C38.6415 16.8267 32.1824 14.4802 25.909 14.6059M24.986 14.6421C24.7821 11.0875 26.1971 10.9168 28.2163 10C28.3324 12.0025 28.3301 13.1112 25.909 14.6059M24.986 14.6421C25.2929 14.6242 25.6007 14.6121 25.909 14.6059M24.986 14.6421C24.8319 14.6511 24.6781 14.6616 24.5245 14.6735M24.5245 14.6735C22.7508 9.66378 21.5263 10.2385 19.4483 10C19.8823 12.4807 20.3259 13.7681 23.6016 14.7627M24.5245 14.6735C24.2157 14.6975 23.9079 14.7272 23.6016 14.7627" stroke="#69C0B0" stroke-width="1.5" stroke-linecap="round" stroke-linejoin="round"/>
</svg>
