<svg width="48" height="48" viewBox="0 0 48 48" fill="none" xmlns="http://www.w3.org/2000/svg">
<circle cx="23.5" cy="24.5" r="19.5" stroke="#69C0B0" stroke-width="1.5"/>
<path d="M13.8105 13.1251C15.9154 11.1118 18.5347 9.76432 21.3581 9.24231C24.1814 8.7203 27.0904 9.04567 29.7402 10.1799C32.3901 11.3141 34.6697 13.2095 36.3089 15.6416C37.9481 18.0737 38.8782 20.9404 38.9888 23.9019" stroke="#69C0B0" stroke-width="1.5"/>
<path d="M37.4429 31.3769C36.057 34.2695 33.8319 36.6429 31.0779 38.1659C28.3239 39.689 25.1785 40.2856 22.0806 39.8726" stroke="#69C0B0" stroke-width="1.5"/>
<path d="M12.3323 34.241C10.5247 31.9291 9.39841 29.1289 9.08775 26.1741" stroke="#69C0B0" stroke-width="1.5"/>
<ellipse cx="13.5" cy="17" rx="3.5" ry="4" stroke="#69C0B0" stroke-width="1.5"/>
<circle cx="37.2947" cy="27.6244" r="3.81522" transform="rotate(-177.636 37.2947 27.6244)" stroke="#69C0B0" stroke-width="1.5"/>
<path d="M15.3548 25.0637C14.9799 25.6171 14.4598 26.0815 13.839 26.4172C13.2181 26.753 12.5151 26.9501 11.7899 26.9917C11.0647 27.0333 10.3389 26.9182 9.67471 26.6562C9.01048 26.3942 8.42751 25.993 7.97565 25.4871C7.5238 24.9812 7.21651 24.3856 7.08005 23.7511C6.94359 23.1167 6.98202 22.4622 7.19207 21.8439C7.40211 21.2255 7.77751 20.6615 8.28617 20.2002C8.79483 19.7388 9.42162 19.3939 10.1129 19.1948" stroke="#69C0B0" stroke-width="1.5"/>
<path d="M13.5776 29.5731C12.9962 30.2852 12.5608 31.1048 12.2962 31.9852C12.0316 32.8655 11.943 33.7894 12.0355 34.704C12.1279 35.6186 12.3996 36.506 12.835 37.3156C13.2704 38.1252 13.861 38.8411 14.5731 39.4224C15.2852 40.0038 16.1048 40.4392 16.9852 40.7038C17.8655 40.9684 18.7894 41.057 19.704 40.9645C20.6186 40.8721 21.506 40.6004 22.3156 40.165C23.1252 39.7296 23.8411 39.139 24.4224 38.4269L19 34L13.5776 29.5731Z" stroke="#69C0B0" stroke-width="1.5"/>
<path d="M12 34H18.75M18.75 34L13.35 37.4286M18.75 34L17.85 40M18.75 34L21 40" stroke="#69C0B0" stroke-width="1.5" stroke-linecap="round" stroke-linejoin="round"/>
<path d="M16.8961 16.6498C17.7384 14.9296 19.5011 13.673 20.6864 13.0433M20.6864 13.0433C22.7957 11.9227 24.8463 11.7165 27.8459 12.3684C28.1562 15.7787 28.056 18.3093 27.0036 20.3574M20.6864 13.0433C21.6663 16.4025 22.9603 17.9445 27.0036 20.3574M27.0036 20.3574C25.8921 22.5205 23.7184 24.1453 19.8441 25.6996L17.3172 30L15.6326 25.2696L11 23.5304L14.7903 21.8103L15.6326 20.0901M19.8441 18.37L22.371 20.9502M17.7384 20.3574L19.8441 22.6703M25.319 14.4996H25.7402" stroke="#69C0B0" stroke-width="1.5" stroke-linecap="round" stroke-linejoin="round"/>
<path d="M27.3828 20.7122C28.6141 23.3395 30.7669 24.8426 33.3176 25.601M27.4002 25.0872L30.2926 27.2256M25.5945 27.3389L28.0286 29.2795M32.2846 20.4973L32.7039 20.4344M35.2309 23.8921C35.3525 22.2232 35.0508 20.3261 34.4886 18.0426C31.9441 17.8874 29.903 17.8597 28.2394 18.992M33.3176 28.742C32.2662 29.8305 29.3253 31.1192 27.4002 32.2295L26.5842 36.802L24.2161 32.4418L19.764 32.2295L23.5763 29.5898C23.1487 26.6021 23.5763 25.3507 24.0003 24.079" stroke="#69C0B0" stroke-width="1.5" stroke-linecap="round" stroke-linejoin="round"/>
</svg>
