<svg width="25" height="25" viewBox="0 0 25 25" fill="none" xmlns="http://www.w3.org/2000/svg">
<path d="M12.5 23C10.4233 23 8.39323 22.3842 6.66652 21.2304C4.9398 20.0767 3.59399 18.4368 2.79927 16.5182C2.00455 14.5996 1.79661 12.4884 2.20176 10.4516C2.6069 8.41476 3.60693 6.54383 5.07538 5.07538C6.54383 3.60693 8.41476 2.6069 10.4516 2.20176C12.4884 1.79661 14.5996 2.00455 16.5182 2.79927C18.4368 3.59399 20.0767 4.9398 21.2304 6.66652C22.3842 8.39323 23 10.4233 23 12.5C23 15.2848 21.8938 17.9555 19.9246 19.9246C17.9555 21.8938 15.2848 23 12.5 23ZM12.5 3.5C10.72 3.5 8.97992 4.02785 7.49987 5.01678C6.01983 6.00571 4.86628 7.41132 4.18509 9.05585C3.5039 10.7004 3.32567 12.51 3.67294 14.2558C4.0202 16.0016 4.87737 17.6053 6.13604 18.864C7.39472 20.1226 8.99836 20.9798 10.7442 21.3271C12.49 21.6743 14.2996 21.4961 15.9442 20.8149C17.5887 20.1337 18.9943 18.9802 19.9832 17.5001C20.9722 16.0201 21.5 14.28 21.5 12.5C21.5 10.1131 20.5518 7.82387 18.864 6.13604C17.1761 4.44822 14.887 3.5 12.5 3.5Z" fill="#EB7605"/>
<path d="M15.9425 17L11.75 12.8075V5.75H13.25V12.185L17 15.9425L15.9425 17Z" fill="#EB7605"/>
</svg>
