<svg width="49" height="49" viewBox="0 0 49 49" fill="none" xmlns="http://www.w3.org/2000/svg">
<path d="M23.0349 18.2385C23.1862 18.0384 23.3248 17.8292 23.45 17.6119C23.5711 17.3924 23.6784 17.1655 23.7713 16.9325L25.8466 16.6439C25.9396 16.632 26.0242 16.5867 26.0842 16.5165C26.1441 16.4463 26.1752 16.3562 26.1716 16.2634L26.1065 13.1671C26.106 13.0751 26.0714 12.9856 26.0091 12.9156C25.9469 12.8457 25.8613 12.8 25.7686 12.7873L23.6769 12.4942C23.4699 12.0283 23.204 11.5891 22.8855 11.1874L23.6272 9.26892C23.66 9.18405 23.6602 9.0896 23.6277 9.00317C23.5952 8.91674 23.5322 8.84423 23.4504 8.79915L20.6956 7.2458C20.6147 7.19916 20.5201 7.18277 20.4293 7.19966C20.3385 7.21655 20.2578 7.26559 20.2022 7.33762L18.9444 8.96504C18.4359 8.8991 17.9223 8.89882 17.4166 8.9642L16.0767 7.32217C16.0178 7.24944 15.9345 7.19988 15.8424 7.18284C15.7503 7.16579 15.6558 7.18243 15.5767 7.22962L12.8937 8.77629C12.8124 8.82118 12.7514 8.89444 12.7223 8.98207C12.6933 9.0697 12.6983 9.16554 12.7363 9.25125L13.5599 11.1745C13.4087 11.3746 13.2701 11.5839 13.1448 11.801C13.0237 12.0206 12.9164 12.2475 12.8235 12.4805L10.7516 12.771C10.6586 12.7828 10.574 12.8281 10.514 12.8983C10.4541 12.9685 10.423 13.0587 10.4266 13.1515L10.4916 16.2477C10.4922 16.3398 10.5268 16.4292 10.5891 16.4992C10.6513 16.5692 10.7368 16.6148 10.8296 16.6276L12.9213 16.9206C13.1283 17.3865 13.3942 17.8257 13.7127 18.2275L12.971 20.1459C12.9381 20.2308 12.938 20.3252 12.9705 20.4117C13.003 20.4981 13.066 20.5706 13.1478 20.6157L15.8959 22.1653C15.9767 22.2119 16.0714 22.2283 16.1622 22.2114C16.253 22.1945 16.3337 22.1455 16.3893 22.0734L17.6471 20.446C18.1556 20.512 18.6692 20.5122 19.1749 20.4469L20.5081 22.0851C20.567 22.1578 20.6503 22.2074 20.7424 22.2245C20.8345 22.2415 20.929 22.2249 21.008 22.1777L23.6911 20.631C23.7724 20.5861 23.8334 20.5128 23.8625 20.4252C23.8915 20.3376 23.8865 20.2418 23.8485 20.156L23.0349 18.2385ZM16.9772 17.0517C16.5008 16.7839 16.1124 16.3845 15.8613 15.9039C15.6102 15.4233 15.5076 14.8832 15.5665 14.3519C15.6254 13.8206 15.8431 13.322 16.1921 12.9192C16.5411 12.5164 17.0057 12.2274 17.5272 12.0889C18.0486 11.9504 18.6034 11.9686 19.1214 12.1411C19.6395 12.3136 20.0974 12.6328 20.4373 13.0582C20.7771 13.4835 20.9837 13.996 21.0308 14.5308C21.0779 15.0656 20.9635 15.5986 20.702 16.0624C20.5289 16.3703 20.2952 16.6402 20.0143 16.8566C19.7334 17.0731 19.4107 17.2318 19.0648 17.3237C18.7188 17.4155 18.3564 17.4388 17.9982 17.3922C17.64 17.3455 17.293 17.2298 16.9772 17.0517Z" stroke="#69C0B0" stroke-width="1.5" stroke-linecap="round" stroke-linejoin="round"/>
<path d="M38.3486 34.26C38.4006 33.8792 38.4286 33.4956 38.4322 33.1116C38.4286 32.7275 38.4006 32.344 38.3486 31.9631L40.936 30.0165C41.0529 29.9308 41.1327 29.8066 41.1603 29.6678C41.1879 29.5291 41.1612 29.3854 41.0854 29.2643L38.6354 25.1816C38.5644 25.0592 38.4493 24.9659 38.3117 24.9193C38.1741 24.8728 38.0236 24.8762 37.8884 24.929L34.8348 26.1119C34.1994 25.6459 33.5046 25.2599 32.7672 24.9634L32.3071 21.8454C32.2868 21.7074 32.215 21.5813 32.1051 21.4904C31.9951 21.3996 31.8545 21.3502 31.7095 21.3516H26.7975C26.6525 21.3502 26.5119 21.3996 26.402 21.4904C26.292 21.5813 26.2202 21.7074 26.1999 21.8454L25.7398 24.9634C25.0015 25.2581 24.3064 25.6442 23.6722 26.1119L20.6067 24.929C20.4715 24.8762 20.321 24.8728 20.1834 24.9193C20.0458 24.9659 19.9307 25.0592 19.8597 25.1816L17.4097 29.2643C17.3339 29.3854 17.3073 29.5291 17.3348 29.6678C17.3624 29.8066 17.4422 29.9308 17.5591 30.0165L20.1406 31.9631C20.0887 32.344 20.0608 32.7275 20.0569 33.1116C20.0606 33.4956 20.0885 33.8792 20.1406 34.26L17.5591 36.2066C17.4422 36.2924 17.3624 36.4165 17.3348 36.5553C17.3073 36.6941 17.3339 36.8377 17.4097 36.9588L19.8597 41.0415C19.9307 41.164 20.0458 41.2573 20.1834 41.3038C20.321 41.3503 20.4715 41.3469 20.6067 41.2942L23.6603 40.1113C24.2957 40.5773 24.9905 40.9632 25.7279 41.2597L26.188 44.3777C26.2083 44.5157 26.2801 44.6419 26.39 44.7327C26.5 44.8236 26.6406 44.8729 26.7856 44.8715H31.6856C31.8306 44.8729 31.9712 44.8236 32.0812 44.7327C32.1911 44.6419 32.2629 44.5157 32.2832 44.3777L32.7433 41.2597C33.4816 40.9651 34.1767 40.579 34.8109 40.1113L37.8645 41.2942C37.9997 41.3469 38.1502 41.3503 38.2878 41.3038C38.4254 41.2573 38.5405 41.164 38.6115 41.0415L41.0615 36.9588C41.1373 36.8377 41.1639 36.6941 41.1364 36.5553C41.1088 36.4165 41.029 36.2924 40.9121 36.2066L38.3486 34.26ZM29.2476 37.2344C28.3987 37.2356 27.5686 36.9947 26.8622 36.5424C26.1559 36.0901 25.605 35.4466 25.2793 34.6933C24.9537 33.94 24.8679 33.1109 25.0327 32.3108C25.1976 31.5106 25.6058 30.7755 26.2056 30.1983C26.8054 29.6211 27.5699 29.2279 28.4023 29.0683C29.2348 28.9088 30.0978 28.9901 30.8821 29.302C31.6665 29.6139 32.3369 30.1423 32.8086 30.8204C33.2803 31.4985 33.5321 32.2959 33.5321 33.1116C33.5329 33.6527 33.4227 34.1887 33.2077 34.6889C32.9927 35.1891 32.6773 35.6436 32.2793 36.0265C31.8814 36.4095 31.4088 36.7132 30.8886 36.9205C30.3684 37.1278 29.8107 37.2344 29.2476 37.2344Z" stroke="#69C0B0" stroke-width="1.5" stroke-linecap="round" stroke-linejoin="round"/>
</svg>
