<svg width="48" height="48" viewBox="0 0 48 48" fill="none" xmlns="http://www.w3.org/2000/svg">
<circle cx="24" cy="22" r="13" stroke="#69C0B0" stroke-width="1.5"/>
<ellipse cx="24" cy="22" rx="6" ry="13" stroke="#69C0B0" stroke-width="1.5"/>
<ellipse cx="24" cy="21" rx="6" ry="13" transform="rotate(-90 24 21)" stroke="#69C0B0" stroke-width="1.5"/>
<path d="M21.9862 38.8803C17.6319 38.3608 13.6467 36.1788 10.8633 32.7902C8.07996 29.4015 6.71373 25.0684 7.05008 20.6961" stroke="#69C0B0" stroke-width="1.5" stroke-linecap="round"/>
<path d="M5.78181 25.4639C6.90226 26.2707 6.93402 28.142 6.93402 28.142C6.93402 28.142 5.14919 28.7052 4.02874 27.8984C2.9083 27.0916 2.87653 25.2203 2.87653 25.2203C2.87653 25.2203 4.66137 24.6571 5.78181 25.4639Z" stroke="#69C0B0" stroke-width="1.5"/>
<path d="M6.99552 31.3955C8.36823 31.5439 9.31978 33.1556 9.31978 33.1556C9.31978 33.1556 8.04572 34.5266 6.67301 34.3781C5.3003 34.2297 4.34875 32.6181 4.34875 32.6181C4.34875 32.6181 5.62281 31.2471 6.99552 31.3955Z" stroke="#69C0B0" stroke-width="1.5"/>
<path d="M10.1291 36.0851C11.3717 35.483 13.033 36.3448 13.033 36.3448C13.033 36.3448 12.6798 38.1828 11.4373 38.7849C10.1948 39.3869 8.53342 38.5251 8.53342 38.5251C8.53342 38.5251 8.8866 36.6872 10.1291 36.0851Z" stroke="#69C0B0" stroke-width="1.5"/>
<path d="M14.2709 39.1606C15.0069 37.9924 16.8727 37.845 16.8727 37.845C16.8727 37.845 17.5452 39.5916 16.8092 40.7598C16.0732 41.928 14.2074 42.0754 14.2074 42.0754C14.2074 42.0754 13.5349 40.3289 14.2709 39.1606Z" stroke="#69C0B0" stroke-width="1.5"/>
<path d="M26.0138 38.8803C30.3681 38.3608 34.3533 36.1788 37.1367 32.7902C39.92 29.4015 41.2863 25.0684 40.9499 20.6961" stroke="#69C0B0" stroke-width="1.5" stroke-linecap="round"/>
<path d="M42.2182 25.4639C41.0977 26.2707 41.066 28.142 41.066 28.142C41.066 28.142 42.8508 28.7052 43.9713 27.8984C45.0917 27.0916 45.1235 25.2203 45.1235 25.2203C45.1235 25.2203 43.3386 24.6571 42.2182 25.4639Z" stroke="#69C0B0" stroke-width="1.5"/>
<path d="M41.0045 31.3955C39.6318 31.5439 38.6802 33.1556 38.6802 33.1556C38.6802 33.1556 39.9543 34.5266 41.327 34.3781C42.6997 34.2297 43.6512 32.6181 43.6512 32.6181C43.6512 32.6181 42.3772 31.2471 41.0045 31.3955Z" stroke="#69C0B0" stroke-width="1.5"/>
<path d="M37.8709 36.0851C36.6283 35.483 34.967 36.3448 34.967 36.3448C34.967 36.3448 35.3202 38.1828 36.5627 38.7849C37.8052 39.3869 39.4666 38.5251 39.4666 38.5251C39.4666 38.5251 39.1134 36.6872 37.8709 36.0851Z" stroke="#69C0B0" stroke-width="1.5"/>
<path d="M33.7291 39.1606C32.9931 37.9924 31.1273 37.845 31.1273 37.845C31.1273 37.845 30.4548 39.5916 31.1908 40.7598C31.9268 41.928 33.7926 42.0754 33.7926 42.0754C33.7926 42.0754 34.4651 40.3289 33.7291 39.1606Z" stroke="#69C0B0" stroke-width="1.5"/>
</svg>
