<svg width="48" height="48" viewBox="0 0 48 48" fill="none" xmlns="http://www.w3.org/2000/svg">
<path d="M31 43V41.0603M32.4028 33.6897L31 35.2414V39.1207M33.338 36.7931L31 39.1207M31 39.1207V41.0603M31 28L35.2085 33.6897C37.5465 36.7931 34.2733 41.9655 31 41.0603" stroke="#69C0B0" stroke-width="1.5" stroke-linecap="round" stroke-linejoin="round"/>
<path d="M31 43V41.0603M29.5972 33.6897L31 35.2414V39.1207M28.662 36.7931L31 39.1207M31 39.1207V41.0603M31 28L26.7915 33.6897C24.4535 36.7931 27.7267 41.9655 31 41.0603" stroke="#69C0B0" stroke-width="1.5" stroke-linecap="round" stroke-linejoin="round"/>
<path d="M39 46V44.0603M40.4028 36.6897L39 38.2414V42.1207M41.338 39.7931L39 42.1207M39 42.1207V44.0603M39 31L43.2085 36.6897C45.5465 39.7931 42.2733 44.9655 39 44.0603" stroke="#69C0B0" stroke-width="1.5" stroke-linecap="round" stroke-linejoin="round"/>
<path d="M39 46V44.0603M37.5972 36.6897L39 38.2414V42.1207M36.662 39.7931L39 42.1207M39 42.1207V44.0603M39 31L36.8958 33.8448L36.0413 35M39 44.0603C36.9157 44.6367 34.8314 42.7488 34.1959 40.5" stroke="#69C0B0" stroke-width="1.5" stroke-linecap="round" stroke-linejoin="round"/>
<circle cx="35.0273" cy="14.0312" r="4" stroke="#69C0B0" stroke-width="1.5"/>
<path d="M35.0273 6.03125V9.23125M35.0273 22.0313V18.8313M43.0273 14.0313H39.8273M27.0273 14.0313H30.2273" stroke="#69C0B0" stroke-width="1.5" stroke-linecap="round" stroke-linejoin="round"/>
<path d="M39.2806 7.25168L37.5799 9.96235M30.7772 20.805L32.4779 18.0943M41.8056 18.28L39.0949 16.5794M28.2522 9.77667L30.9629 11.4773" stroke="#69C0B0" stroke-width="1.5" stroke-linecap="round" stroke-linejoin="round"/>
<path d="M42.0699 10.2293L39.2532 11.7479M27.9863 17.8222L30.803 16.3036M38.8246 21.0676L37.306 18.2508M31.2316 6.98397L32.7502 9.80068" stroke="#69C0B0" stroke-width="1.5" stroke-linecap="round" stroke-linejoin="round"/>
<path d="M11 29V33M11 37V33M11 33L14 31M11 33L8 31" stroke="#69C0B0" stroke-width="1.5" stroke-linecap="round" stroke-linejoin="round"/>
<path d="M11 45V41M11 37V41M11 41L14 43M11 41L8 43" stroke="#69C0B0" stroke-width="1.5" stroke-linecap="round" stroke-linejoin="round"/>
<path d="M19 37H15M11 37H15M15 37L17 34M15 37L17 40" stroke="#69C0B0" stroke-width="1.5" stroke-linecap="round" stroke-linejoin="round"/>
<path d="M3 37H7M11 37H7M7 37L5 40M7 37L5 34" stroke="#69C0B0" stroke-width="1.5" stroke-linecap="round" stroke-linejoin="round"/>
<path d="M8 34L14 40M14 34L8 40" stroke="#69C0B0" stroke-width="1.5" stroke-linecap="round" stroke-linejoin="round"/>
<circle cx="11" cy="14" r="3" stroke="#69C0B0" stroke-width="1.5"/>
<path d="M9.15105 7.48354C9.8315 5.83351 12.1685 5.83351 12.849 7.48354L13.2731 8.51216L14.3004 8.08476C15.9483 7.39917 17.6008 9.05168 16.9152 10.6996L16.4878 11.7269L17.5165 12.151C19.1665 12.8315 19.1665 15.1685 17.5165 15.849L16.4878 16.2731L16.9152 17.3004C17.6008 18.9483 15.9483 20.6008 14.3004 19.9152L13.2731 19.4878L12.849 20.5165C12.1685 22.1665 9.8315 22.1665 9.15105 20.5165L8.72686 19.4878L7.69957 19.9152C6.05168 20.6008 4.39917 18.9483 5.08476 17.3004L5.51216 16.2731L4.48354 15.849C2.83351 15.1685 2.83351 12.8315 4.48354 12.151L5.51216 11.7269L5.08476 10.6996C4.39917 9.05168 6.05168 7.39917 7.69957 8.08476L8.72686 8.51216L9.15105 7.48354Z" stroke="#69C0B0" stroke-width="1.5"/>
</svg>
