<svg width="49" height="49" viewBox="0 0 49 49" fill="none" xmlns="http://www.w3.org/2000/svg">
<path d="M12.7544 31.5225C15.1007 28.1792 20.7976 24.1672 26.494 24.8359M13.4251 22.8299C18.1167 21.4926 21.1322 22.8299 27.8349 22.8299M8.39844 46.9016C8.95696 45.007 10.074 40.9505 10.074 39.8807C10.074 38.5434 9.06918 33.5284 9.06866 29.8508C9.0683 27.3276 10.7442 23.3871 10.7442 20.8239L9.26136 11.06C9.14906 10.3205 9.57018 9.60349 10.2707 9.3414V9.3414C11.0878 9.0357 11.9981 9.44948 12.3051 10.2661L15.7709 19.4866L17.0068 3.76559C17.0675 2.99396 17.6677 2.3742 18.437 2.28891V2.28891C19.3555 2.18708 20.1716 2.87629 20.225 3.79889L21.1322 19.4866L25.0981 3.66002C25.3155 2.79249 26.184 2.25571 27.0572 2.44926V2.44926C27.8808 2.63182 28.4343 3.40581 28.341 4.24421L26.494 20.8239L32.208 8.82259C32.5606 8.08189 33.4683 7.79692 34.1811 8.20315V8.20315C34.775 8.54167 35.0409 9.25718 34.8122 9.90141L29.5105 24.8359C29.5105 24.8359 27.8594 31.3067 28.8399 31.5225C31.6877 32.1492 35.5442 30.7145 37.5524 29.8238C38.2848 29.499 39.1652 29.8146 39.4813 30.5509V30.5509C39.7269 31.123 39.5543 31.7896 39.0636 32.1728C35.6 34.8781 33.1416 36.8335 28.1697 38.6663C25.973 39.476 22.808 41.9309 21.8027 43.9369C20.9984 45.5416 20.4625 46.9016 20.4625 46.9016H8.39844Z" stroke="#69C0B0" stroke-width="1.5" stroke-linecap="round" stroke-linejoin="round"/>
</svg>
