<svg width="48" height="48" viewBox="0 0 48 48" fill="none" xmlns="http://www.w3.org/2000/svg">
<path d="M16 34.4981H42M16 34.4981H5.5M16 34.4981C16.2108 32.5308 16.5721 31.4494 18 30.8746M42 34.4981H45.5C45.4099 36.9467 44.9375 38.1825 41.5 39.9981H6C2.98105 38.5847 2.16061 37.2006 2 34.4981H5.5M42 34.4981C42.1276 30.4018 41.6793 28.666 38 28.4981C37.1702 26.4196 36.536 25.7654 34.5 27.4981C32.2592 24.2279 30.7711 23.8773 28 25.9981C25.9177 24.1237 24.777 23.7611 23.2614 25.5M5.5 34.4981L13.5 27L15.5 28.5M18 30.8746C18.4065 30.711 18.8995 30.5884 19.5 30.4981C19.4104 28.1963 19.8335 27.2072 22.5 26.4981C22.767 26.11 23.019 25.7781 23.2614 25.5M18 30.8746L15.5 28.5M15.5 28.5L17 24L23.2614 25.5M17.5 19C20.3084 16.8937 16.5 12.5 19 10M22.5 17C25.3084 14.8937 21.5 10.5 24 8M31.5 20.5C34.3084 18.3937 30 17.5 32.5 15" stroke="white" stroke-width="1.5" stroke-linecap="round" stroke-linejoin="round"/>
</svg>
