<svg width="48" height="48" viewBox="0 0 48 48" fill="none" xmlns="http://www.w3.org/2000/svg">
<path d="M33.8535 18.788C35.0972 19.1137 36.4095 19.0632 37.6244 18.643C38.8394 18.2229 39.9025 17.4518 40.6793 16.4275C41.4561 15.4031 41.9116 14.1714 41.9884 12.8881C42.0652 11.6048 41.7597 10.3276 41.1105 9.21794C40.4614 8.10828 39.4978 7.21603 38.3416 6.65402C37.1853 6.09201 35.8884 5.88548 34.6148 6.06055C33.3412 6.23562 32.1481 6.78443 31.1864 7.63757C30.2247 8.49071 29.5376 9.60987 29.212 10.8535" stroke="white" stroke-width="1.5" stroke-linecap="round"/>
<path d="M21 28.0048L8 13.049H21H34L21 28.0048ZM21 28.0048V45M21 45H13.4737M21 45H28.5263M24.12 19.481L9.56 3" stroke="white" stroke-width="1.5" stroke-linecap="round" stroke-linejoin="round"/>
</svg>
