<svg width="48" height="48" viewBox="0 0 48 48" fill="none" xmlns="http://www.w3.org/2000/svg">
<path d="M24 12C25.7246 7.39368 24.6779 3.03802 29 2" stroke="white" stroke-width="1.5" stroke-linecap="round" stroke-linejoin="round"/>
<circle cx="24" cy="14" r="5" stroke="white" stroke-width="1.5" stroke-linecap="round" stroke-linejoin="round"/>
<path d="M28.147 31.5185H24.3067H20.4663M28.147 31.5185H31.9874H35.8277M28.147 31.5185L26.9063 47M35.8277 31.5185L32.5782 47M35.8277 31.5185H37.7479M12.7857 31.5185H16.626H20.4663M12.7857 31.5185H20.4663M12.7857 31.5185L15.5625 47M12.7857 31.5185H10.8655M20.4663 31.5185L21.2344 47M15.5625 47H18.3985H21.2344M15.5625 47H12.7266L8.94532 31.5185H10.8655M15.5625 47H21.2344M21.2344 47H24.0704H26.9063M26.9063 47H29.7422H32.5782M26.9063 47H32.5782M32.5782 47H35.4141L39.6681 31.5185H37.7479M10.8655 31.5185C9.91032 31.2058 8 30.0173 8 27.7654C8 25.5136 10.5208 23.6996 11.7813 23.0741M11.7813 23.0741C11.476 22.7613 9.41797 22.1358 9.89063 19.321C10.3836 16.385 13.6367 15.8457 16 13.5C17.8906 11.6235 17.138 9.46914 15.5625 9C16.4862 9.12502 18.5255 9.1412 21 10M11.7813 23.0741C16.5658 24.0738 29.3014 26.148 32.5782 20.7284M37.7479 31.5185C41.5587 28.2346 40.9713 19.321 32.5782 20.7284M32.5782 20.7284C34.0464 18.3001 32.6745 16.4443 29.5 14.5" stroke="white" stroke-width="1.5" stroke-linecap="round" stroke-linejoin="round"/>
</svg>
