<svg width="48" height="48" viewBox="0 0 48 48" fill="none" xmlns="http://www.w3.org/2000/svg">
<path d="M34.8585 28.7531L33.5733 27.2537C32.1285 27.7961 30.8442 28.1406 29.5733 28.3408M34.8585 28.7531L36.5733 30.7537L36.0733 39.2537H39.0733L40.5733 28.2537C39.9066 27.2537 39.0733 26.2549 39.5733 23.7537C39.9997 21.6208 43.0068 19 41.5068 16M34.8585 28.7531L35.0733 30.7531L34.0733 39.2537H31.5733V30.7537L29.5733 28.3408M29.5733 28.3408C29.0742 28.4194 28.5771 28.4758 28.0733 28.5132M28.0733 28.5132C27.5733 25.8485 25.5733 20.8193 21.5733 22.0193C17.5733 23.2193 20.5733 26.7614 22.5733 28.3825M28.0733 28.5132C26.4186 28.6359 24.6904 28.5539 22.5733 28.3825M22.5733 28.3825C22.0944 28.3437 21.5956 28.3003 21.0733 28.2537L22.0733 30.2537L21.0733 39.2537H18.0733V30.7537L17.0693 29.9269M37.5733 14C38.2087 14.0071 38.5733 14.0111 38.5733 14.0111C40.0068 14 40.9463 15.2643 41.5068 16M37.5733 14C36.0733 16.1668 32.3733 20.7005 29.5733 21.5005C26.0733 22.5005 25.5733 19.0193 25.0733 16.0193L24.0693 14.0861M37.5733 14L17.5693 14.1275M6.57329 13.5C4.95995 11.4611 4.80288 10.2505 5.07329 8C6.39262 9.87193 6.74843 10.7567 8.56821 12M6.57329 13.5C6.89456 12.9767 7.52082 12.2947 8.56821 12M6.57329 13.5V14.5M8.56821 12H12.0733M12.0733 12C14.5752 10.8949 15.5334 9.90842 17.0733 8C16.7138 10.7563 16.5547 11.8332 14.5733 13.5M12.0733 12C13.4705 12.0387 13.9853 12.4096 14.5733 13.5M14.5733 13.5V14.5M6.57329 14.5C6.57329 14.5 2.67961 13.3388 2.06821 15C1.38896 16.8455 6 17.25 6 17.25M6.57329 14.5L6 17.25M6 17.25L7 20C7 21.5 7.07329 23.7537 9.07329 23.7537H9.50685M14.5733 14.5C14.5733 14.5 18.4571 13.3429 19.0682 15C19.7474 16.8418 15 17.25 15 17.25M14.5733 14.5L15 17.25M15 17.25L13.8233 20C13.8233 22.5 13.0733 23.7537 11.5733 23.7537H9.50685M17.0693 29.9269L15.5693 39.2537H13.8233V30.2537L13.2881 26.8403M17.0693 29.9269L13.2881 26.8403M41.5068 16C42.818 16.0746 44.5068 17.9 44.5068 21.5C44.5068 25.1 44.5068 25.5 44.5068 26M44.5068 26C44.5068 26 43.6073 27.1326 43.5068 28C43.3752 29.1365 44.5068 30.7537 44.5068 30.7537C44.5068 30.7537 45.7765 29.3397 45.7306 28.2537C45.6883 27.2531 44.5068 26 44.5068 26ZM9.50685 23.7537L13.2881 26.8403" stroke="#69C0B0" stroke-width="1.5" stroke-linecap="round" stroke-linejoin="round"/>
</svg>
