<svg width="49" height="48" viewBox="0 0 49 48" fill="none" xmlns="http://www.w3.org/2000/svg">
<path d="M10.832 24.4256C4.49057 25.3157 2.71765 27.2708 2.33203 32.9256C8.37085 32.7263 9.76155 30.3494 10.832 24.4256ZM10.832 24.4256C9.51063 18.0373 7.77322 16.0907 2.33203 16.4283C3.41627 24.3241 6.48753 23.7709 10.832 24.4256ZM10.832 24.4256C13.7499 20.1356 17.8462 17.2017 22.332 15.7439M10.832 24.4256C13.1021 27.4976 16.0497 29.9631 19.332 31.6507M22.332 15.7439C22.332 15.7439 21.7251 10.9297 22.332 9.92827C24.5958 6.19329 32.332 14.9355 32.332 14.9355M22.332 15.7439C25.5616 14.6944 28.993 14.4101 32.332 14.9355M32.332 14.9355C33.4567 15.1125 34.571 15.3814 35.6634 15.7439M19.332 31.6507C21.853 32.9469 24.5715 33.7842 27.332 34.085M19.332 31.6507C19.332 31.6507 17.8931 35.6911 19.332 37.4297C21.4911 40.0383 27.332 34.085 27.332 34.085M27.332 34.085C30.1195 34.3888 32.95 34.1454 35.6634 33.275M35.6634 15.7439C39.9462 17.165 43.895 20.0245 46.832 24.4256C43.7854 29.0765 39.8647 31.9274 35.6634 33.275M35.6634 15.7439C31.1758 22.5954 31.8439 26.4132 35.6634 33.275M29.332 30.9297C27.1539 27.6378 26.8075 25.4781 27.332 20.9297M39.832 23.9297V24.9297M39.332 24.4297H40.332" stroke="#69C0B0" stroke-width="1.5" stroke-linecap="round" stroke-linejoin="round"/>
</svg>
