<svg width="49" height="48" viewBox="0 0 49 48" fill="none" xmlns="http://www.w3.org/2000/svg">
<path d="M27.0379 36.2867C43.118 31.2845 40.0528 23.4422 36.818 11.3491C39.2037 11.7196 40.2561 11.8882 40.868 9.4569H42.668L40.868 8.09268M28.718 32.2672C27.8037 35.1677 27.1064 36.885 24.668 38.8592M17.918 32.2672C18.0571 33.3427 18.2592 34.2351 18.5468 34.9957M18.5468 34.9957C15.2211 35.1276 13.4133 33.6252 11.7756 28.5561M18.5468 34.9957C18.9237 35.9922 19.4472 36.7625 20.168 37.4216M15.668 28.1746C12.1689 28.9552 8.91797 29.4655 8.91797 23.0697M12.518 24.0819C9.74671 23.943 8.01797 24.0819 7.56797 18.3616M10.718 19.9892C8.07449 19.884 7.19601 18.7605 6.66797 14.987C7.3233 12.3381 10.6031 15.9578 14.318 17.7705M14.318 17.7705C15.7049 18.4473 17.1525 18.8722 18.5468 18.625C25.118 17.7705 27.5632 17.4206 28.268 17.421M14.318 17.7705C18.0824 24.4017 21.068 28.5561 29.168 27.2651C36.8329 25.6344 34.3714 17.4253 28.268 17.421M24.668 38.8592L26.468 44.472M24.668 38.8592C22.2448 38.5655 21.4012 38.2021 20.168 37.4216M26.468 44.472L23.768 45L20.618 44.472M26.468 44.472L30.968 45M20.168 37.4216L20.618 44.472M20.618 44.472L17.918 45M28.268 17.421C30.6805 9.62338 32.4845 8.21859 35.918 6.80168C36.2393 6.72701 36.5385 6.6667 36.818 6.62216M36.818 6.62216C36.218 5.62082 36.0239 3.61496 38.168 4.06474C41.318 4.72554 41.7504 6.75781 40.868 8.09268M36.818 6.62216C38.6468 6.33063 40.0615 6.64404 40.868 8.09268" stroke="#69C0B0" stroke-width="1.5" stroke-linecap="round" stroke-linejoin="round"/>
</svg>
