<svg width="48" height="48" viewBox="0 0 48 48" fill="none" xmlns="http://www.w3.org/2000/svg">
<path d="M3 45C15.9546 36.8209 22.5623 30.7507 32.9176 16.272M7.34557 39.0504C7.67985 38.8238 8.3484 37.9285 8.3484 36.1606C8.3484 34.3928 8.7941 32.7042 9.01695 32.0809M10.8555 35.3116C11.0783 33.8383 11.9251 29.6331 13.5297 27.3213C15.5353 24.4315 21.7194 18.4862 22.2208 13.7222C22.4694 11.3602 23.7807 13.7222 24.2264 16.272C26.065 10.4361 36.5946 -0.382933 42.2773 5.90106C47.96 12.1851 38.4331 27.3213 30.4105 29.702M26.7335 32.4218C28.0706 32.7617 30.7448 33.0322 32.0819 32.0809C32.3196 31.9118 27.4021 38.8813 22.3879 39.7312C18.3766 40.4112 17.2067 40.0712 13.0282 41.2611" stroke="#69C0B0" stroke-width="1.5" stroke-linecap="round" stroke-linejoin="round"/>
</svg>
