<svg width="56" height="57" viewBox="0 0 56 57" fill="none" xmlns="http://www.w3.org/2000/svg">
<g clip-path="url(#clip0_3175_70634)">
<path fill-rule="evenodd" clip-rule="evenodd" d="M3.5 28.5C3.5 34.9978 6.08124 41.2295 10.6759 45.8241C15.2705 50.4188 21.5022 53 28 53C34.4978 53 40.7295 50.4188 45.3241 45.8241C49.9188 41.2295 52.5 34.9978 52.5 28.5C52.5 22.0022 49.9188 15.7705 45.3241 11.1759C40.7295 6.58124 34.4978 4 28 4C21.5022 4 15.2705 6.58124 10.6759 11.1759C6.08124 15.7705 3.5 22.0022 3.5 28.5ZM56 28.5C56 35.9261 53.05 43.048 47.799 48.299C42.548 53.55 35.4261 56.5 28 56.5C20.5739 56.5 13.452 53.55 8.20101 48.299C2.94999 43.048 0 35.9261 0 28.5C0 21.0739 2.94999 13.952 8.20101 8.70101C13.452 3.44999 20.5739 0.5 28 0.5C35.4261 0.5 42.548 3.44999 47.799 8.70101C53.05 13.952 56 21.0739 56 28.5ZM15.75 26.75C15.2859 26.75 14.8408 26.9344 14.5126 27.2626C14.1844 27.5908 14 28.0359 14 28.5C14 28.9641 14.1844 29.4093 14.5126 29.7374C14.8408 30.0656 15.2859 30.25 15.75 30.25H36.0255L28.511 37.761C28.3483 37.9237 28.2192 38.1169 28.1312 38.3295C28.0431 38.542 27.9978 38.7699 27.9978 39C27.9978 39.2301 28.0431 39.458 28.1312 39.6705C28.2192 39.8831 28.3483 40.0763 28.511 40.239C28.6737 40.4017 28.8669 40.5308 29.0795 40.6188C29.292 40.7069 29.5199 40.7522 29.75 40.7522C29.9801 40.7522 30.208 40.7069 30.4205 40.6188C30.6331 40.5308 30.8263 40.4017 30.989 40.239L41.489 29.739C41.652 29.5764 41.7813 29.3833 41.8695 29.1707C41.9577 28.9581 42.0031 28.7302 42.0031 28.5C42.0031 28.2698 41.9577 28.0419 41.8695 27.8293C41.7813 27.6167 41.652 27.4236 41.489 27.261L30.989 16.761C30.8263 16.5983 30.6331 16.4692 30.4205 16.3812C30.208 16.2931 29.9801 16.2478 29.75 16.2478C29.5199 16.2478 29.292 16.2931 29.0795 16.3812C28.8669 16.4692 28.6737 16.5983 28.511 16.761C28.3483 16.9237 28.2192 17.1169 28.1312 17.3295C28.0431 17.542 27.9978 17.7699 27.9978 18C27.9978 18.2301 28.0431 18.458 28.1312 18.6705C28.2192 18.8831 28.3483 19.0763 28.511 19.239L36.0255 26.75H15.75Z" fill="#363535"/>
</g>
<defs>
<clipPath id="clip0_3175_70634">
<rect width="56" height="56" fill="white" transform="translate(0 0.5)"/>
</clipPath>
</defs>
</svg>
