<svg width="56" height="57" viewBox="0 0 56 57" fill="none" xmlns="http://www.w3.org/2000/svg">
<g clip-path="url(#clip0_3175_70628)">
<path fill-rule="evenodd" clip-rule="evenodd" d="M52.5 28.5C52.5 22.0022 49.9188 15.7705 45.3241 11.1759C40.7295 6.58125 34.4978 4 28 4C21.5022 4 15.2705 6.58125 10.6759 11.1759C6.08124 15.7705 3.5 22.0022 3.5 28.5C3.5 34.9978 6.08124 41.2295 10.6759 45.8241C15.2705 50.4188 21.5022 53 28 53C34.4978 53 40.7295 50.4188 45.3241 45.8241C49.9188 41.2295 52.5 34.9978 52.5 28.5ZM-2.44784e-06 28.5C-3.09704e-06 21.0739 2.94999 13.952 8.201 8.70101C13.452 3.44999 20.5739 0.500003 28 0.500002C35.4261 0.500002 42.548 3.44999 47.799 8.70101C53.05 13.952 56 21.0739 56 28.5C56 35.9261 53.05 43.048 47.799 48.299C42.548 53.55 35.4261 56.5 28 56.5C20.5739 56.5 13.452 53.55 8.20101 48.299C2.94999 43.048 -1.79863e-06 35.9261 -2.44784e-06 28.5ZM40.25 30.25C40.7141 30.25 41.1592 30.0656 41.4874 29.7374C41.8156 29.4092 42 28.9641 42 28.5C42 28.0359 41.8156 27.5908 41.4874 27.2626C41.1592 26.9344 40.7141 26.75 40.25 26.75L19.9745 26.75L27.489 19.239C27.6517 19.0763 27.7808 18.8831 27.8688 18.6705C27.9569 18.458 28.0022 18.2301 28.0022 18C28.0022 17.7699 27.9569 17.542 27.8688 17.3295C27.7808 17.1169 27.6517 16.9237 27.489 16.761C27.3263 16.5983 27.1331 16.4692 26.9205 16.3812C26.708 16.2931 26.4801 16.2478 26.25 16.2478C26.0199 16.2478 25.792 16.2931 25.5795 16.3812C25.3669 16.4692 25.1737 16.5983 25.011 16.761L14.511 27.261C14.348 27.4236 14.2187 27.6167 14.1305 27.8293C14.0423 28.0419 13.9969 28.2698 13.9969 28.5C13.9969 28.7302 14.0423 28.9581 14.1305 29.1707C14.2187 29.3833 14.348 29.5764 14.511 29.739L25.011 40.239C25.1737 40.4017 25.3669 40.5308 25.5795 40.6188C25.792 40.7069 26.0199 40.7522 26.25 40.7522C26.4801 40.7522 26.708 40.7069 26.9205 40.6188C27.1331 40.5308 27.3263 40.4017 27.489 40.239C27.6517 40.0763 27.7808 39.8831 27.8688 39.6705C27.9569 39.458 28.0022 39.2301 28.0022 39C28.0022 38.7699 27.9569 38.542 27.8688 38.3295C27.7808 38.1169 27.6517 37.9237 27.489 37.761L19.9745 30.25L40.25 30.25Z" fill="#363535"/>
</g>
<defs>
<clipPath id="clip0_3175_70628">
<rect width="56" height="56" fill="white" transform="translate(56 56.5) rotate(180)"/>
</clipPath>
</defs>
</svg>
