<svg width="48" height="48" viewBox="0 0 48 48" fill="none" xmlns="http://www.w3.org/2000/svg">
<path d="M21.5652 10.0002L6.89251 10C6.13508 10 5.52106 10.614 5.52106 11.3714V35.065C5.52106 35.8224 6.13507 36.4364 6.89249 36.4364H22.4857C23.3746 36.4435 23.47 37.4775 23.5489 38.1386M21.5652 10.0002L4.36562 10.0001C3.6082 10.0001 2.99418 10.6141 2.99418 11.3715V37.4287C2.99418 38.1861 3.6082 38.8001 4.36561 38.8001H22.8874C23.2527 38.8001 23.5489 38.5039 23.5489 38.1386V38.1386M21.5652 10.0002C23.5501 10 23.6356 11.6301 23.5489 13.033V38.1386" stroke="#69C0B0" stroke-width="1.5" stroke-linejoin="round"/>
<path d="M25.5715 10.0002L40.2442 10C41.0016 10 41.6157 10.614 41.6157 11.3714V35.065C41.6157 35.8224 41.0016 36.4364 40.2442 36.4364H24.651C23.7621 36.4435 23.6668 37.4775 23.5878 38.1386M25.5715 10.0002L42.7711 10.0001C43.5285 10.0001 44.1425 10.6141 44.1425 11.3715V37.4287C44.1425 38.1861 43.5285 38.8001 42.7711 38.8001H24.2493C23.884 38.8001 23.5878 38.5039 23.5878 38.1386V38.1386M25.5715 10.0002C23.5866 10 23.5012 11.6301 23.5878 13.033V38.1386" stroke="#69C0B0" stroke-width="1.5" stroke-linejoin="round"/>
<rect x="38.7422" y="33" width="1.37143" height="1.37143" rx="0.685714" transform="rotate(180 38.7422 33)" fill="#69C0B0"/>
<rect x="36" y="33" width="1.37143" height="1.37143" rx="0.685714" transform="rotate(180 36 33)" fill="#69C0B0"/>
<rect x="28.457" y="33" width="1.37143" height="1.37143" rx="0.685714" transform="rotate(180 28.457 33)" fill="#69C0B0"/>
<rect x="31.1992" y="30.2578" width="1.37143" height="1.37143" rx="0.685714" transform="rotate(180 31.1992 30.2578)" fill="#69C0B0"/>
<rect x="38.7422" y="30.2578" width="1.37143" height="1.37143" rx="0.685714" transform="rotate(180 38.7422 30.2578)" fill="#69C0B0"/>
<rect x="38.7422" y="27.5156" width="1.37143" height="1.37143" rx="0.685714" transform="rotate(180 38.7422 27.5156)" fill="#69C0B0"/>
<rect x="33.2578" y="27.5156" width="1.37143" height="1.37143" rx="0.685714" transform="rotate(180 33.2578 27.5156)" fill="#69C0B0"/>
<rect x="36" y="24.7734" width="1.37143" height="1.37143" rx="0.685714" transform="rotate(180 36 24.7734)" fill="#69C0B0"/>
<rect x="36" y="22.7109" width="1.37143" height="1.37143" rx="0.685714" transform="rotate(180 36 22.7109)" fill="#69C0B0"/>
<rect x="33.2578" y="19.9688" width="1.37143" height="1.37143" rx="0.685714" transform="rotate(180 33.2578 19.9688)" fill="#69C0B0"/>
<rect x="36" y="17.2266" width="1.37143" height="1.37143" rx="0.685714" transform="rotate(180 36 17.2266)" fill="#69C0B0"/>
<rect x="38.7422" y="14.4844" width="1.37143" height="1.37143" rx="0.685714" transform="rotate(180 38.7422 14.4844)" fill="#69C0B0"/>
<rect x="28.457" y="14.4844" width="1.37143" height="1.37143" rx="0.685714" transform="rotate(180 28.457 14.4844)" fill="#69C0B0"/>
<rect x="33.2578" y="17.2266" width="1.37143" height="1.37143" rx="0.685714" transform="rotate(180 33.2578 17.2266)" fill="#69C0B0"/>
<rect x="38.7422" y="22.7109" width="1.37143" height="1.37143" rx="0.685714" transform="rotate(180 38.7422 22.7109)" fill="#69C0B0"/>
<rect x="33.2578" y="24.7734" width="1.37143" height="1.37143" rx="0.685714" transform="rotate(180 33.2578 24.7734)" fill="#69C0B0"/>
<rect x="31.1992" y="22.7109" width="1.37143" height="1.37143" rx="0.685714" transform="rotate(180 31.1992 22.7109)" fill="#69C0B0"/>
<rect x="31.1992" y="17.2266" width="1.37143" height="1.37143" rx="0.685714" transform="rotate(180 31.1992 17.2266)" fill="#69C0B0"/>
<rect x="28.457" y="19.9688" width="1.37143" height="1.37143" rx="0.685714" transform="rotate(180 28.457 19.9688)" fill="#69C0B0"/>
<rect x="31.1992" y="24.7734" width="1.37143" height="1.37143" rx="0.685714" transform="rotate(180 31.1992 24.7734)" fill="#69C0B0"/>
<rect x="9" y="13" width="1.37143" height="1.37143" rx="0.685714" fill="#69C0B0"/>
<rect x="11.7422" y="13" width="1.37143" height="1.37143" rx="0.685714" fill="#69C0B0"/>
<rect x="19.2852" y="13" width="1.37143" height="1.37143" rx="0.685714" fill="#69C0B0"/>
<rect x="16.543" y="15.7422" width="1.37143" height="1.37143" rx="0.685714" fill="#69C0B0"/>
<rect x="9" y="15.7422" width="1.37143" height="1.37143" rx="0.685714" fill="#69C0B0"/>
<rect x="9" y="18.4844" width="1.37143" height="1.37143" rx="0.685714" fill="#69C0B0"/>
<rect x="14.4844" y="18.4844" width="1.37143" height="1.37143" rx="0.685714" fill="#69C0B0"/>
<rect x="11.7422" y="21.2266" width="1.37143" height="1.37143" rx="0.685714" fill="#69C0B0"/>
<rect x="11.7422" y="23.2891" width="1.37143" height="1.37143" rx="0.685714" fill="#69C0B0"/>
<rect x="14.4844" y="26.0312" width="1.37143" height="1.37143" rx="0.685714" fill="#69C0B0"/>
<rect x="11.7422" y="28.7734" width="1.37143" height="1.37143" rx="0.685714" fill="#69C0B0"/>
<rect x="9" y="31.5156" width="1.37143" height="1.37143" rx="0.685714" fill="#69C0B0"/>
<rect x="19.2852" y="31.5156" width="1.37143" height="1.37143" rx="0.685714" fill="#69C0B0"/>
<rect x="14.4844" y="28.7734" width="1.37143" height="1.37143" rx="0.685714" fill="#69C0B0"/>
<rect x="9" y="23.2891" width="1.37143" height="1.37143" rx="0.685714" fill="#69C0B0"/>
<rect x="14.4844" y="21.2266" width="1.37143" height="1.37143" rx="0.685714" fill="#69C0B0"/>
<rect x="16.543" y="23.2891" width="1.37143" height="1.37143" rx="0.685714" fill="#69C0B0"/>
<rect x="16.543" y="28.7734" width="1.37143" height="1.37143" rx="0.685714" fill="#69C0B0"/>
<rect x="19.2852" y="26.0312" width="1.37143" height="1.37143" rx="0.685714" fill="#69C0B0"/>
<rect x="16.543" y="21.2266" width="1.37143" height="1.37143" rx="0.685714" fill="#69C0B0"/>
</svg>
