<svg width="48" height="48" viewBox="0 0 48 48" fill="none" xmlns="http://www.w3.org/2000/svg">
<path d="M23.6809 25.4412L15.0409 39.2013L7.20094 25.4412M23.6809 25.4412H20.0009M23.6809 25.4412C24.5325 25.4412 25.2709 25.544 25.899 25.7521M34.7209 28.1612L32.4809 31.0413L32.1609 31.8146M34.7209 28.1612H43.2009M34.7209 28.1612H30.4009V25.7521H32.1609M43.2009 28.1612C41.1456 30.2166 39.9948 31.9781 37.1209 32.6413L36.6605 33.7612M43.2009 28.1612H46.8809V25.7521H43.2009M24.4809 47.0413H27.9845C29.9305 47.0413 31.684 45.8663 32.4239 44.0664L35.5423 36.4813M24.4809 47.0413H4.96094M24.4809 47.0413L25.899 25.7521M4.96094 47.0413H0.960938V31.0413C0.960938 28.219 1.52558 26.4319 3.52094 25.7521M4.96094 47.0413L3.52094 25.7521M7.20094 25.4412H5.76094C4.86592 25.4412 4.12735 25.5456 3.52094 25.7521M7.20094 25.4412H10.2409M31.2009 34.1346L28.6409 40.3213V30.4012C28.6409 27.8928 27.7491 26.3653 25.899 25.7521M31.2009 34.1346L35.5423 36.4813M31.2009 34.1346L32.1609 31.8146M35.5423 36.4813L36.6605 33.7612M32.1609 31.8146L36.6605 33.7612M13.4409 25.4412L10.2409 27.9212V25.4412M13.4409 25.4412C13.4409 25.4412 13.6009 27.0413 15.2009 27.0413C16.8009 27.0413 16.9609 25.4412 16.9609 25.4412M13.4409 25.4412C13.4409 25.4412 13.7609 24.0012 15.2009 24.0012C16.6409 24.0012 16.9609 25.4412 16.9609 25.4412M13.4409 25.4412L11.6809 24.3853M16.9609 25.4412L20.0009 27.9212V25.4412M16.9609 25.4412L18.4809 24.4812M20.0009 25.4412V23.5212L18.4809 24.4812M10.2409 25.4412V23.5212L11.6809 24.3853M43.2009 25.7521V21.6013M43.2009 25.7521H32.1609M43.2009 21.6013L40.8009 20.0013V15.5213H45.4409V20.0013L43.2009 21.6013ZM32.1609 25.7521V18.8813M32.1609 18.8813H38.4009M32.1609 18.8813L33.7609 12.9613V6.56125H36.6605V12.9613L38.4009 18.8813M38.4009 18.8813V21.6013M38.4009 25.4412V22.8812M38.4009 22.8812H34.7609V21.6013H38.4009M38.4009 22.8812V21.6013M12 4L11.68 1.6M12 4C13.6279 5.58382 15.7525 8.66737 18.2409 9.24164M12 4C11.069 6.20901 10.8376 8.38965 8.80094 9.24164M9.12094 16.6413C6.34068 17.6342 6.85084 15.1918 7.20094 13.4416M9.12094 16.6413C8.78013 18.4199 10.1358 20.3499 11.6809 21.0284M9.12094 16.6413V13.4416M20.8009 16.6413C23.2146 17.3659 22.9865 14.9024 22.7209 13.4416M20.8009 16.6413C21.1519 18.4361 19.7213 20.2251 18.2409 20.9475M20.8009 16.6413V13.7713M7.20094 9.24164V13.4416M7.20094 9.24164H8.80094M7.20094 9.24164C6.63728 5.48347 6.72094 1.28125 12.8009 1.28125H16.9609C23.3609 1.61125 23.6809 5.56125 22.7209 9.24164M22.7209 9.24164V13.4416M22.7209 9.24164H18.2409M22.7209 13.4416H9.12094M7.20094 13.4416H9.12094M18.2409 9.24164H8.80094M11.6809 21.0284C12.0503 21.1906 12.4305 21.2813 12.8009 21.2813H16.9609C17.3622 21.2813 17.8037 21.1609 18.2409 20.9475M11.6809 21.0284V24.3853M18.2409 20.9475L18.4809 24.4812M13.4409 17.9313C14.7637 18.6733 15.4529 18.5578 16.6409 17.9313" stroke="#69C0B0" stroke-width="1.5" stroke-linecap="round" stroke-linejoin="round"/>
</svg>
