<svg width="48" height="48" viewBox="0 0 48 48" fill="none" xmlns="http://www.w3.org/2000/svg">
<path d="M7 25C17.4022 33 29.5978 33 40 25" stroke="#69C0B0" stroke-width="1.5" stroke-linecap="round"/>
<path d="M32.0882 12.084C27.0638 12.084 10.2088 18.5369 6.32849 20.0489C5.86343 20.2301 5.34391 20.0399 5.09778 19.6057L3.52865 16.8375C3.24282 16.3333 3.43297 15.6991 3.95873 15.4551C8.63264 13.2859 29.0303 4.10148 34.6176 6.35238C39.869 8.46794 46 21 46 21C46 21 36.3395 12.084 32.0882 12.084Z" stroke="#69C0B0" stroke-width="1.5" stroke-linejoin="round"/>
<path d="M9.40273 27C8.84077 28.3327 7.65366 29.4711 6 30.2199M12.3194 28.5714C11.439 30.3026 10.3601 31.5545 8.91663 32.9314M18 30.6667C17.5816 32.7951 16.3318 34.5409 15.236 36.5M20.5 31.1905C20.1383 33.9521 19.7586 35.2746 19 37.4762M25.9307 31.1905C26.2287 33.601 26.4064 34.7739 27.6321 37.4762M28.8474 30.6667C28.9614 33.2786 29.9267 34.1237 31.2779 36.1667M33.7084 28.9643C35.127 31.0303 35.7872 31.9236 37.3542 32.9314M36.8933 27C37.8236 28.7424 38.8635 29.3947 41 30.2353M31.2779 30.1429C32.3911 32.6192 33.0376 33.2695 34.3161 34.8571M23.5002 31.1905V38M15 30C14.0877 32.1621 13 33.5 11.5 35" stroke="#69C0B0" stroke-width="1.5" stroke-linecap="round" stroke-linejoin="round"/>
</svg>
