<svg width="49" height="48" viewBox="0 0 49 48" fill="none" xmlns="http://www.w3.org/2000/svg">
<path d="M14.5893 18.6919L9.45005 20.0978C7.40444 20.6574 6.19979 22.7694 6.75939 24.815L7.85707 28.8275C8.41666 30.8732 10.5286 32.0778 12.5742 31.5182L17.7135 30.1123M14.5893 18.6919L31.8992 7.33271M14.5893 18.6919L17.7135 30.1123M31.8992 7.33271L31.8119 7.01359C31.5788 6.16125 32.0807 5.28127 32.933 5.04811L33.4491 4.90693C34.3014 4.67377 35.1814 5.1757 35.4146 6.02804L42.0851 30.4121C42.3183 31.2644 41.8163 32.1444 40.964 32.3776L40.4479 32.5188C39.5956 32.7519 38.7156 32.25 38.4825 31.3976L38.398 31.089M31.8992 7.33271L35.1486 19.2108L38.398 31.089M38.398 31.089L17.7135 30.1123" stroke="#69C0B0" stroke-width="1.5" stroke-linecap="round"/>
<path d="M15.063 30.9024L20.2517 41.5022C20.802 42.6264 22.1614 43.089 23.2832 42.5338V42.5338C24.3993 41.9814 24.858 40.6301 24.3088 39.5125L19.7977 30.3318" stroke="#69C0B0" stroke-width="1.5" stroke-linecap="round"/>
<path d="M19.7982 30.3335L21.1849 33.1921C21.6529 34.1568 22.8173 34.5554 23.7783 34.0798V34.0798C24.721 33.6132 25.1167 32.4778 24.6682 31.5264L24.2176 30.5706" stroke="#69C0B0" stroke-width="1.5" stroke-linecap="round"/>
<path d="M39.7371 20.2866C40.1165 20.2636 40.486 20.1564 40.8188 19.9728C41.1517 19.7892 41.4394 19.5338 41.6612 19.2251C41.883 18.9164 42.0333 18.5622 42.1012 18.1882C42.169 17.8142 42.1527 17.4298 42.0535 17.0629C41.9542 16.696 41.7745 16.3558 41.5274 16.067C41.2803 15.7781 40.972 15.548 40.6248 15.3932C40.2777 15.2384 39.9004 15.1628 39.5204 15.172C39.1404 15.1812 38.7672 15.2749 38.428 15.4463" stroke="#69C0B0" stroke-width="1.5" stroke-linecap="round" stroke-linejoin="round"/>
<path d="M9.16797 8V6H3.16797V11.5H9.16797V9.75M9.16797 8L12.168 6V11.5L9.16797 9.75M9.16797 8V9.75M37.168 36.5V42L41.168 39.5L37.168 36.5Z" stroke="#69C0B0" stroke-width="1.5" stroke-linecap="round" stroke-linejoin="round"/>
<circle cx="4.66797" cy="40.5" r="1.5" stroke="#69C0B0" stroke-width="1.5"/>
<circle cx="10.668" cy="36.5" r="1.5" stroke="#69C0B0" stroke-width="1.5"/>
<circle cx="10.668" cy="43.5" r="1.5" stroke="#69C0B0" stroke-width="1.5"/>
<path d="M9.16797 37L6.16797 39M6.16797 41L9.16797 43" stroke="#69C0B0" stroke-width="1.5" stroke-linecap="round" stroke-linejoin="round"/>
</svg>
