<svg width="48" height="48" viewBox="0 0 48 48" fill="none" xmlns="http://www.w3.org/2000/svg">
<path d="M45.8743 22.6431C45.2875 17.1976 42.6907 12.1668 38.5915 8.53442C34.4923 4.90203 29.1856 2.92928 23.7091 3.00194C18.2326 3.07459 12.9801 5.18742 8.97868 8.92728L7.00031 7L4.5 15.5L13.0003 14L11.0616 11.1559C14.5082 7.93456 19.0324 6.11469 23.7495 6.05211" stroke="#69C0B0" stroke-width="1.5" stroke-linecap="round" stroke-linejoin="round"/>
<path d="M3.00069 25.9975C3.58746 31.443 6.18433 36.4738 10.2835 40.1062C14.3827 43.7386 19.6894 45.7113 25.1659 45.6387C30.6424 45.566 35.8949 43.4532 39.8963 39.7133L41.8747 41.6406L44.375 33.1406L35.8747 34.6406L37.8134 37.4848C34.3668 40.7061 29.8426 42.5259 25.1255 42.5885" stroke="#69C0B0" stroke-width="1.5" stroke-linecap="round" stroke-linejoin="round"/>
<path d="M34 25C34 27.1607 33.3002 29.2633 32.0052 30.993C30.7103 32.7227 28.89 33.9865 26.8168 34.5951C24.7436 35.2037 22.529 35.1245 20.5046 34.3692C18.4801 33.6139 16.7548 32.2233 15.5868 30.4054C14.4189 28.5876 13.8711 26.4404 14.0256 24.2852C14.18 22.13 15.0284 20.0828 16.4436 18.4501C17.8589 16.8174 19.7649 15.687 21.8763 15.2281C23.9877 14.7692 26.191 15.0066 28.1562 15.9046" stroke="#69C0B0" stroke-width="1.5" stroke-linecap="round"/>
<path d="M20.5 24.5L23.5 28L34 17" stroke="#69C0B0" stroke-width="1.5" stroke-linecap="round" stroke-linejoin="round"/>
</svg>
