<svg width="49" height="48" viewBox="0 0 49 48" fill="none" xmlns="http://www.w3.org/2000/svg">
<rect x="2.66797" y="4" width="44" height="40" rx="2" stroke="#69C0B0" stroke-width="1.5"/>
<path d="M3.66797 10H46.668M26.4354 7H41.8305M17.4107 7H14.2255M7.85516 7H11.0403" stroke="#69C0B0" stroke-width="1.5" stroke-linecap="round" stroke-linejoin="round"/>
<path d="M32.7981 37.1536L31.1133 30.3594L37.8996 32.7977L36.6844 34.1293L38.8624 36.6801L36.7969 38.7377L34.4986 35.7016L32.7981 37.1536Z" stroke="#69C0B0" stroke-width="1.5" stroke-linejoin="round"/>
<path d="M12.668 20L13.668 26L15.668 21.5L17.668 26L18.668 20" stroke="#69C0B0" stroke-width="1.5" stroke-linecap="round" stroke-linejoin="round"/>
<path d="M21.668 20L22.668 26L24.668 21.5L26.668 26L27.668 20" stroke="#69C0B0" stroke-width="1.5" stroke-linecap="round" stroke-linejoin="round"/>
<path d="M30.668 20L31.668 26L33.668 21.5L35.668 26L36.668 20" stroke="#69C0B0" stroke-width="1.5" stroke-linecap="round" stroke-linejoin="round"/>
</svg>
