<svg width="49" height="48" viewBox="0 0 49 48" fill="none" xmlns="http://www.w3.org/2000/svg">
<g clip-path="url(#clip0_3256_42210)">
<path d="M23.168 21H18.168H4.66797C3.01111 21 1.66797 22.3431 1.66797 24V38.7547C1.66797 40.4116 3.01111 41.7547 4.66797 41.7547H16.8727C17.6993 41.7547 18.4893 42.0958 19.0562 42.6974L22.168 46L25.5395 42.6322C26.102 42.0703 26.8646 41.7547 27.6596 41.7547H31.668C33.3248 41.7547 34.668 40.4116 34.668 38.7547V31.3774V27" stroke="#69C0B0" stroke-width="1.5" stroke-linecap="round" stroke-linejoin="round"/>
<rect x="1.66797" y="8" width="16" height="8" rx="1" stroke="#69C0B0" stroke-width="1.5" stroke-linecap="round" stroke-linejoin="round"/>
<circle cx="34.168" cy="14.5" r="12.5" stroke="#69C0B0" stroke-width="1.5" stroke-linecap="round" stroke-linejoin="round"/>
<path d="M30.9357 11.2678C30.4669 11.7366 29.831 12 29.168 12C28.5049 12 27.869 11.7366 27.4002 11.2678" stroke="#69C0B0" stroke-width="1.5" stroke-linecap="round" stroke-linejoin="round"/>
<path d="M40.9357 11.2678C40.4669 11.7366 39.831 12 39.168 12C38.5049 12 37.869 11.7366 37.4002 11.2678" stroke="#69C0B0" stroke-width="1.5" stroke-linecap="round" stroke-linejoin="round"/>
<path d="M38.2464 20.0208C37.8956 19.4358 37.3437 18.9377 36.6517 18.5814C35.9596 18.2251 35.1544 18.0247 34.325 18.0021C33.4956 17.9796 32.6744 18.1359 31.9521 18.4538C31.2298 18.7716 30.6345 19.2386 30.2322 19.8032" stroke="#69C0B0" stroke-width="1.5" stroke-linecap="round" stroke-linejoin="round"/>
<path d="M4.66797 29H23.668" stroke="#69C0B0" stroke-width="1.5" stroke-linecap="round" stroke-linejoin="round"/>
<path d="M4.66797 33H13.668" stroke="#69C0B0" stroke-width="1.5" stroke-linecap="round" stroke-linejoin="round"/>
<path d="M4.66797 12H14.668" stroke="#69C0B0" stroke-width="1.5" stroke-linecap="round" stroke-linejoin="round"/>
<path d="M17.668 33H29.668" stroke="#69C0B0" stroke-width="1.5" stroke-linecap="round" stroke-linejoin="round"/>
<path d="M4.66797 37H23.668" stroke="#69C0B0" stroke-width="1.5" stroke-linecap="round" stroke-linejoin="round"/>
</g>
<defs>
<clipPath id="clip0_3256_42210">
<rect width="48" height="48" fill="white" transform="translate(0.667969)"/>
</clipPath>
</defs>
</svg>
