<svg width="49" height="48" viewBox="0 0 49 48" fill="none" xmlns="http://www.w3.org/2000/svg">
<rect x="3.66797" y="30" width="16" height="15" rx="2" stroke="#69C0B0" stroke-width="1.5"/>
<rect x="8.66797" y="34" width="6" height="6" rx="3" stroke="#69C0B0" stroke-width="1.5"/>
<rect x="34.668" y="34" width="6" height="6" rx="3" stroke="#69C0B0" stroke-width="1.5"/>
<rect x="29.668" y="30" width="16" height="15" rx="2" stroke="#69C0B0" stroke-width="1.5"/>
<rect x="7.66797" y="3" width="34" height="17" rx="2" stroke="#69C0B0" stroke-width="1.5"/>
<path d="M24.668 20V25.9091M24.668 25.9091H11.668V30M24.668 25.9091H37.668V30" stroke="#69C0B0" stroke-width="1.5" stroke-linecap="round" stroke-linejoin="round"/>
<path d="M20.9537 6.04847V11.219M20.9537 15.9919V11.219M26.0965 15.9919L20.9537 11.219M29.0965 15.9919L30.3823 6.04847L33.3823 15.9919L35.5251 6.04847L37.668 15.9919M17.9537 8.03715C15.8142 4.45266 10.668 5.65073 10.668 11.219C10.668 16.7873 16.6713 17.1801 17.9537 14.0032" stroke="#69C0B0" stroke-width="1.5" stroke-linecap="round" stroke-linejoin="round"/>
<path d="M21.668 11.7633C23.0316 12.2004 26.668 12.3854 26.668 9.028C26.668 5.67059 23.4862 6.00957 21.668 6.00957" stroke="#69C0B0" stroke-width="1.5" stroke-linecap="round" stroke-linejoin="round"/>
<path d="M33.668 45C33.9958 42.5 34.4593 41.4501 35.8009 40M39.453 40C40.8307 41.4073 41.3332 42.5028 41.668 45" stroke="#69C0B0" stroke-width="1.5" stroke-linecap="round" stroke-linejoin="round"/>
<path d="M7.66797 45C7.99579 42.5 8.45933 41.4501 9.80088 40M13.453 40C14.8307 41.4073 15.3332 42.5028 15.668 45" stroke="#69C0B0" stroke-width="1.5" stroke-linecap="round" stroke-linejoin="round"/>
</svg>
