<svg width="48" height="48" viewBox="0 0 48 48" fill="none" xmlns="http://www.w3.org/2000/svg">
<path d="M3 14.2585H16.189C16.6132 14.2585 17.0201 14.0901 17.3201 13.7902L19.1285 11.9827M3 14.2585V37.1237C3 38.0074 3.71634 38.7237 4.6 38.7237H24.6312M3 14.2585V9.6C3 8.71634 3.71634 8 4.6 8H14.4813C14.9055 8 15.3124 8.16846 15.6124 8.46835L19.1285 11.9827M19.1285 11.9827H40.8674C41.751 11.9827 42.4674 12.6991 42.4674 13.5827V17.6723M42.4674 17.6723H26.2311C25.3475 17.6723 24.6312 18.3886 24.6312 19.2723V38.7237M42.4674 17.6723H44.2828C45.1665 17.6723 45.8828 18.3886 45.8828 19.2723V39.0203C45.8828 39.9039 45.1665 40.6203 44.2828 40.6203H26.2312C25.3475 40.6203 24.6312 39.9039 24.6312 39.0203V38.7237M37.5662 26.4073H42.6186C42.7953 26.4073 42.9386 26.264 42.9386 26.0873V20.8481C42.9386 20.6713 42.7953 20.5281 42.6186 20.5281H37.5662C37.3895 20.5281 37.2462 20.6713 37.2462 20.8481V26.0873C37.2462 26.264 37.3895 26.4073 37.5662 26.4073Z" stroke="#69C0B0" stroke-width="1.5" stroke-linecap="round"/>
<path d="M27.5117 20.7656H34.6031" stroke="#69C0B0" stroke-width="1.5" stroke-linecap="round"/>
<path d="M27.5117 23.6016H34.6031" stroke="#69C0B0" stroke-width="1.5" stroke-linecap="round"/>
<path d="M27.5117 26.4375H34.6031" stroke="#69C0B0" stroke-width="1.5" stroke-linecap="round"/>
<path d="M27.5117 29.2734H43.1127" stroke="#69C0B0" stroke-width="1.5" stroke-linecap="round"/>
<path d="M27.5117 32.1094H43.1127" stroke="#69C0B0" stroke-width="1.5" stroke-linecap="round"/>
<path d="M27.5117 34.9453H43.1127" stroke="#69C0B0" stroke-width="1.5" stroke-linecap="round"/>
</svg>
