<svg width="49" height="48" viewBox="0 0 49 48" fill="none" xmlns="http://www.w3.org/2000/svg">
<g clip-path="url(#clip0_3256_42244)">
<path d="M24.332 22.5V21.0278C24.332 19.0535 23.7477 17.1234 22.6525 15.4808L21.332 13.5M21.332 13.5H19.332M21.332 13.5C21.332 13.5 22.832 13.6 22.832 12.2995C22.832 10.999 21.332 11 21.332 11H14.832C14.832 11 13.0616 11.2541 12.332 12.3056M11.832 15C12.332 16.5 14.332 16.5 14.332 16.5H15.832C16.6654 16.6667 18.432 17.4 18.832 19C19.232 20.6 19.332 22.5 19.332 22.5M11.832 15C11.332 13.5 12.0382 12.7292 12.332 12.3056M11.832 15C11.332 14.5 8.83203 16.5 8.83203 16.5C8.33203 15.5 9.33203 12 12.332 12.3056M19.332 22.5C16.832 22.5 16.832 23.5 16.832 27M19.332 22.5H29.332M16.832 27C15.4987 27 13.332 26.1 13.332 24.5C13.332 23.2835 13.832 22 14.332 21C14.5556 20.5528 14.832 18.5 12.832 18.5C11.232 18.5 6.4987 18.5 3.83203 18.5C3.83203 18.5 1.33203 18.5 1.33203 21C1.33203 23.5 3.83203 23.5 3.83203 23.5M16.832 27V32M3.83203 23.5L6.33203 23M3.83203 23.5C3.83203 23.5 2.33203 24.5 2.83203 26.5C3.33203 28.5 6.33203 28 6.33203 28M6.33203 28L7.65492 27M6.33203 28C6.33203 28 4.83203 29.5 5.83203 31C6.83203 32.5 8.83203 31.5 8.83203 31.5M8.83203 31.5L9.83203 30M8.83203 31.5C8.83203 31.5 8.33203 33.5 9.83203 34.2504C11.332 35.0008 12.332 34 12.332 34C12.4987 33.1742 13.132 31.8184 14.332 32C15.532 32.1816 16.4987 32.0757 16.832 32M16.832 32C16.832 32.5754 16.8718 33.0713 16.9459 33.5M22.332 37C23.6711 37.5356 24.1654 39 24.332 39.5M22.332 37L20.832 42.5C20.832 42.5 19.832 44.5 21.332 45.5C22.332 46.1667 23.832 45 24.332 44M22.332 37C21.6787 36.7387 20.9912 36.6139 20.332 36.483M14.332 13.5H15.832M24.332 25H19.332V30.5C19.332 33 19.332 34.2504 21.562 34.2504C23.792 34.2504 23.832 35 24.332 35.5M16.9459 33.5C16.0746 33.6667 14.332 34.3 14.332 35.5C14.332 36.7 14.332 38 14.332 38.5C14.332 39.1667 14.532 40.5 15.332 40.5C15.5212 40.5 15.6861 40.4627 15.832 40.4014M16.9459 33.5C17.3476 35.8229 18.7592 36.1705 20.332 36.483M20.332 36.483C20.2462 39.1096 19.5263 40.2141 18.332 40.4503M18.332 40.4503C18.1736 40.4816 18.0068 40.4977 17.832 40.5L16.832 39.5C16.5775 39.7545 16.3035 40.2034 15.832 40.4014M18.332 40.4503V43.5L10.832 46C9.83203 46 7.63203 44.6 8.83203 43C9.16406 42.5573 9.50375 42.3213 9.83203 42.2221M15.832 40.4014V42C14.6654 42.5 12.232 43.4 11.832 43C11.4704 42.6383 10.6902 41.9628 9.83203 42.2221M7.65492 38.5L9.83203 42.2221M7.65492 38.5C7.65492 38.5 6.2922 38.5772 5.83203 38C5.34514 37.3893 5.19532 36.4524 5.83203 36C6.43238 35.5735 7.19084 35.9112 7.65492 36.483C8.1513 37.0946 7.65492 38.5 7.65492 38.5ZM24.332 9H23.332M18.832 9H20.332M20.332 9L19.332 6C19.1654 5.16667 19.332 3.5 21.332 3.5C21.7048 3.5 22.0371 3.5 22.332 3.5M20.332 9H23.332M24.332 1V3.5C24.1964 3.5 23.6195 3.5 22.332 3.5M22.332 3.5L23.332 9" stroke="#69C0B0" stroke-width="1.5" stroke-linecap="round" stroke-linejoin="round"/>
<path d="M24.332 22.5V21.0278C24.332 19.0535 24.9164 17.1234 26.0115 15.4808L27.332 13.5M27.332 13.5H29.332M27.332 13.5C27.332 13.5 25.832 13.6 25.832 12.2995C25.832 10.999 27.332 11 27.332 11H33.832C33.832 11 35.6025 11.2541 36.332 12.3056M36.832 15C36.332 16.5 34.332 16.5 34.332 16.5H32.832C31.9987 16.6667 30.232 17.4 29.832 19C29.432 20.6 29.332 22.5 29.332 22.5C31.832 22.5 31.832 23.5 31.832 27M36.832 15C37.332 13.5 36.6259 12.7292 36.332 12.3056M36.832 15C37.332 14.5 39.832 16.5 39.832 16.5C40.332 15.5 39.332 12 36.332 12.3056M31.832 27C33.1654 27 35.332 26.1 35.332 24.5C35.332 23.2835 34.832 22 34.332 21C34.1084 20.5528 33.832 18.5 35.832 18.5C37.432 18.5 42.1654 18.5 44.832 18.5C44.832 18.5 47.332 18.5 47.332 21C47.332 23.5 44.832 23.5 44.832 23.5M31.832 27V32M44.832 23.5L42.332 23M44.832 23.5C44.832 23.5 46.332 24.5 45.832 26.5C45.332 28.5 42.332 28 42.332 28M42.332 28L41.0091 27M42.332 28C42.332 28 43.832 29.5 42.832 31C41.832 32.5 39.832 31.5 39.832 31.5M39.832 31.5L38.832 30M39.832 31.5C39.832 31.5 40.332 33.5 38.832 34.2504C37.332 35.0008 36.332 34 36.332 34C36.1654 33.1742 35.532 31.8184 34.332 32C33.132 32.1816 32.1654 32.0757 31.832 32M31.832 32C31.832 32.5754 31.7923 33.0713 31.7182 33.5M26.332 37C24.993 37.5356 24.4987 39 24.332 39.5M26.332 37L27.832 42.5C27.832 42.5 28.832 44.5 27.332 45.5C26.332 46.1667 24.832 45 24.332 44M26.332 37C26.9854 36.7387 27.6729 36.6139 28.332 36.483M34.332 13.5H32.832M24.332 25H29.332V30.5C29.332 33 29.332 34.2504 27.102 34.2504C24.8721 34.2504 24.832 35 24.332 35.5M31.7182 33.5C32.5895 33.6667 34.332 34.3 34.332 35.5C34.332 36.7 34.332 38 34.332 38.5C34.332 39.1667 34.132 40.5 33.332 40.5C33.1429 40.5 32.978 40.4627 32.832 40.4014M31.7182 33.5C31.3165 35.8229 29.9049 36.1705 28.332 36.483M28.332 36.483C28.4179 39.1096 29.1378 40.2141 30.332 40.4503M30.332 40.4503C30.4905 40.4816 30.6573 40.4977 30.832 40.5L31.832 39.5C32.0866 39.7545 32.3605 40.2034 32.832 40.4014M30.332 40.4503V43.5L37.832 46C38.4359 46 39.4773 45.4895 39.9435 44.7327M32.832 40.4014V42C33.9987 42.5 36.432 43.4 36.832 43C36.9753 42.8567 37.1843 42.6642 37.4378 42.5M24.332 9H25.332M29.832 9H28.332M28.332 9L29.332 6C29.4987 5.16667 29.332 3.5 27.332 3.5C26.9592 3.5 26.627 3.5 26.332 3.5M28.332 9H25.332M24.332 1V3.5C24.4676 3.5 25.0445 3.5 26.332 3.5M26.332 3.5L25.332 9M37.4378 42.5C37.8241 42.2498 38.3139 42.0655 38.832 42.2221C39.1603 42.3213 39.5 42.5573 39.832 43C40.3074 43.6338 40.2492 44.2362 39.9435 44.7327M37.4378 42.5C37.4378 42.5 37.0437 41.227 37.332 40.5C37.7518 39.4416 39.832 39 39.832 39M39.832 39C39.832 39 42.2462 39.3284 42.832 40.5C43.2687 41.3732 43.2405 42.1132 42.832 43C42.2817 44.1948 39.9435 44.7327 39.9435 44.7327M39.832 39V36M38.332 37.5H41.332" stroke="#69C0B0" stroke-width="1.5" stroke-linecap="round" stroke-linejoin="round"/>
</g>
<defs>
<clipPath id="clip0_3256_42244">
<rect width="48" height="48" fill="white" transform="translate(0.332031)"/>
</clipPath>
</defs>
</svg>
