<svg width="49" height="48" viewBox="0 0 49 48" fill="none" xmlns="http://www.w3.org/2000/svg">
<circle cx="22.6201" cy="21.288" r="19.288" stroke="#69C0B0" stroke-width="1.5"/>
<circle cx="22.6201" cy="21.2842" r="16.5967" stroke="#69C0B0" stroke-width="1.5"/>
<path d="M21.0826 16.0538C20.175 19.0443 19.3682 19.5428 18.6622 20.2404L17.7546 17.5427C17.4521 18.4462 16.5331 19.034 16.0362 21.7353C15.6326 24.3269 15.6554 30.7067 21.7838 30.7067C21.7838 30.7067 19.9699 28.9131 19.9699 26.2217C20.575 26.8198 21.5038 27.8072 21.7851 27.4179C23.2979 25.3245 20.878 18.4458 24.2055 23.2309C27.5331 28.016 24.4856 30.7067 24.4856 30.7067C24.4856 30.7067 31.7692 29.8099 29.9539 19.642C29.248 22.5329 27.4966 26.64 27.7387 21.1376C27.9807 15.6352 23.197 12.7643 20.575 11.8672C20.7766 12.7643 21.4304 14.9081 21.0826 16.0538Z" stroke="#69C0B0" stroke-width="1.5" stroke-linejoin="round"/>
<path d="M32.9375 37.5938L38.8011 44.1091C39.54 44.9302 40.8046 44.9968 41.6256 44.2579L43.3203 42.7328C44.1413 41.9939 44.2079 40.7293 43.469 39.9083L37.6053 33.3929" stroke="#69C0B0" stroke-width="1.5"/>
</svg>
