<svg width="48" height="48" viewBox="0 0 48 48" fill="none" xmlns="http://www.w3.org/2000/svg">
<path d="M26 10V2H45V15H26V10ZM26 10H11.5M11.5 10L7 15M11.5 10V15H7M7 15V33.5M13 36V33.5H2V42M13 36H20M13 36V43M20 36V45.5H41.5V25.7826M20 36V23M20 23V19H38.3421M20 23H36M13 43V45.5H2V42M13 43L10 39L8.5 40.5L6 38L2 42M10 19H15.5M10 22H15.5M10 25H15.5M10 28H15.5M28.5 36V42L33.5 39M28.5 36L33.5 39M28.5 36L37.1842 21M33.5 39L41.5 25.7826M37.1842 21L42.5 24M37.1842 21L38.3421 19M42.5 24L45 20L39.5 17L38.3421 19M42.5 24L41.5 25.7826M23.5 27.5H33M23.5 30.5H31.6842M23.5 33.5H29.9474M23.5 36.5H28.5M33 6V11.5L37.5 8.5L33 6Z" stroke="#69C0B0" stroke-width="1.5" stroke-linecap="round" stroke-linejoin="round"/>
</svg>
