<svg width="49" height="48" viewBox="0 0 49 48" fill="none" xmlns="http://www.w3.org/2000/svg">
<rect x="2.66797" y="3" width="20" height="20" rx="10" stroke="#69C0B0" stroke-width="1.5"/>
<path d="M14.668 8.37701C13.3043 7.47079 11.9407 8.30226 11.9407 9.76521C11.9407 11.2282 11.9407 15.5626 11.9407 18M9.66797 12.5139H14.2134" stroke="#69C0B0" stroke-width="1.5" stroke-linecap="round" stroke-linejoin="round"/>
<rect x="26.668" y="3" width="20" height="20" rx="10" stroke="#69C0B0" stroke-width="1.5"/>
<path d="M33.668 17V9L40.668 13.2353L33.668 17Z" stroke="#69C0B0" stroke-width="1.5" stroke-linecap="round" stroke-linejoin="round"/>
<rect x="2.66797" y="26" width="20" height="20" rx="10" stroke="#69C0B0" stroke-width="1.5"/>
<rect x="10.668" y="34" width="4" height="4" rx="2" stroke="#69C0B0" stroke-width="1.5"/>
<path d="M7.66797 39V33C7.66797 31.8954 8.5634 31 9.66797 31H15.668C16.7725 31 17.668 31.8954 17.668 33V39C17.668 40.1046 16.7725 41 15.668 41H9.66797C8.5634 41 7.66797 40.1046 7.66797 39Z" stroke="#69C0B0" stroke-width="1.5" stroke-linecap="round" stroke-linejoin="round"/>
<rect x="31.668" y="31" width="10" height="10" rx="5" stroke="#69C0B0" stroke-width="1.5"/>
<path d="M34.668 34.5V35C34.668 36.6569 36.0111 38 37.668 38V38" stroke="#69C0B0" stroke-width="1.5"/>
<rect x="26.668" y="26" width="20" height="20" rx="10" stroke="#69C0B0" stroke-width="1.5"/>
<path d="M32.5251 39L31.668 41L33.668 40.3333" stroke="#69C0B0" stroke-width="1.5" stroke-linecap="round" stroke-linejoin="round"/>
</svg>
