<svg width="49" height="48" viewBox="0 0 49 48" fill="none" xmlns="http://www.w3.org/2000/svg">
<path d="M41.0256 16C41.0256 16 39.574 17.0237 39.574 18C39.574 18.9763 40.0808 20 41.0256 20C41.9704 20 42.4772 18.9763 42.4772 18C42.4772 17.0237 41.0256 16 41.0256 16ZM41.0256 16V10.4348M12.9611 15L1.83203 12L25.332 6L46.832 12L36.1869 15" stroke="#69C0B0" stroke-width="1.5" stroke-linecap="round" stroke-linejoin="round"/>
<path d="M13.832 24V14M35.832 14V24" stroke="#69C0B0" stroke-width="1.5" stroke-linecap="round" stroke-linejoin="round"/>
<ellipse cx="24.832" cy="24" rx="11" ry="2" stroke="#69C0B0" stroke-width="1.5" stroke-linecap="round" stroke-linejoin="round"/>
<path d="M35.832 14C35.832 12.3431 30.9072 11 24.832 11C18.7569 11 13.832 12.3431 13.832 14" stroke="#69C0B0" stroke-width="1.5" stroke-linecap="round" stroke-linejoin="round"/>
<path d="M11.1224 37.6136H19.9288M42.1546 37.6136H26.2191M42.1546 33H43.832V31.0045H11.9611C11.9611 31.0045 4.83203 30.5591 4.83203 38.5C4.83203 46.4409 11.9611 45.9955 11.9611 45.9955H43.832V44H42.1546M42.1546 33H11.1224C11.1224 33 6.70656 33 6.83203 38.5C6.9575 44 11.1224 44 11.1224 44H42.1546M42.1546 33V44" stroke="#69C0B0" stroke-width="1.5" stroke-linecap="round" stroke-linejoin="round"/>
</svg>
