<svg width="49" height="48" viewBox="0 0 49 48" fill="none" xmlns="http://www.w3.org/2000/svg">
<path d="M45.2944 21.3933C45.2944 18.9778 44.8186 16.5861 43.8943 14.3545C42.9699 12.1229 41.6151 10.0952 39.9071 8.38727C38.1991 6.67929 36.1715 5.32445 33.9399 4.4001C31.7083 3.47576 29.3165 3 26.9011 3L26.9011 21.3933H45.2944Z" stroke="#69C0B0" stroke-width="1.5" stroke-linejoin="round"/>
<path d="M9.7193 38.954C12.2916 41.5263 15.569 43.2781 19.137 43.9878C22.7049 44.6975 26.4032 44.3333 29.7641 42.9411C33.125 41.549 35.9977 39.1915 38.0188 36.1667C40.0398 33.142 41.1186 29.5858 41.1186 25.948H22.7253L9.7193 38.954Z" stroke="#69C0B0" stroke-width="1.5" stroke-linejoin="round"/>
<path d="M22.7253 7.55469C19.0875 7.55469 15.5313 8.63343 12.5066 10.6545C9.48179 12.6756 7.12428 15.5482 5.73214 18.9092C4.33999 22.2701 3.97574 25.9684 4.68545 29.5363C5.39516 33.1043 7.14695 36.3816 9.7193 38.954L22.7253 25.948L22.7253 7.55469Z" stroke="#69C0B0" stroke-width="1.5" stroke-linejoin="round"/>
<path d="M13.0642 35.6984L5.44678 32.1491M16.9658 31.8179L4.33203 25.984M20.6816 28.0541L5.26098 21.091M22.7253 23.5375L7.11889 16.5745M22.7253 18.2682L10.0915 12.4343M22.7253 12.6225L15.1079 9.04688" stroke="#69C0B0" stroke-width="1.5" stroke-linecap="round"/>
</svg>
