<svg width="48" height="48" viewBox="0 0 48 48" fill="none" xmlns="http://www.w3.org/2000/svg">
<rect x="2" y="11" width="35" height="32" rx="2" stroke="#69C0B0" stroke-width="1.5"/>
<path d="M11 11V6C11 4.89543 11.8954 4 13 4H44C45.1046 4 46 4.89543 46 6V34C46 35.1046 45.1046 36 44 36H37" stroke="#69C0B0" stroke-width="1.5"/>
<path d="M2 16H37M20.5316 14H33.0625M13.186 14H10.5934M5.40818 14H8.00077" stroke="#69C0B0" stroke-width="1.5" stroke-linecap="round" stroke-linejoin="round"/>
<path d="M11 9H46M29.5316 7H42.0625M22.186 7H19.5934M14.4082 7H17.0008" stroke="#69C0B0" stroke-width="1.5" stroke-linecap="round" stroke-linejoin="round"/>
<path d="M37 21H38.7143M43 21H41.0714M37 23.5H43M43 26H37" stroke="#69C0B0" stroke-width="1.5" stroke-linecap="round" stroke-linejoin="round"/>
<path d="M16.2857 24.0485V29.219M16.2857 33.9919V29.219M21.4286 33.9919L16.2857 29.219M24.4286 33.9919L25.7143 24.0485L28.7143 33.9919L30.8571 24.0485L33 33.9919M13.2857 26.0372C11.1462 22.4527 6 23.6507 6 29.219C6 34.7873 12.0033 35.1801 13.2857 32.0032" stroke="#69C0B0" stroke-width="1.5" stroke-linecap="round" stroke-linejoin="round"/>
<path d="M17 29.7633C18.3636 30.2004 22 30.3854 22 27.028C22 23.6706 18.8182 24.0096 17 24.0096" stroke="#69C0B0" stroke-width="1.5" stroke-linecap="round" stroke-linejoin="round"/>
</svg>
