<svg width="49" height="48" viewBox="0 0 49 48" fill="none" xmlns="http://www.w3.org/2000/svg">
<path d="M18.591 41.919H14.9236C14.7469 41.919 14.6037 41.7756 14.6023 41.5989C14.5681 37.3738 13.9302 33.3991 18.5907 31.1017M18.591 41.919V39.255M18.591 41.919H30.3997M30.3997 39.255V41.919M30.3997 41.919H33.4537C33.6304 41.919 33.7736 41.7755 33.7746 41.5988C33.797 37.4478 34.1941 33.7377 30.093 31.1017M18.5907 31.1017C19.0404 30.88 20.7966 30.4378 21.3968 30.3811C21.4669 30.3744 21.5351 30.3982 21.591 30.441L26.5 34.2031C26.6259 34.2996 26.8034 34.2893 26.9173 34.1789L30.093 31.1017M18.5907 31.1017L21.9111 34.179C22.0295 34.2887 22.211 34.2931 22.3345 34.1892L26.7832 30.45C26.8408 30.4016 26.9132 30.3745 26.9884 30.3776C27.7095 30.4065 29.4365 30.6797 30.093 31.1017" stroke="#69C0B0" stroke-width="1.5" stroke-linecap="round"/>
<path d="M21.5951 30.3703V28.4091M21.5951 28.4091C20.683 27.3411 20.3712 26.6739 19.9889 25.5054C19.965 25.4322 19.9158 25.3699 19.85 25.33L18.5477 24.5409C18.4897 24.5057 18.4446 24.4538 18.4205 24.3904C18.2733 24.003 17.7803 22.5703 18.4584 22.3746C18.6827 22.3099 19.0558 22.3746 19.0558 22.3746M21.5951 28.4091C23.7455 29.6232 24.4651 29.7485 26.3749 28.4091M26.3749 28.4091C27.2817 27.6084 27.5951 26.8327 28.1262 25.4955C28.1527 25.4286 28.2013 25.3723 28.2637 25.3362L29.1295 24.8365C29.1839 24.8051 29.2499 24.7941 29.3047 24.7635C29.7784 24.4986 30.5248 22.2369 29.2129 22.3746C29.0906 22.3875 28.9142 22.4752 28.9142 22.4752M26.3749 28.4091V30.3703M19.0558 22.3746C19.0558 22.3746 18.5311 20.0648 19.0558 18.7539C20.6952 14.6583 27.4205 14.3626 28.9142 18.7539C29.3824 20.1304 28.9142 22.4752 28.9142 22.4752M19.0558 22.3746L20.1697 22.9883C20.3947 23.1122 20.6668 22.9336 20.6521 22.6772C20.6002 21.774 20.6653 21.1057 20.9602 20.0879C20.9838 20.0065 21.0392 19.937 21.1162 19.9014C22.2236 19.3886 23.0403 20.207 24.2837 20.2625C25.4774 20.3158 26.326 19.3975 27.3432 20.1986C27.3942 20.2388 27.4294 20.2963 27.4449 20.3593C27.6182 21.0613 27.6541 21.5849 27.5204 22.4316C27.482 22.6752 27.7132 22.8795 27.9469 22.8009L28.9142 22.4752" stroke="#69C0B0" stroke-width="1.5" stroke-linecap="round"/>
<path d="M37.4483 20.8559C37.4483 20.8559 39.8018 21.58 41.6917 22.935C45.0777 25.3626 43.5647 34.4058 43.2595 36.0403C43.2316 36.1895 43.1014 36.2944 42.9496 36.2944H40.4809M37.4483 20.8559L36.3869 18.6291M37.4483 20.8559C37.4483 20.8559 35.5638 22.6097 34.1125 22.4888C32.8679 22.3851 31.3832 20.8559 31.3832 20.8559M40.4809 29.6143V36.2944M40.4809 36.2944L34.413 36.2944M31.3832 20.8559L29.1088 20.8559M31.3832 20.8559L32.1413 18.6291M29.4097 12.5944C29.7933 12.7199 30.6002 12.8397 32.1413 12.8397C34.2376 12.8397 35.7301 11.5097 36.4232 10.5736C36.5601 10.3886 36.8452 10.3718 36.9894 10.5512C37.8096 11.5713 39.0707 12.9021 39.5718 12.5944M29.4097 12.5944C29.1894 12.5224 29.1088 12.4485 29.1088 12.3943C29.0582 11.5037 29.0168 9.98997 29.7153 8.5347C30.839 6.19319 36.8005 5.47907 37.6511 7.91248C37.7377 8.15999 38.0598 8.31436 38.3141 8.25022C39.8403 7.86521 40.1296 11.3338 39.7234 12.3943C39.6867 12.49 39.6354 12.5554 39.5718 12.5944M29.4097 12.5944C29.0054 12.3144 28.1967 11.9225 28.1967 12.5944C28.1967 13.4344 27.8931 16.2548 29.4097 15.0673V15.0673C29.5071 14.991 29.8905 15.4375 29.9138 15.5589C30.2 17.0483 31.7186 19.0754 34.413 19.0754C36.5644 19.0754 37.3599 18.1479 38.2061 15.6669C38.2793 15.4522 38.5471 15.3731 38.7384 15.495C39.1076 15.7301 39.5517 15.916 39.7234 15.6611C40.0233 15.2157 40.6298 13.0849 40.3265 12.8397C40.0839 12.6435 39.7223 12.5944 39.5718 12.5944" stroke="#69C0B0" stroke-width="1.5" stroke-linecap="round"/>
<path d="M10.6634 20.8874C10.6634 20.8874 8.39881 21.6101 6.58017 22.9624C3.32405 25.3836 4.77603 34.3989 5.07102 36.0386C5.09805 36.1888 5.22887 36.2953 5.38149 36.2953H7.74529M10.6634 20.8874L11.6848 18.6651M10.6634 20.8874C10.6634 20.8874 12.4769 22.6377 13.8734 22.5171C15.0711 22.4136 16.4997 20.8874 16.4997 20.8874M7.74529 29.6284V36.2953M7.74529 36.2953H14.6029M16.4997 20.8874H18.6883M16.4997 20.8874L15.7702 18.6651M18.3987 12.6423C18.6107 12.5705 18.6883 12.4967 18.6883 12.4427C18.7349 11.5919 18.7733 10.1716 18.1873 8.77793C18.139 8.66298 18.0249 8.59068 17.9002 8.59068H17.5443C17.4166 8.59068 17.3018 8.51459 17.2468 8.39938C16.9393 7.75531 16.3276 6.75497 15.7702 6.75497C14.9995 6.75497 9.56029 7.34758 9.01728 6.75497C8.47426 6.16235 6.68276 10.1625 9.30909 10.9033C9.47041 10.9488 9.63103 10.9853 9.79066 11.0141M18.3987 12.6423C18.7878 12.3629 19.566 11.9717 19.566 12.6423C19.566 13.4806 19.8581 16.2955 18.3987 15.1103V15.1103C18.3081 15.0367 17.937 15.4718 17.9162 15.5866C17.6477 17.0743 16.1854 19.1104 13.5842 19.1104C11.5186 19.1104 10.7519 18.1888 9.93966 15.7252C9.86741 15.506 9.59318 15.4262 9.3996 15.5518C9.04896 15.7794 8.63598 15.952 8.47426 15.7029C8.18569 15.2584 7.99593 12.6874 8.28774 12.4427C8.46829 12.2912 8.92811 12.3272 9.25251 12.3766C9.44011 12.4052 9.62264 12.279 9.64763 12.0909L9.79066 11.0141M18.3987 12.6423C17.7657 12.3589 16.2872 11.6144 15.4372 10.9033C14.4399 10.069 12.2299 11.4533 9.79066 11.0141" stroke="#69C0B0" stroke-width="1.5" stroke-linecap="round"/>
</svg>
