<svg width="49" height="48" viewBox="0 0 49 48" fill="none" xmlns="http://www.w3.org/2000/svg">
<g clip-path="url(#clip0_3256_42224)">
<path d="M23.832 43.5V44.5L21.832 46.5H1.33203V17H4.33203M23.832 43.5V40M23.832 43.5C20.0351 37.7126 15.4141 34.132 8.83203 32V4.5C11.125 4.83345 12.0123 5.27845 13.332 6V29.5M23.832 43.5C15.807 38.8408 14.832 44 4.33203 43.5V17M8.83203 14C7.1902 14.3494 6.83203 15.5 4.33203 16V17M13.332 29.5V2C19.8038 4.69276 23.0011 9.04081 23.832 16V40M13.332 29.5C19.6278 31.0902 22.2749 36.5563 23.832 40" stroke="#69C0B0" stroke-width="1.5" stroke-linejoin="round"/>
<path d="M23.832 43.5V44.5L25.832 46.5H46.332V17H43.332M23.832 43.5V40V16C29.0274 11.6948 33.0287 9.74609 40.832 9V15.5M23.832 43.5C31.5561 39.2194 38.832 43.5 43.332 43.5V17M23.832 43.5C29.3416 39.4927 32.0271 36.6755 40.832 37.5V15.5M43.332 17V16L40.832 15.5" stroke="#69C0B0" stroke-width="1.5" stroke-linejoin="round"/>
</g>
<defs>
<clipPath id="clip0_3256_42224">
<rect width="48" height="48" fill="white" transform="translate(0.332031)"/>
</clipPath>
</defs>
</svg>
