<svg width="19" height="24" viewBox="0 0 19 24" fill="none" xmlns="http://www.w3.org/2000/svg">
<path d="M15.749 13.41C14.963 15.003 13.898 16.59 12.809 18.015C11.7759 19.3584 10.6713 20.6453 9.5 21.87C8.32862 20.6453 7.22403 19.3584 6.191 18.015C5.102 16.59 4.037 15.003 3.251 13.41C2.456 11.8005 2 10.293 2 9C2 7.01088 2.79018 5.10322 4.1967 3.6967C5.60322 2.29018 7.51088 1.5 9.5 1.5C11.4891 1.5 13.3968 2.29018 14.8033 3.6967C16.2098 5.10322 17 7.01088 17 9C17 10.293 16.5425 11.8005 15.749 13.41ZM9.5 24C9.5 24 18.5 15.471 18.5 9C18.5 6.61305 17.5518 4.32387 15.864 2.63604C14.1761 0.948211 11.8869 0 9.5 0C7.11305 0 4.82387 0.948211 3.13604 2.63604C1.44821 4.32387 0.5 6.61305 0.5 9C0.5 15.471 9.5 24 9.5 24Z" fill="#EB7605"/>
<path d="M9.5 12C8.70435 12 7.94129 11.6839 7.37868 11.1213C6.81607 10.5587 6.5 9.79565 6.5 9C6.5 8.20435 6.81607 7.44129 7.37868 6.87868C7.94129 6.31607 8.70435 6 9.5 6C10.2956 6 11.0587 6.31607 11.6213 6.87868C12.1839 7.44129 12.5 8.20435 12.5 9C12.5 9.79565 12.1839 10.5587 11.6213 11.1213C11.0587 11.6839 10.2956 12 9.5 12ZM9.5 13.5C10.6935 13.5 11.8381 13.0259 12.682 12.182C13.5259 11.3381 14 10.1935 14 9C14 7.80653 13.5259 6.66193 12.682 5.81802C11.8381 4.97411 10.6935 4.5 9.5 4.5C8.30653 4.5 7.16193 4.97411 6.31802 5.81802C5.47411 6.66193 5 7.80653 5 9C5 10.1935 5.47411 11.3381 6.31802 12.182C7.16193 13.0259 8.30653 13.5 9.5 13.5Z" fill="#EB7605"/>
</svg>
