<svg width="0" height="0" class="hidden">
  <symbol xmlns="http://www.w3.org/2000/svg" viewBox="0 0 8 14" id="angle-right">
    <path d="M7 7L7.35355 6.64645L7.70711 7L7.35355 7.35355L7 7ZM1.35355 0.646447L7.35355 6.64645L6.64645 7.35355L0.646447 1.35355L1.35355 0.646447ZM7.35355 7.35355L1.35355 13.3536L0.646447 12.6464L6.64645 6.64645L7.35355 7.35355Z" fill="#ffffff"></path>
  </symbol>
	<symbol xmlns="http://www.w3.org/2000/svg" viewBox="0 0 19 18" id="rating-star">
    <path d="M14.4049 11.1775C14.302 11.2779 14.225 11.4018 14.1806 11.5386C14.1362 11.6753 14.1256 11.8208 14.1499 11.9625L14.9339 16.5315C14.9793 16.685 14.9747 16.8489 14.9208 16.9995C14.8669 17.1502 14.7664 17.2798 14.6339 17.3695C14.4696 17.4887 14.2719 17.5531 14.0689 17.5535C13.9111 17.5542 13.7556 17.5161 13.6159 17.4425L9.42895 15.1835C9.30172 15.1167 9.16016 15.0818 9.01645 15.0818C8.87273 15.0818 8.73117 15.1167 8.60395 15.1835L4.58795 17.4425C4.42849 17.5264 4.24875 17.5641 4.06903 17.5512C3.88931 17.5383 3.71679 17.4753 3.57095 17.3695C3.41877 17.2915 3.29289 17.1705 3.20897 17.0215C3.12504 16.8725 3.08678 16.7021 3.09895 16.5315L4.05895 11.8675C4.08325 11.7258 4.07274 11.5803 4.02832 11.4436C3.98389 11.3068 3.90689 11.1829 3.80395 11.0825L0.303946 8.33255C0.174722 8.20688 0.083279 8.04753 0.0399774 7.87256C-0.00332434 7.69758 0.00324658 7.51398 0.0589456 7.34255C0.11473 7.17118 0.217342 7.01883 0.355181 6.90273C0.493019 6.78663 0.660589 6.7114 0.838946 6.68555L5.38595 5.88555C5.52827 5.86491 5.66343 5.80998 5.7798 5.72549C5.89618 5.641 5.99026 5.52948 6.05395 5.40055L8.14694 0.982549C8.22708 0.820807 8.35103 0.684815 8.50466 0.590054C8.65829 0.495294 8.83544 0.445571 9.01595 0.446547C9.19613 0.446433 9.37274 0.496767 9.52579 0.591849C9.67884 0.686932 9.80222 0.822965 9.88195 0.984547L11.8929 5.40255C11.9566 5.53148 12.0507 5.643 12.1671 5.72749C12.2835 5.81198 12.4186 5.86691 12.5609 5.88755L17.1899 6.68755C17.3682 6.71335 17.5357 6.78858 17.6734 6.9047C17.811 7.02082 17.9134 7.1732 17.9689 7.34455C18.0244 7.516 18.0309 7.69955 17.9876 7.87447C17.9443 8.0494 17.853 8.20875 17.7239 8.33455L14.4049 11.1775Z"></path>
  </symbol>
	<symbol xmlns="http://www.w3.org/2000/svg" viewBox="0 0 10 18" id="facebook">
    <path d="M6.39703 17.9969V9.80092H9.16203L9.57303 6.59193H6.39703V4.54792C6.39703 3.62192 6.65503 2.98793 7.98403 2.98793H9.66803V0.126925C8.84867 0.0391161 8.02508 -0.00328216 7.20103 -7.49744e-05C4.75703 -7.49744e-05 3.07903 1.49193 3.07903 4.23093V6.58593H0.332031V9.79492H3.08503V17.9969H6.39703Z"></path>
  </symbol>
	<symbol xmlns="http://www.w3.org/2000/svg" viewBox="0 0 24 14" id="vk">
    <path fill-rule="evenodd" clip-rule="evenodd" d="M21.3625 9.7576C21.3625 9.7576 23.3029 11.674 23.7829 12.5608C23.7922 12.5736 23.7995 12.5878 23.8045 12.6028C24.0001 12.9304 24.0481 13.1872 23.9521 13.3768C23.7901 13.69 23.2417 13.8472 23.0557 13.8604H19.6261C19.3873 13.8604 18.8905 13.798 18.2857 13.3804C17.8237 13.0576 17.3641 12.526 16.9189 12.0064C16.2541 11.2348 15.6793 10.5652 15.0973 10.5652C15.0238 10.5651 14.9508 10.5773 14.8813 10.6012C14.4409 10.7404 13.8817 11.368 13.8817 13.0396C13.8817 13.5628 13.4689 13.8604 13.1797 13.8604H11.6089C11.0737 13.8604 8.28731 13.6732 5.81651 11.068C2.78891 7.8784 0.0697081 1.48005 0.0433081 1.42365C-0.125892 1.00965 0.229308 0.784049 0.613308 0.784049H4.07651C4.54091 0.784049 4.69211 1.06485 4.79771 1.31685C4.92011 1.60605 5.37371 2.76285 6.11771 4.06245C7.32251 6.1768 8.06291 7.0372 8.65451 7.0372C8.76566 7.0376 8.87492 7.0086 8.97131 6.9532C9.74411 6.5284 9.60011 3.76845 9.56411 3.19965C9.56411 3.08925 9.56291 1.96725 9.16691 1.42485C8.88371 1.03605 8.40131 0.884848 8.10971 0.829648C8.18771 0.716848 8.35331 0.544049 8.56571 0.442049C9.09491 0.178049 10.0513 0.139648 11.0005 0.139648H11.5273C12.5569 0.154048 12.8233 0.220048 13.1977 0.314848C13.9513 0.494848 13.9657 0.983249 13.8997 2.64645C13.8805 3.12165 13.8601 3.65685 13.8601 4.28685C13.8601 4.42125 13.8541 4.57125 13.8541 4.72365C13.8313 5.5768 13.8013 6.538 14.4037 6.9328C14.4818 6.9815 14.5721 7.0073 14.6641 7.0072C14.8729 7.0072 15.4981 7.0072 17.1937 4.09725C17.9377 2.81205 18.5137 1.29645 18.5533 1.18245C18.5869 1.11885 18.6877 0.940049 18.8101 0.868049C18.8972 0.821719 18.9947 0.798579 19.0933 0.800848H23.1673C23.6113 0.800848 23.9125 0.868048 23.9713 1.03605C24.0697 1.30845 23.9521 2.14005 22.0921 4.65525C21.7789 5.074 21.5041 5.4364 21.2629 5.7532C19.5769 7.966 19.5769 8.0776 21.3625 9.7576Z"></path>
  </symbol>
	<symbol xmlns="http://www.w3.org/2000/svg" viewBox="0 0 36 24" id="advisor">
    <path d="M10.1718 13.7216C10.1718 14.1648 10.0287 14.5426 9.74215 14.8551C9.45572 15.1676 9.11458 15.3239 8.71875 15.3239C8.3125 15.3239 7.96615 15.1676 7.67969 14.8551C7.39323 14.5426 7.25 14.1648 7.25 13.7216C7.25 13.2898 7.39323 12.9176 7.67969 12.6051C7.96615 12.2926 8.3125 12.1364 8.71875 12.1364C9.11458 12.1364 9.45572 12.2926 9.74215 12.6051C10.0287 12.9176 10.1718 13.2898 10.1718 13.7216ZM28.2031 13.7046C28.2031 14.1477 28.0599 14.5256 27.7734 14.8381C27.487 15.1506 27.1406 15.3068 26.7343 15.3068C26.3281 15.3068 25.9818 15.1506 25.6953 14.8381C25.4089 14.5256 25.2656 14.1477 25.2656 13.7046C25.2656 13.2614 25.4089 12.8864 25.6953 12.5796C25.9818 12.2727 26.3281 12.1193 26.7343 12.1193C27.1406 12.1193 27.487 12.2727 27.7734 12.5796C28.0599 12.8864 28.2031 13.2614 28.2031 13.7046ZM11.9531 13.7216C11.9531 12.8239 11.6588 12.0512 11.0703 11.4034C10.4818 10.7557 9.77086 10.4318 8.9375 10.4318C8.10416 10.4318 7.39323 10.7529 6.80469 11.3949C6.21615 12.037 5.92187 12.8125 5.92187 13.7216C5.92187 14.6307 6.21615 15.4063 6.80469 16.0483C7.39323 16.6904 8.10416 17.0114 8.9375 17.0114C9.77086 17.0114 10.4818 16.6904 11.0703 16.0483C11.6588 15.4063 11.9531 14.6307 11.9531 13.7216ZM29.9687 13.7046C29.9687 12.7955 29.6745 12.0199 29.086 11.3779C28.4974 10.7358 27.7865 10.4148 26.9531 10.4148C26.1302 10.4148 25.4219 10.7358 24.8281 11.3779C24.2344 12.0199 23.9375 12.7955 23.9375 13.7046C23.9375 14.6137 24.2318 15.3892 24.8203 16.0313C25.4089 16.6733 26.1198 16.9943 26.9531 16.9943C27.7865 16.9943 28.4974 16.6733 29.086 16.0313C29.6745 15.3892 29.9687 14.6137 29.9687 13.7046ZM13.2812 13.7216C13.2812 15.0398 12.8568 16.162 12.0078 17.0881C11.1589 18.0142 10.1354 18.4773 8.9375 18.4773C7.72916 18.4773 6.70052 18.0114 5.85156 17.0796C5.00261 16.1477 4.57813 15.0284 4.57813 13.7216C4.57813 12.4148 5.00521 11.2983 5.85938 10.3722C6.71354 9.44605 7.73958 8.98298 8.9375 8.98298C10.1354 8.98298 11.1589 9.44605 12.0078 10.3722C12.8568 11.2983 13.2812 12.4148 13.2812 13.7216ZM31.3125 13.7046C31.3125 15.0114 30.888 16.1279 30.039 17.054C29.1901 17.9801 28.1614 18.4432 26.9531 18.4432C25.7552 18.4432 24.7318 17.9801 23.8828 17.054C23.0338 16.1279 22.6094 15.0114 22.6094 13.7046C22.6094 12.3977 23.0338 11.2813 23.8828 10.3551C24.7318 9.429 25.7552 8.96593 26.9531 8.96593C28.1614 8.96593 29.1901 9.429 30.039 10.3551C30.888 11.2813 31.3125 12.3977 31.3125 13.7046ZM16.25 13.7557C16.25 11.5852 15.5442 9.73014 14.1328 8.19036C12.7214 6.65059 11.0208 5.8807 9.03125 5.8807C7.72916 5.8807 6.52604 6.23298 5.42188 6.93752C4.31771 7.64207 3.44271 8.59945 2.79688 9.80968C2.15105 11.0199 1.82813 12.3352 1.82813 13.7557C1.82813 15.1762 2.15105 16.4915 2.79688 17.7017C3.44271 18.912 4.31771 19.8693 5.42188 20.5739C6.52604 21.2784 7.72916 21.6307 9.03125 21.6307C11.0208 21.6307 12.7214 20.8608 14.1328 19.321C15.5442 17.7813 16.25 15.9262 16.25 13.7557ZM26.6875 3.98866C24.0416 2.72729 21.1458 2.09661 18 2.09661C14.6771 2.09661 11.6927 2.72161 9.04687 3.97161C10.2656 3.97161 11.427 4.23014 12.5312 4.74718C13.6354 5.26423 14.5859 5.96025 15.3828 6.83525C16.1797 7.71025 16.8151 8.75002 17.289 9.95457C17.763 11.1591 18 12.4262 18 13.7557C18 12.4489 18.2265 11.2017 18.6797 10.0142C19.1328 8.82673 19.7474 7.80116 20.5234 6.93752C21.2994 6.07389 22.224 5.37502 23.2969 4.84093C24.3698 4.30684 25.5 4.02275 26.6875 3.98866ZM34.1718 13.7557C34.1718 11.5852 33.4687 9.73014 32.0625 8.19036C30.6562 6.65059 28.9583 5.8807 26.9687 5.8807C24.9792 5.8807 23.2786 6.65059 21.8672 8.19036C20.4558 9.73014 19.75 11.5852 19.75 13.7557C19.75 15.9262 20.4558 17.7813 21.8672 19.321C23.2786 20.8608 24.9792 21.6307 26.9687 21.6307C28.9583 21.6307 30.6562 20.8608 32.0625 19.321C33.4687 17.7813 34.1718 15.9262 34.1718 13.7557ZM30.0156 4.10798H36C35.5417 4.68752 35.151 5.33809 34.8282 6.05968C34.5052 6.78127 34.2968 7.43184 34.2031 8.01139C35.349 9.7273 35.9219 11.6421 35.9219 13.7557C35.9219 15.5284 35.5208 17.1648 34.7188 18.6648C33.9167 20.1648 32.8281 21.3495 31.4531 22.2188C30.0781 23.0881 28.5834 23.5228 26.9687 23.5228C25.5834 23.5228 24.2864 23.2046 23.0781 22.5682C21.8698 21.9318 20.849 21.0512 20.0156 19.9262C19.526 20.5625 18.8541 21.5796 18 22.9773C17.8854 22.7273 17.6068 22.2585 17.1641 21.571C16.7214 20.8835 16.3333 20.3296 16 19.9091C15.1667 21.0341 14.1432 21.9176 12.9297 22.5597C11.7162 23.2017 10.4166 23.5228 9.03125 23.5228C7.41666 23.5228 5.92187 23.0881 4.54687 22.2188C3.17188 21.3495 2.08333 20.1648 1.28125 18.6648C0.479166 17.1648 0.078125 15.5284 0.078125 13.7557C0.078125 11.6421 0.651042 9.7273 1.79687 8.01139C1.70312 7.43184 1.49479 6.78127 1.17187 6.05968C0.848959 5.33809 0.458334 4.68752 0 4.10798H5.70313C7.25521 2.97161 9.10417 2.08241 11.25 1.44036C13.3959 0.798318 15.6459 0.477295 18 0.477295C20.3334 0.477295 22.526 0.795477 24.5781 1.43184C26.6302 2.0682 28.4427 2.96025 30.0156 4.10798Z"></path>
  </symbol>
	<symbol xmlns="http://www.w3.org/2000/svg" viewBox="0 0 20 20" id="insta">
    <path d="M18.9471 6.30496C18.937 5.54758 18.7952 4.79773 18.5281 4.08896C18.2964 3.49111 17.9426 2.94816 17.4892 2.49479C17.0359 2.04142 16.4929 1.68761 15.8951 1.45596C15.1954 1.19331 14.4562 1.0513 13.7091 1.03596C12.7471 0.992957 12.4421 0.980957 10.0001 0.980957C7.55807 0.980957 7.24507 0.980957 6.29007 1.03596C5.54323 1.05141 4.80442 1.19343 4.10507 1.45596C3.50713 1.68745 2.96409 2.0412 2.5107 2.49459C2.05732 2.94798 1.70356 3.49102 1.47207 4.08896C1.2089 4.78809 1.06719 5.52707 1.05307 6.27396C1.01007 7.23696 0.99707 7.54196 0.99707 9.98396C0.99707 12.426 0.99707 12.738 1.05307 13.694C1.06807 14.442 1.20907 15.18 1.47207 15.881C1.70395 16.4787 2.05797 17.0215 2.51151 17.4747C2.96505 17.9279 3.50813 18.2815 4.10607 18.513C4.8035 18.7862 5.54244 18.9383 6.29107 18.963C7.25407 19.006 7.55907 19.019 10.0011 19.019C12.4431 19.019 12.7561 19.019 13.7111 18.963C14.4582 18.9482 15.1974 18.8066 15.8971 18.544C16.4948 18.312 17.0376 17.9581 17.4909 17.5048C17.9442 17.0515 18.2982 16.5086 18.5301 15.911C18.7931 15.211 18.9341 14.473 18.9491 13.724C18.9921 12.762 19.0051 12.457 19.0051 10.014C19.0031 7.57196 19.0031 7.26196 18.9471 6.30496ZM9.99407 14.602C7.44007 14.602 5.37107 12.533 5.37107 9.97896C5.37107 7.42496 7.44007 5.35596 9.99407 5.35596C11.2202 5.35596 12.396 5.84302 13.263 6.71C14.13 7.57698 14.6171 8.75286 14.6171 9.97896C14.6171 11.2051 14.13 12.3809 13.263 13.2479C12.396 14.1149 11.2202 14.602 9.99407 14.602ZM14.8011 6.26296C14.6595 6.26309 14.5192 6.2353 14.3884 6.18117C14.2575 6.12704 14.1386 6.04764 14.0385 5.94751C13.9384 5.84738 13.859 5.72849 13.8049 5.59765C13.7507 5.4668 13.7229 5.32656 13.7231 5.18496C13.7231 5.04346 13.7509 4.90334 13.8051 4.77262C13.8592 4.64189 13.9386 4.5231 14.0387 4.42305C14.1387 4.32299 14.2575 4.24363 14.3882 4.18948C14.519 4.13533 14.6591 4.10746 14.8006 4.10746C14.9421 4.10746 15.0822 4.13533 15.2129 4.18948C15.3436 4.24363 15.4624 4.32299 15.5625 4.42305C15.6625 4.5231 15.7419 4.64189 15.7961 4.77262C15.8502 4.90334 15.8781 5.04346 15.8781 5.18496C15.8781 5.78096 15.3961 6.26296 14.8011 6.26296Z"></path>
    <path d="M9.99421 12.9821C11.6527 12.9821 12.9972 11.6376 12.9972 9.97907C12.9972 8.32056 11.6527 6.97607 9.99421 6.97607C8.3357 6.97607 6.99121 8.32056 6.99121 9.97907C6.99121 11.6376 8.3357 12.9821 9.99421 12.9821Z"></path>
  </symbol>
	<symbol xmlns="http://www.w3.org/2000/svg" viewBox="0 0 24 18" id="youtube">
    <path d="M12.0765 0.998535H12.21C13.443 1.00304 19.6905 1.04804 21.375 1.50104C21.8842 1.63929 22.3483 1.90877 22.7207 2.28255C23.0932 2.65633 23.361 3.12131 23.4975 3.63104C23.649 4.20104 23.7555 4.95554 23.8275 5.73404L23.8425 5.89004L23.8755 6.28004L23.8875 6.43604C23.985 7.80704 23.997 9.09104 23.9985 9.37154V9.48404C23.997 9.77504 23.9835 11.146 23.8755 12.574L23.8635 12.7315L23.85 12.8875C23.775 13.7455 23.664 14.5975 23.4975 15.2245C23.3615 15.7345 23.0938 16.1997 22.7212 16.5735C22.3487 16.9474 21.8844 17.2167 21.375 17.3545C19.635 17.8225 13.0215 17.8555 12.105 17.857H11.892C11.4285 17.857 9.5115 17.848 7.5015 17.779L7.2465 17.77L7.116 17.764L6.8595 17.7535L6.603 17.743C4.938 17.6695 3.3525 17.551 2.622 17.353C2.11273 17.2153 1.6486 16.9462 1.27609 16.5726C0.903575 16.1991 0.63577 15.7342 0.4995 15.2245C0.333 14.599 0.222 13.7455 0.147 12.8875L0.135 12.73L0.123 12.574C0.0489714 11.5576 0.0079498 10.5391 0 9.52004L0 9.33554C0.003 9.01304 0.015 7.89854 0.096 6.66854L0.1065 6.51404L0.111 6.43604L0.123 6.28004L0.156 5.89004L0.171 5.73404C0.243 4.95554 0.3495 4.19954 0.501 3.63104C0.63704 3.12111 0.904743 2.6559 1.27727 2.28206C1.6498 1.90822 2.11405 1.63887 2.6235 1.50104C3.354 1.30604 4.9395 1.18604 6.6045 1.11104L6.8595 1.10054L7.1175 1.09154L7.2465 1.08704L7.503 1.07654C8.93056 1.0306 10.3587 1.00509 11.787 1.00004H12.0765V0.998535ZM9.6 5.81354V13.0405L15.8355 9.42854L9.6 5.81354Z"></path>
  </symbol>
	<symbol xmlns="http://www.w3.org/2000/svg" viewBox="0 0 10 5" id="more">
    <path d="M4.99953 4.66652C4.84376 4.66683 4.69281 4.61258 4.57287 4.51319L0.572866 1.17986C0.436722 1.0667 0.351105 0.904092 0.334852 0.727807C0.318599 0.551523 0.37304 0.376003 0.486199 0.239858C0.599358 0.103714 0.761966 0.0180976 0.93825 0.00184445C1.11453 -0.0144087 1.29005 0.0400322 1.4262 0.153191L4.99953 3.13986L8.57287 0.259858C8.64106 0.204481 8.71952 0.163127 8.80375 0.138172C8.88797 0.113218 8.9763 0.105155 9.06365 0.114448C9.15101 0.123741 9.23566 0.150205 9.31275 0.192321C9.38984 0.234437 9.45785 0.291374 9.51287 0.359858C9.57392 0.428406 9.62016 0.508824 9.64869 0.596073C9.67722 0.683322 9.68742 0.775522 9.67866 0.866898C9.66989 0.958273 9.64236 1.04685 9.59777 1.12709C9.55318 1.20733 9.4925 1.2775 9.41953 1.33319L5.41953 4.55319C5.29614 4.63687 5.14827 4.67677 4.99953 4.66652Z"></path>
  </symbol>
	<symbol xmlns="http://www.w3.org/2000/svg" viewBox="0 0 6 10" id="next">
    <path d="M5 5L5.35355 4.64645L5.70711 5L5.35355 5.35355L5 5ZM1.35355 0.646447L5.35355 4.64645L4.64645 5.35355L0.646447 1.35355L1.35355 0.646447ZM5.35355 5.35355L1.35355 9.35355L0.646447 8.64645L4.64645 4.64645L5.35355 5.35355Z"></path>
  </symbol>
	<symbol fill="none" xmlns="http://www.w3.org/2000/svg" viewBox="0 0 49 48" id="eye">
    <g clip-path="url(#clip0_1898_22107)">
      <path d="M13.332 30C21.2125 36.6667 30.4516 36.6667 38.332 30" stroke="#EB7605" stroke-width="1.5" stroke-linecap="round"></path>
      <path d="M31.1699 14.7542C25.6111 13.8119 8.51684 20.9747 4.61651 22.6532C4.15397 22.8523 3.6236 22.6768 3.36355 22.2456L1.86762 19.7652C1.57503 19.28 1.7352 18.6556 2.2358 18.3903C6.57909 16.0885 25.4344 6.53478 33.6564 9.60061C41.2483 12.4315 47.332 23 47.332 23C47.332 23 38.4589 15.9899 31.1699 14.7542Z" stroke="#EB7605" stroke-width="1.5" stroke-linejoin="round"></path>
      <path d="M13.0907 30L10.332 32.6471M16.401 32.6471L13.6424 35.8235M19.7113 34.2353L18.6079 37.9412M23.5734 35.2941L23.0217 39M27.9872 35.2941L29.0907 39M31.8493 34.2353L34.6079 37.9412M35.1596 32.6471L38.47 35.8235M38.47 30L42.332 33.1765" stroke="#EB7605" stroke-width="1.5" stroke-linecap="round" stroke-linejoin="round"></path>
    </g>
    <defs>
      <clipPath id="clip0_1898_22107">
        <rect width="48" height="48" fill="white" transform="translate(0.332031)"></rect>
      </clipPath>
    </defs>
  </symbol>
  <symbol fill="none" xmlns="http://www.w3.org/2000/svg" viewBox="0 0 48 48" id="gift">
    <path d="M8.9587 43.471L9.01793 44.2016C9.06123 44.7356 8.67585 45.209 8.14406 45.2748L3.32306 45.8716C2.7579 45.9416 2.2485 45.5262 2.20334 44.9585L1.07935 30.8276C1.03554 30.2767 1.44679 29.7948 1.99766 29.7514L6.81457 29.3719C7.36426 29.3286 7.84528 29.7384 7.88984 30.288L8.04532 32.2056M8.9587 43.471C9.88694 42.7302 12.0158 41.3252 13.1053 41.6318C14.4671 42.015 27.3289 43.471 28.2368 43.471C33.3378 43.471 40.702 35.2762 46.5889 30.8975C46.8467 30.7057 47.0092 30.4043 46.9612 30.0866C46.7801 28.8901 45.9206 27.4761 43.4441 28.7571C41.4419 29.7926 38.7977 31.2962 36.8618 32.4434M8.9587 43.471L8.04532 32.2056M34.8947 33.641C35.3579 33.3459 36.0471 32.9262 36.8618 32.4434M8.04532 32.2056C8.89392 31.6854 10.1252 31.0083 11.4408 30.4148M24.2105 36.114C24.2105 36.114 35.1974 36.5739 35.1974 35.1178C35.1974 32.2823 32.1711 30.5963 29.2961 31.1328C26.4211 31.6692 19.9145 30.5963 17.4178 29.2935C16.1599 28.6372 13.6784 29.4052 11.4408 30.4148M11.4408 30.4148V18.7178M11.4408 18.7178H10.5493C9.99706 18.7178 9.54934 18.2701 9.54934 17.7178V11.3646C9.54934 10.8123 9.99706 10.3646 10.5493 10.3646H21.6546M11.4408 18.7178H24.1513M36.8618 18.7178V32.4434M36.8618 18.7178H37.9046C38.4569 18.7178 38.9046 18.2701 38.9046 17.7178V11.3646C38.9046 10.8123 38.4569 10.3646 37.9046 10.3646H29.2961M36.8618 18.7178H24.1513M24.1513 18.7178V10.3646M24.1513 10.3646H24.7566M24.1513 10.3646H21.6546M29.2961 10.3646C31.2884 10.1347 34.7434 8.9545 32.625 6.07302C30.5066 3.19153 26.4967 7.73345 24.7566 10.3646M29.2961 10.3646H24.7566M24.7566 10.3646C25.8662 7.09482 26.9053 0.647244 22.1842 1.01509C17.4632 1.38294 19.864 7.40136 21.6546 10.3646" stroke="#EB7605" stroke-width="1.5"></path>
  </symbol>
	<symbol fill="none" xmlns="http://www.w3.org/2000/svg" viewBox="0 0 49 48" id="socials">
    <g clip-path="url(#clip0_774_194)">
      <path d="M10.1947 13.6429C12.3297 13.6429 14.7627 10.4859 14.7627 7.71688C14.8032 7.0981 14.7142 6.47766 14.5015 5.8952C14.2887 5.31275 13.9567 4.78107 13.5268 4.33416C13.097 3.88724 12.5786 3.5349 12.0048 3.29964C11.4311 3.06439 10.8146 2.9514 10.1947 2.96788C9.57481 2.95155 8.95837 3.06465 8.38468 3.29996C7.811 3.53526 7.29269 3.88761 6.86283 4.33449C6.43298 4.78138 6.10103 5.31299 5.88818 5.89537C5.67534 6.47776 5.58627 7.09814 5.62666 7.71688C5.62666 10.4859 8.06066 13.6429 10.1947 13.6429ZM10.1947 4.46788C10.6178 4.45087 11.0396 4.52474 11.4318 4.68453C11.8239 4.84432 12.1773 5.08631 12.468 5.3942C12.7588 5.70209 12.9801 6.06872 13.1172 6.46938C13.2543 6.87004 13.3039 7.29543 13.2627 7.71688C13.2627 9.86688 11.2627 12.1429 10.1947 12.1429C9.12666 12.1429 7.12666 9.86688 7.12666 7.71688C7.08545 7.29543 7.13505 6.87004 7.27212 6.46938C7.40919 6.06872 7.63055 5.70209 7.92129 5.3942C8.21202 5.08631 8.56537 4.84432 8.95753 4.68453C9.34969 4.52474 9.77154 4.45087 10.1947 4.46788Z" fill="#EB7605"></path>
      <path d="M10.1992 29.5459C10.0003 29.5459 9.80954 29.6249 9.66889 29.7656C9.52824 29.9062 9.44922 30.097 9.44922 30.2959V42.5289C9.44922 42.7278 9.52824 42.9186 9.66889 43.0592C9.80954 43.1999 10.0003 43.2789 10.1992 43.2789C10.3981 43.2789 10.5889 43.1999 10.7295 43.0592C10.8702 42.9186 10.9492 42.7278 10.9492 42.5289V30.2999C10.9497 30.2011 10.9307 30.1031 10.8933 30.0117C10.8558 29.9202 10.8007 29.837 10.731 29.767C10.6613 29.6969 10.5784 29.6413 10.4872 29.6034C10.3959 29.5654 10.298 29.5459 10.1992 29.5459Z" fill="#EB7605"></path>
      <path d="M18.367 31.1659C18.8293 30.9213 19.216 30.5553 19.4856 30.1072C19.7553 29.6591 19.8975 29.1459 19.897 28.6229V16.5069C19.8973 16.3637 19.8565 16.2233 19.7794 16.1026C19.7023 15.9819 19.5921 15.8859 19.462 15.8259L13.709 13.1719C13.6059 13.1239 13.4932 13.1 13.3795 13.1023C13.2658 13.1046 13.1541 13.1328 13.053 13.1849L10.194 14.6479L7.346 13.1859C7.24484 13.133 7.1328 13.1042 7.01864 13.1017C6.90449 13.0993 6.79133 13.1233 6.688 13.1719L0.936002 15.8259C0.805786 15.8858 0.695491 15.9818 0.618208 16.1025C0.540925 16.2232 0.4999 16.3636 0.500002 16.5069V28.6229C0.499392 29.1456 0.641465 29.6586 0.910905 30.1066C1.18035 30.5545 1.56693 30.9205 2.029 31.1649L4.021 32.2219C4.06815 32.2394 4.11713 32.2515 4.167 32.2579V42.5289C4.167 42.7278 4.24602 42.9186 4.38667 43.0592C4.52732 43.1999 4.71809 43.2789 4.917 43.2789C5.11591 43.2789 5.30668 43.1999 5.44733 43.0592C5.58798 42.9186 5.667 42.7278 5.667 42.5289V20.0299C5.667 19.831 5.58798 19.6402 5.44733 19.4996C5.30668 19.3589 5.11591 19.2799 4.917 19.2799C4.71809 19.2799 4.52732 19.3589 4.38667 19.4996C4.24602 19.6402 4.167 19.831 4.167 20.0299V30.5999L2.732 29.8389C2.51101 29.7219 2.32609 29.5468 2.19712 29.3326C2.06815 29.1183 2 28.873 2 28.6229V16.9859L6.681 14.8269L9.536 20.0369C9.60081 20.1547 9.69606 20.253 9.81181 20.3214C9.92755 20.3898 10.0595 20.4259 10.194 20.4259C10.3285 20.4259 10.4605 20.3898 10.5762 20.3214C10.6919 20.253 10.7872 20.1547 10.852 20.0369L13.715 14.8249L18.397 16.9849V28.6229C18.3972 28.8734 18.329 29.1192 18.1998 29.3338C18.0707 29.5484 17.8854 29.7238 17.664 29.8409L16.229 30.6019V20.0299C16.229 19.831 16.15 19.6402 16.0093 19.4996C15.8687 19.3589 15.6779 19.2799 15.479 19.2799C15.2801 19.2799 15.0893 19.3589 14.9487 19.4996C14.808 19.6402 14.729 19.831 14.729 20.0299V42.5299C14.729 42.7288 14.808 42.9196 14.9487 43.0602C15.0893 43.2009 15.2801 43.2799 15.479 43.2799C15.6779 43.2799 15.8687 43.2009 16.0093 43.0602C16.15 42.9196 16.229 42.7288 16.229 42.5299V32.2649C16.2798 32.2561 16.3294 32.2416 16.377 32.2219L18.367 31.1659ZM10.2 18.1169L8.841 15.6369L9.857 16.1579C9.9627 16.2126 10.08 16.2412 10.199 16.2412C10.318 16.2412 10.4353 16.2126 10.541 16.1579L11.564 15.6339L10.2 18.1169Z" fill="#EB7605"></path>
      <path d="M38.7995 13.643C40.9345 13.643 43.3675 10.486 43.3675 7.71705C43.3898 7.10324 43.2881 6.49125 43.0685 5.91761C42.849 5.34398 42.5161 4.82047 42.0897 4.37837C41.6634 3.93626 41.1522 3.58461 40.5869 3.34443C40.0216 3.10425 39.4137 2.98047 38.7995 2.98047C38.1853 2.98047 37.5774 3.10425 37.0121 3.34443C36.4468 3.58461 35.9357 3.93626 35.5093 4.37837C35.0829 4.82047 34.75 5.34398 34.5305 5.91761C34.311 6.49125 34.2093 7.10324 34.2315 7.71705C34.2285 10.486 36.6615 13.643 38.7995 13.643ZM38.7995 4.46805C39.2226 4.45103 39.6445 4.52491 40.0366 4.6847C40.4288 4.84449 40.7822 5.08648 41.0729 5.39437C41.3636 5.70225 41.585 6.06888 41.7221 6.46954C41.8591 6.87021 41.9087 7.2956 41.8675 7.71705C41.8675 9.86705 39.8675 12.143 38.7995 12.143C37.7315 12.143 35.7315 9.86705 35.7315 7.71705C35.6903 7.2956 35.7399 6.87021 35.877 6.46954C36.014 6.06888 36.2354 5.70225 36.5261 5.39437C36.8169 5.08648 37.1702 4.84449 37.5624 4.6847C37.9545 4.52491 38.3764 4.45103 38.7995 4.46805Z" fill="#EB7605"></path>
      <path d="M38.8008 29.5459C38.6019 29.5459 38.4111 29.6249 38.2705 29.7656C38.1298 29.9062 38.0508 30.097 38.0508 30.2959V42.5289C38.0508 42.7278 38.1298 42.9186 38.2705 43.0592C38.4111 43.1999 38.6019 43.2789 38.8008 43.2789C38.9997 43.2789 39.1905 43.1999 39.3311 43.0592C39.4718 42.9186 39.5508 42.7278 39.5508 42.5289V30.2999C39.5513 30.2011 39.5323 30.1031 39.4948 30.0117C39.4574 29.9202 39.4022 29.837 39.3325 29.767C39.2628 29.6969 39.18 29.6413 39.0887 29.6034C38.9975 29.5654 38.8996 29.5459 38.8008 29.5459Z" fill="#EB7605"></path>
      <path d="M48.0635 15.826L42.3115 13.172C42.2082 13.1239 42.0953 13.1001 41.9815 13.1024C41.8676 13.1046 41.7557 13.1329 41.6545 13.185L38.7995 14.648L35.9505 13.186C35.8495 13.133 35.7376 13.1042 35.6236 13.1017C35.5096 13.0993 35.3966 13.1234 35.2935 13.172L29.5405 15.826C29.4104 15.886 29.3002 15.982 29.2231 16.1027C29.146 16.2234 29.1052 16.3638 29.1055 16.507V28.623C29.1048 29.1459 29.247 29.659 29.5167 30.107C29.7863 30.5549 30.1731 30.9208 30.6355 31.165L32.6255 32.222C32.6732 32.2416 32.7228 32.2564 32.7735 32.266V42.529C32.7735 42.7279 32.8525 42.9187 32.9931 43.0593C33.1338 43.2 33.3246 43.279 33.5235 43.279C33.7224 43.279 33.9131 43.2 34.0538 43.0593C34.1945 42.9187 34.2735 42.7279 34.2735 42.529V20.03C34.2735 19.8311 34.1945 19.6403 34.0538 19.4997C33.9131 19.359 33.7224 19.28 33.5235 19.28C33.3246 19.28 33.1338 19.359 32.9931 19.4997C32.8525 19.6403 32.7735 19.8311 32.7735 20.03V30.6L31.3385 29.838C31.117 29.7212 30.9317 29.5461 30.8025 29.3316C30.6733 29.1171 30.6052 28.8714 30.6055 28.621V16.986L35.2865 14.827L38.1415 20.037C38.2061 20.1548 38.3013 20.2531 38.4169 20.3216C38.5326 20.3901 38.6646 20.4262 38.799 20.4262C38.9334 20.4262 39.0653 20.3901 39.181 20.3216C39.2967 20.2531 39.3918 20.1548 39.4565 20.037L42.3205 14.826L46.9995 16.986V28.623C46.9998 28.8734 46.9319 29.1192 46.8029 29.3338C46.6739 29.5484 46.4888 29.7238 46.2675 29.841L44.8325 30.602V20.03C44.8325 19.8311 44.7535 19.6403 44.6128 19.4997C44.4721 19.359 44.2814 19.28 44.0825 19.28C43.8836 19.28 43.6928 19.359 43.5521 19.4997C43.4115 19.6403 43.3325 19.8311 43.3325 20.03V42.53C43.3325 42.7289 43.4115 42.9197 43.5521 43.0603C43.6928 43.201 43.8836 43.28 44.0825 43.28C44.2814 43.28 44.4721 43.201 44.6128 43.0603C44.7535 42.9197 44.8325 42.7289 44.8325 42.53V32.258C44.8823 32.2516 44.9313 32.2395 44.9785 32.222L46.9705 31.165C47.4325 30.9206 47.8191 30.5546 48.0886 30.1067C48.358 29.6587 48.5001 29.1458 48.4995 28.623V16.507C48.4996 16.3637 48.4585 16.2233 48.3813 16.1026C48.304 15.9819 48.1937 15.8859 48.0635 15.826ZM38.7995 18.117L37.4405 15.637L38.4555 16.158C38.5613 16.2127 38.6788 16.2413 38.798 16.2413C38.9171 16.2413 39.0346 16.2127 39.1405 16.158L40.1635 15.634L38.7995 18.117Z" fill="#EB7605"></path>
      <path d="M29.6928 40.2451C29.6236 40.1735 29.5408 40.1164 29.4493 40.0771C29.3577 40.0378 29.2593 40.0172 29.1597 40.0164C29.0601 40.0156 28.9614 40.0346 28.8692 40.0723C28.7771 40.1101 28.6934 40.1658 28.623 40.2363C28.5526 40.3067 28.4969 40.3905 28.4593 40.4827C28.4216 40.5749 28.4027 40.6736 28.4036 40.7732C28.4045 40.8728 28.4252 40.9712 28.4646 41.0627C28.5039 41.1542 28.5611 41.2369 28.6328 41.3061L29.1058 41.7791H19.9008L20.3738 41.3061C20.4454 41.2369 20.5026 41.1542 20.542 41.0627C20.5813 40.9712 20.6021 40.8728 20.603 40.7732C20.6039 40.6736 20.5849 40.5749 20.5473 40.4827C20.5096 40.3905 20.454 40.3067 20.3836 40.2363C20.3132 40.1658 20.2295 40.1101 20.1373 40.0723C20.0452 40.0346 19.9464 40.0156 19.8468 40.0164C19.7472 40.0172 19.6488 40.0378 19.5573 40.0771C19.4658 40.1164 19.383 40.1735 19.3138 40.2451L17.5558 42.0001C17.4861 42.0697 17.4308 42.1524 17.3931 42.2434C17.3554 42.3345 17.3359 42.432 17.3359 42.5306C17.3359 42.6291 17.3554 42.7267 17.3931 42.8177C17.4308 42.9087 17.4861 42.9914 17.5558 43.0611L19.3088 44.8131C19.451 44.9455 19.639 45.0177 19.8333 45.0142C20.0276 45.0108 20.213 44.9321 20.3504 44.7947C20.4878 44.6573 20.5665 44.4719 20.57 44.2776C20.5734 44.0833 20.5013 43.8952 20.3688 43.7531L19.8968 43.2801H29.1008L28.6288 43.7531C28.5551 43.8217 28.496 43.9045 28.455 43.9965C28.414 44.0885 28.392 44.1878 28.3902 44.2885C28.3884 44.3892 28.4069 44.4893 28.4447 44.5827C28.4824 44.6761 28.5385 44.7609 28.6097 44.8321C28.681 44.9033 28.7658 44.9595 28.8592 44.9972C28.9526 45.0349 29.0526 45.0534 29.1533 45.0517C29.254 45.0499 29.3533 45.0278 29.4453 44.9868C29.5373 44.9459 29.6201 44.8868 29.6888 44.8131L31.4418 43.0611C31.5115 42.9914 31.5668 42.9087 31.6045 42.8177C31.6422 42.7267 31.6616 42.6291 31.6616 42.5306C31.6616 42.432 31.6422 42.3345 31.6045 42.2434C31.5668 42.1524 31.5115 42.0697 31.4418 42.0001L29.6928 40.2451Z" fill="#EB7605"></path>
    </g>
    <defs>
      <clipPath id="clip0_774_194">
        <rect width="48" height="48" fill="white" transform="translate(0.5)"></rect>
      </clipPath>
    </defs>
  </symbol>
	<symbol fill="none" xmlns="http://www.w3.org/2000/svg" viewBox="0 0 49 48" id="mind">
    <path d="M14.4459 11.7246C12.9716 13.939 12.087 16.5386 12.087 19.3307L7.5659 27.5145C7.46762 27.6108 7.5659 27.8034 7.76247 27.8034L11.7922 27.8996V37.2388C11.7922 38.009 12.4802 38.683 13.2665 38.683H24.0779" stroke="#EB7605" stroke-width="1.4" stroke-miterlimit="10"></path>
    <path d="M35.7773 45.9997V28.9582C38.3328 26.4549 39.9053 23.0851 39.9053 19.3302C39.9053 16.6344 39.1191 14.1311 37.7431 12.0129" stroke="#EB7605" stroke-width="1.4" stroke-miterlimit="10"></path>
    <path d="M20.5352 39.3567V46" stroke="#EB7605" stroke-width="1.4" stroke-miterlimit="10"></path>
    <path d="M31.7434 27.6104H20.1457L19.3594 25.9737V21.1597H32.5297V25.9737L31.7434 27.6104Z" stroke="#EB7605" stroke-width="1.4" stroke-miterlimit="10"></path>
    <path d="M27.8175 28.1882V30.0176C27.8175 30.1138 27.7192 30.3064 27.5227 30.3064H24.2792C24.1809 30.3064 23.9844 30.2101 23.9844 30.0176V28.1882" stroke="#EB7605" stroke-width="1.4" stroke-miterlimit="10"></path>
    <path d="M35.2837 11.1466C35.2837 6.14004 31.1557 2 25.9465 2C20.7374 2 16.6094 6.04376 16.6094 11.1466C16.6094 14.3238 18.2802 17.2122 20.8357 18.849V21.1597H30.9591V18.849C33.6128 17.2122 35.2837 14.4201 35.2837 11.1466Z" stroke="#EB7605" stroke-width="1.4" stroke-miterlimit="10"></path>
    <path d="M19.3594 24.3367H25.0599" stroke="#EB7605" stroke-width="1.4" stroke-miterlimit="10"></path>
    <path d="M21.125 10.0876H22.8941" stroke="#EB7605" stroke-width="1.4" stroke-miterlimit="10" stroke-dasharray="1.99 1.99"></path>
    <path d="M25.1562 10.0876H26.8271" stroke="#EB7605" stroke-width="1.4" stroke-miterlimit="10" stroke-dasharray="1.99 1.99"></path>
    <path d="M29.0898 10.0876H30.859" stroke="#EB7605" stroke-width="1.4" stroke-miterlimit="10" stroke-dasharray="1.99 1.99"></path>
  </symbol>
	<symbol xmlns="http://www.w3.org/2000/svg" viewBox="0 0 56 56" id="slider-arrow">
    <path fill-rule="evenodd" clip-rule="evenodd" d="M3.5 28C3.5 34.4978 6.08124 40.7295 10.6759 45.3241C15.2705 49.9188 21.5022 52.5 28 52.5C34.4978 52.5 40.7295 49.9188 45.3241 45.3241C49.9188 40.7295 52.5 34.4978 52.5 28C52.5 21.5022 49.9188 15.2705 45.3241 10.6759C40.7295 6.08124 34.4978 3.5 28 3.5C21.5022 3.5 15.2705 6.08124 10.6759 10.6759C6.08124 15.2705 3.5 21.5022 3.5 28ZM56 28C56 35.4261 53.05 42.548 47.799 47.799C42.548 53.05 35.4261 56 28 56C20.5739 56 13.452 53.05 8.20101 47.799C2.94999 42.548 0 35.4261 0 28C0 20.5739 2.94999 13.452 8.20101 8.20101C13.452 2.94999 20.5739 0 28 0C35.4261 0 42.548 2.94999 47.799 8.20101C53.05 13.452 56 20.5739 56 28ZM15.75 26.25C15.2859 26.25 14.8408 26.4344 14.5126 26.7626C14.1844 27.0908 14 27.5359 14 28C14 28.4641 14.1844 28.9093 14.5126 29.2374C14.8408 29.5656 15.2859 29.75 15.75 29.75H36.0255L28.511 37.261C28.3483 37.4237 28.2192 37.6169 28.1312 37.8295C28.0431 38.042 27.9978 38.2699 27.9978 38.5C27.9978 38.7301 28.0431 38.958 28.1312 39.1705C28.2192 39.3831 28.3483 39.5763 28.511 39.739C28.6737 39.9017 28.8669 40.0308 29.0795 40.1188C29.292 40.2069 29.5199 40.2522 29.75 40.2522C29.9801 40.2522 30.208 40.2069 30.4205 40.1188C30.6331 40.0308 30.8263 39.9017 30.989 39.739L41.489 29.239C41.652 29.0764 41.7813 28.8833 41.8695 28.6707C41.9577 28.4581 42.0031 28.2302 42.0031 28C42.0031 27.7698 41.9577 27.5419 41.8695 27.3293C41.7813 27.1167 41.652 26.9236 41.489 26.761L30.989 16.261C30.8263 16.0983 30.6331 15.9692 30.4205 15.8812C30.208 15.7931 29.9801 15.7478 29.75 15.7478C29.5199 15.7478 29.292 15.7931 29.0795 15.8812C28.8669 15.9692 28.6737 16.0983 28.511 16.261C28.3483 16.4237 28.2192 16.6169 28.1312 16.8295C28.0431 17.042 27.9978 17.2699 27.9978 17.5C27.9978 17.7301 28.0431 17.958 28.1312 18.1705C28.2192 18.3831 28.3483 18.5763 28.511 18.739L36.0255 26.25H15.75Z"></path>
  </symbol>
	<symbol fill="none" xmlns="http://www.w3.org/2000/svg" viewBox="0 0 16 16" id="sound-on">
    <path d="M13.3344 8C13.3344 5.78125 11.9781 3.88125 10.0531 3.07812L9.54062 4.30937C10.9844 4.9125 12 6.3375 12 8C12 9.66562 10.9844 11.0875 9.5375 11.6906L10.05 12.9219C11.9781 12.1187 13.3344 10.2188 13.3344 8ZM10.6656 8C10.6656 6.89062 9.9875 5.94063 9.025 5.54063L8.5125 6.77187C8.99375 6.97187 9.33125 7.44688 9.33125 8.00313C9.33125 8.55625 8.99375 9.03125 8.5125 9.23438L9.025 10.4656C9.9875 10.0594 10.6656 9.10938 10.6656 8ZM11.0781 0.615625L10.5625 1.84687C12.9719 2.85 14.6656 5.225 14.6656 8C14.6656 10.7719 12.9719 13.15 10.5625 14.1531L11.075 15.3844C13.9688 14.1781 16 11.3281 16 8C16 4.67188 13.9688 1.82187 11.0781 0.615625ZM0 4.66563V11.3313H2.66563L7.33437 16V0L2.66563 4.66563H0Z" fill="black"></path>
  </symbol>
	<symbol fill="none" xmlns="http://www.w3.org/2000/svg" viewBox="0 0 18 16" id="sound-off">
    <path d="M14.3344 8C14.3344 5.78125 12.9781 3.88125 11.0531 3.07812L10.5406 4.30937C11.9844 4.9125 13 6.3375 13 8C13 9.66562 11.9844 11.0875 10.5375 11.6906L11.05 12.9219C12.9781 12.1187 14.3344 10.2188 14.3344 8ZM11.6656 8C11.6656 6.89062 10.9875 5.94063 10.025 5.54063L9.5125 6.77187C9.99375 6.97187 10.3313 7.44688 10.3313 8.00313C10.3313 8.55625 9.99375 9.03125 9.5125 9.23438L10.025 10.4656C10.9875 10.0594 11.6656 9.10938 11.6656 8ZM12.0781 0.615625L11.5625 1.84687C13.9719 2.85 15.6656 5.225 15.6656 8C15.6656 10.7719 13.9719 13.15 11.5625 14.1531L12.075 15.3844C14.9688 14.1781 17 11.3281 17 8C17 4.67188 14.9688 1.82187 12.0781 0.615625ZM1 4.66563V11.3313H3.66563L8.33437 16V0L3.66563 4.66563H1Z" fill="black"></path>
    <rect x="1.08203" width="22.1077" height="2" rx="1" transform="rotate(39.0164 1.08203 0)" fill="black"></rect>
  </symbol>
	<symbol fill="none" xmlns="http://www.w3.org/2000/svg" viewBox="0 0 23 28" id="play">
    <path d="M22.5 13.134C23.1667 13.5189 23.1667 14.4811 22.5 14.866L1.5 26.9904C0.833333 27.3753 6.44345e-07 26.8942 6.77994e-07 26.1244L1.73794e-06 1.87564C1.77159e-06 1.10584 0.833336 0.624718 1.5 1.00962L22.5 13.134Z" fill="black"></path>
  </symbol>
	<symbol fill="none" xmlns="http://www.w3.org/2000/svg" viewBox="0 0 37 46" id="clock">
    <path d="M32.5719 15.2431L34.9719 12.3055C35.1094 12.1494 35.2128 11.9663 35.2756 11.7679C35.3385 11.5696 35.3593 11.3603 35.3367 11.1535C35.3192 10.9445 35.2591 10.7412 35.16 10.5563C35.0609 10.3714 34.925 10.2087 34.7607 10.0783L32.8407 8.44632C32.6839 8.30982 32.5008 8.207 32.3026 8.14425C32.1044 8.0815 31.8955 8.06014 31.6887 8.08152C31.4797 8.09902 31.2764 8.15915 31.0915 8.25822C30.9066 8.35728 30.7439 8.49318 30.6135 8.65752L28.3095 11.4415C26.2042 10.1055 23.8436 9.22279 21.3783 8.84952V6.67992H23.6247C24.0473 6.67992 24.4527 6.51202 24.7515 6.21317C25.0504 5.91431 25.2183 5.50897 25.2183 5.08632V2.51352C25.2183 2.09087 25.0504 1.68553 24.7515 1.38668C24.4527 1.08782 24.0473 0.919922 23.6247 0.919922H13.3719C12.9493 0.919922 12.5439 1.08782 12.2451 1.38668C11.9462 1.68553 11.7783 2.09087 11.7783 2.51352V5.08632C11.7783 5.50897 11.9462 5.91431 12.2451 6.21317C12.5439 6.51202 12.9493 6.67992 13.3719 6.67992H15.6183V8.84952C13.0218 9.2598 10.5455 10.2294 8.3607 11.6911L5.8839 8.59992C5.61143 8.27798 5.22369 8.07558 4.80378 8.0361C4.38387 7.99662 3.9652 8.12321 3.6375 8.38872L1.7175 10.0015C1.3927 10.2713 1.18663 10.6577 1.14355 11.0777C1.10047 11.4977 1.22382 11.9178 1.4871 12.2479L4.0983 15.4927V15.5887C1.97782 18.2925 0.665074 21.5407 0.311549 24.9585C-0.0419753 28.3764 0.578136 31.8245 2.10032 34.905C3.6225 37.9855 5.98471 40.5728 8.91433 42.3684C11.844 44.1639 15.2216 45.0944 18.6574 45.0526C22.0932 45.0108 25.4472 43.9983 28.3322 42.132C31.2173 40.2657 33.5158 37.6217 34.9626 34.5051C36.4094 31.3884 36.9454 27.9262 36.5088 24.518C36.0722 21.1098 34.6808 17.8944 32.4951 15.2431H32.5719ZM31.8039 10.1359L33.2823 11.3455L31.2471 13.8223C30.7895 13.3751 30.3089 12.9521 29.8071 12.5551L31.8039 10.1359ZM13.6983 2.83992H23.2983V4.75992H13.6983V2.83992ZM17.5383 6.67992H19.4583V8.59992C19.1319 8.59992 18.8247 8.59992 18.4983 8.59992C18.1719 8.59992 17.8647 8.59992 17.5383 8.59992V6.67992ZM3.1191 11.3455L4.6167 10.1359L6.8247 12.8431C6.33455 13.253 5.86668 13.6888 5.4231 14.1487L3.1191 11.3455ZM18.4983 43.1599C15.2705 43.1599 12.1152 42.2028 9.4314 40.4095C6.74758 38.6162 4.65581 36.0674 3.42059 33.0853C2.18537 30.1032 1.86217 26.8218 2.49189 23.656C3.1216 20.4903 4.67593 17.5823 6.95832 15.2999C9.24071 13.0175 12.1487 11.4632 15.3144 10.8335C18.4802 10.2038 21.7616 10.527 24.7437 11.7622C27.7258 12.9974 30.2746 15.0892 32.0679 17.773C33.8611 20.4568 34.8183 23.6121 34.8183 26.8399C34.8132 31.1667 33.0922 35.3148 30.0327 38.3743C26.9732 41.4338 22.8251 43.1548 18.4983 43.1599Z" fill="#EB7605"></path>
    <path d="M19.4591 26.4368V17.24C19.4591 16.9854 19.358 16.7412 19.178 16.5612C18.9979 16.3812 18.7537 16.28 18.4991 16.28C18.2445 16.28 18.0003 16.3812 17.8203 16.5612C17.6403 16.7412 17.5391 16.9854 17.5391 17.24V26.84C17.5376 26.9659 17.5624 27.0908 17.612 27.2065C17.6616 27.3222 17.7349 27.4263 17.8271 27.512L25.5071 35.192C25.5933 35.2839 25.6974 35.3571 25.813 35.4071C25.9286 35.4571 26.0532 35.4829 26.1791 35.4829C26.3051 35.4829 26.4297 35.4571 26.5453 35.4071C26.6608 35.3571 26.7649 35.2839 26.8511 35.192C26.943 35.1058 27.0162 35.0017 27.0662 34.8862C27.1162 34.7706 27.142 34.646 27.142 34.52C27.142 34.3941 27.1162 34.2695 27.0662 34.1539C27.0162 34.0383 26.943 33.9342 26.8511 33.848L19.4591 26.4368Z" fill="#EB7605"></path>
  </symbol>
	<symbol fill="none" xmlns="http://www.w3.org/2000/svg" viewBox="0 0 49 48" id="restrictions">
    <circle cx="24.75" cy="24" r="22" stroke="#EB7605" stroke-width="1.5"></circle>
    <path d="M20.0623 28C20.1089 27.2067 20.1836 26.4833 20.2863 25.83C20.3983 25.1673 20.5569 24.542 20.7623 23.954C20.9676 23.3567 21.2243 22.778 21.5323 22.218C21.8403 21.6487 22.2183 21.0607 22.6663 20.454H18.4383V19.096H24.4163V20.076C23.8843 20.7293 23.4456 21.35 23.1003 21.938C22.7643 22.526 22.5029 23.1233 22.3163 23.73C22.1296 24.3273 21.9896 24.9713 21.8963 25.662C21.8123 26.3527 21.7469 27.132 21.7003 28H20.0623ZM27.982 26.614V23.968H25.476V22.792H27.982V20.146H29.2V22.792H31.706V23.968H29.2V26.614H27.982Z" fill="#EB7605"></path>
  </symbol>
	<symbol fill="none" xmlns="http://www.w3.org/2000/svg" viewBox="0 0 49 37" id="group">
    <path d="M24.25 13C27.5638 13 30.25 10.3137 30.25 7.00001C30.25 3.6863 27.5638 1 24.25 1C20.9364 1 18.25 3.6863 18.25 7.00001C18.25 10.3137 20.9364 13 24.25 13Z" stroke="#EB7605" stroke-width="1.5" stroke-miterlimit="10"></path>
    <path d="M32.877 36H15.4932C13.677 36 12.25 34.3923 12.25 32.3462V26.0615C12.25 21.0923 16.0122 17 20.5527 17H27.9473C32.4878 17 36.25 21.0923 36.25 26.0615V32.3462C36.1203 34.3923 34.6932 36 32.877 36Z" stroke="#EB7605" stroke-width="1.5" stroke-miterlimit="10"></path>
    <path d="M39.25 17C41.4591 17 43.25 15.2091 43.25 13C43.25 10.7909 41.4591 9 39.25 9C37.0409 9 35.25 10.7909 35.25 13C35.25 15.2091 37.0409 17 39.25 17Z" stroke="#EB7605" stroke-width="1.5" stroke-miterlimit="10"></path>
    <path d="M9.25 17C7.04086 17 5.25 15.2091 5.25 13C5.25 10.7909 7.04086 9 9.25 9C11.4591 9 13.25 10.7909 13.25 13C13.25 15.2091 11.4591 17 9.25 17Z" stroke="#EB7605" stroke-width="1.5" stroke-miterlimit="10"></path>
    <path d="M35.5473 34H44.0203C45.3581 34 46.25 32.9036 46.25 31.494V27.1084C46.25 23.6627 43.723 21 40.4527 21H35.25" stroke="#EB7605" stroke-width="1.5" stroke-miterlimit="10"></path>
    <path d="M12.9527 34H4.47973C3.14189 34 2.25 32.9036 2.25 31.494V27.1084C2.25 23.6627 4.77703 21 8.0473 21H13.25" stroke="#EB7605" stroke-width="1.5" stroke-miterlimit="10"></path>
  </symbol>
	<symbol fill="none" xmlns="http://www.w3.org/2000/svg" viewBox="0 0 10 10" id="close">
    <path d="M0.757359 0.757289L9.24264 9.24257M0.757359 9.24257L9.24264 0.757289" stroke="#1B1B1B" stroke-width="1.5"></path>
  </symbol>
	<symbol fill="none" xmlns="http://www.w3.org/2000/svg" viewBox="0 0 34 44" id="location-big">
    <path d="M17 44C17 44 33.5 28.3635 33.5 16.5C33.5 12.1239 31.7616 7.92709 28.6673 4.83274C25.5729 1.73839 21.3761 0 17 0C12.6239 0 8.42709 1.73839 5.33274 4.83274C2.23839 7.92709 0.5 12.1239 0.5 16.5C0.5 28.3635 17 44 17 44ZM17 24.75C14.812 24.75 12.7135 23.8808 11.1664 22.3336C9.61919 20.7865 8.75 18.688 8.75 16.5C8.75 14.312 9.61919 12.2135 11.1664 10.6664C12.7135 9.11919 14.812 8.25 17 8.25C19.188 8.25 21.2865 9.11919 22.8336 10.6664C24.3808 12.2135 25.25 14.312 25.25 16.5C25.25 18.688 24.3808 20.7865 22.8336 22.3336C21.2865 23.8808 19.188 24.75 17 24.75Z" fill="#EB7605"></path>
  </symbol>
	<symbol fill="none" xmlns="http://www.w3.org/2000/svg" viewBox="0 0 40 40" id="wallet">
    <path d="M39.0626 20.2131H36.2307V12.9299C36.2307 12.8965 36.2274 12.8639 36.2257 12.831V7.22241C36.2257 6.84103 35.9166 6.53191 35.5352 6.53191H28.2138L21.8841 0.202211C21.7546 0.0727539 21.5789 0 21.3958 0C21.2127 0 21.0371 0.0727319 20.9075 0.202211L16.1347 4.975L13.8911 2.73123C13.6213 2.46159 13.1842 2.46159 12.9144 2.73123L9.10931 6.53633C9.08419 6.53355 9.05864 6.53191 9.03275 6.53191H1.1905C0.809127 6.53191 0.5 6.84103 0.5 7.22241V14.5714C0.5 14.5939 0.50125 14.6162 0.503377 14.6381V37.4922C0.503377 38.5257 1.34417 39.3665 2.37761 39.3665H34.3565C35.3899 39.3665 36.2307 38.5257 36.2307 37.4922V30.2091H39.0626C39.444 30.2091 39.7531 29.9 39.7531 29.5186V20.9036C39.7531 20.5222 39.444 20.2131 39.0626 20.2131ZM34.8447 7.91294V11.1224C34.6887 11.0802 34.5255 11.0557 34.3564 11.0557H32.7374L29.5947 7.91294H34.8447ZM21.3958 1.66702L30.7844 11.0557H28.6886L20.3479 2.71494L21.3958 1.66702ZM19.3713 3.69157L26.7353 11.0557H22.2155L17.1114 5.95152L19.3713 3.69157ZM13.4027 4.19604L15.1582 5.9515L16.1347 6.92802L20.2624 11.0557H18.3802L12.4617 5.13711L13.4027 4.19604ZM16.427 11.0557H6.54313L11.4851 6.11374L16.427 11.0557ZM4.58998 11.0557H2.37761C2.20546 11.0557 2.0395 11.0809 1.88103 11.1245V7.91294H7.73274L4.58998 11.0557ZM34.8497 37.4922C34.8497 37.7642 34.6284 37.9854 34.3565 37.9854H2.37761C2.10567 37.9854 1.88441 37.7642 1.88441 37.4922V12.9299C1.88441 12.658 2.10567 12.4367 2.37761 12.4367H34.3565C34.6115 12.4367 34.8194 12.632 34.8447 12.8803V14.5714C34.8447 14.5985 34.8467 14.6252 34.8497 14.6515V20.2131H28.5735C25.8176 20.2131 23.5755 22.4552 23.5755 25.2111C23.5755 27.967 25.8176 30.2092 28.5735 30.2092H34.8497V37.4922H34.8497ZM38.3721 28.8281H36.2307H34.8497H28.5735C26.5791 28.8281 24.9565 27.2055 24.9565 25.211C24.9565 23.2167 26.5791 21.5941 28.5735 21.5941H34.8497H36.2307H38.3721V28.8281Z" fill="#EB7605"></path>
  </symbol>
	<symbol xmlns="http://www.w3.org/2000/svg" viewBox="0 0 14 24" id="ok">
    <path d="M6.99808 12.691C3.77889 12.691 1.14502 10.0571 1.14502 6.83792C1.14502 3.61874 3.77889 0.984863 6.99808 0.984863C10.2173 0.984863 12.8511 3.61874 12.8511 6.83792C12.8511 10.0571 10.2173 12.691 6.99808 12.691ZM6.99808 3.76506C5.31532 3.76506 3.92522 5.15517 3.92522 6.83792C3.92522 8.52067 5.31532 9.91077 6.99808 9.91077C8.68083 9.91077 10.0709 8.52067 10.0709 6.83792C10.0709 5.15517 8.68083 3.76506 6.99808 3.76506Z"></path>
    <path d="M13.29 13.2762C12.7778 12.6177 11.8999 12.5445 11.2414 12.9835C11.2414 12.9835 9.63183 14.1541 6.99795 14.1541C4.36408 14.1541 2.75449 12.9835 2.75449 12.9835C2.09602 12.4714 1.21806 12.6177 0.705916 13.2762C0.193774 13.9346 0.3401 14.8126 0.998569 15.3247C1.07173 15.3979 2.60816 16.5685 5.16887 16.9343L1.29122 20.8851C0.705917 21.4704 0.705917 22.4216 1.29122 22.9337C1.58388 23.2264 1.94969 23.3727 2.31551 23.3727C2.68132 23.3727 3.04714 23.2264 3.33979 22.9337L6.99795 19.2024L10.6561 22.9337C10.9488 23.2264 11.3146 23.3727 11.6804 23.3727C12.0462 23.3727 12.412 23.2264 12.7047 22.9337C13.29 22.3484 13.29 21.4704 12.7047 20.8851L8.82703 16.9343C11.3877 16.4953 12.9242 15.3247 12.9973 15.3247C13.6558 14.8126 13.8021 13.8615 13.29 13.2762V13.2762Z"></path>
  </symbol>
	<symbol xmlns="http://www.w3.org/2000/svg" viewBox="0 0 20 17" id="twitter">
    <path d="M20 1.90716C19.2504 2.23454 18.4565 2.4492 17.644 2.54416C18.4968 2.0434 19.138 1.24927 19.448 0.310164C18.64 0.780492 17.7587 1.11177 16.841 1.29016C16.4545 0.88537 15.9897 0.563551 15.4748 0.344342C14.9598 0.125133 14.4056 0.0131294 13.846 0.0151639C11.58 0.0151639 9.743 1.82516 9.743 4.05516C9.743 4.37116 9.779 4.68016 9.849 4.97516C8.22358 4.89786 6.63212 4.48257 5.17617 3.7558C3.72022 3.02903 2.43176 2.00674 1.393 0.754164C1.02883 1.36857 0.837415 2.06994 0.839 2.78416C0.839697 3.45213 1.00683 4.10939 1.32529 4.69656C1.64375 5.28372 2.1035 5.78228 2.663 6.14716C2.01248 6.12616 1.37602 5.95249 0.805 5.64016V5.69016C0.805 7.64816 2.22 9.28116 4.095 9.65316C3.74261 9.74666 3.37958 9.79406 3.015 9.79416C2.75 9.79416 2.493 9.76916 2.242 9.71916C2.51008 10.5271 3.02311 11.2315 3.70982 11.7345C4.39653 12.2375 5.22284 12.5142 6.074 12.5262C4.61407 13.6507 2.82182 14.2582 0.979 14.2532C0.647 14.2532 0.321 14.2332 0 14.1972C1.88125 15.3879 4.06259 16.0184 6.289 16.0152C13.836 16.0152 17.962 9.85816 17.962 4.51916L17.948 3.99616C18.7529 3.42983 19.4481 2.72201 20 1.90716V1.90716Z"></path>
  </symbol>
	<symbol fill="none" xmlns="http://www.w3.org/2000/svg" viewBox="0 0 49 48" id="person">
    <path d="M24.4775 14.25C25.6642 14.25 26.8242 13.8981 27.8109 13.2388C28.7976 12.5795 29.5667 11.6425 30.0208 10.5461C30.4749 9.44975 30.5937 8.24335 30.3622 7.07946C30.1307 5.91558 29.5593 4.84648 28.7202 4.00736C27.881 3.16825 26.8119 2.5968 25.6481 2.36529C24.4842 2.13378 23.2778 2.2526 22.1814 2.70673C21.0851 3.16085 20.148 3.92989 19.4887 4.91658C18.8294 5.90328 18.4775 7.06332 18.4775 8.25C18.4793 9.84075 19.112 11.3658 20.2369 12.4907C21.3617 13.6155 22.8868 14.2482 24.4775 14.25ZM24.4775 3.75C25.3675 3.75 26.2376 4.01392 26.9776 4.50839C27.7176 5.00286 28.2944 5.70566 28.635 6.52793C28.9756 7.3502 29.0647 8.255 28.8911 9.12791C28.7174 10.0008 28.2888 10.8026 27.6595 11.432C27.0302 12.0613 26.2283 12.4899 25.3554 12.6635C24.4825 12.8372 23.5777 12.7481 22.7554 12.4075C21.9332 12.0669 21.2304 11.4901 20.7359 10.7501C20.2414 10.01 19.9775 9.14002 19.9775 8.25C19.9789 7.05694 20.4534 5.91313 21.297 5.06951C22.1406 4.22589 23.2845 3.75135 24.4775 3.75ZM39.6192 26.6495L32.2212 17.1379C32.2021 17.1134 32.1815 17.09 32.1595 17.068C31.7426 16.6488 31.2467 16.3165 30.7005 16.0903C30.1543 15.8641 29.5687 15.7484 28.9775 15.75H19.9775C19.3863 15.7484 18.8007 15.864 18.2545 16.0903C17.7083 16.3165 17.2124 16.6488 16.7955 17.068C16.7735 17.09 16.7529 17.1134 16.7338 17.1379L9.3358 26.6495C8.78866 27.2152 8.48573 27.9733 8.49229 28.7603C8.49886 29.5472 8.81441 30.3001 9.37091 30.8566C9.92741 31.4131 10.6803 31.7286 11.4673 31.7352C12.2543 31.7417 13.0123 31.4388 13.578 30.8916L18.1553 27.3314L13.6968 41.4134C13.3769 42.132 13.352 42.9475 13.6275 43.6842C13.903 44.421 14.4569 45.0201 15.1697 45.3525C15.8826 45.6849 16.6976 45.724 17.439 45.4614C18.1805 45.1989 18.7891 44.6556 19.1339 43.9486L24.4775 35.5386L29.8211 43.9486C30.1658 44.6557 30.7745 45.1991 31.516 45.4617C32.2575 45.7243 33.0725 45.6852 33.7854 45.3528C34.4984 45.0204 35.0522 44.4212 35.3277 43.6844C35.6032 42.9476 35.5782 42.132 35.2582 41.4134L30.7998 27.3314L35.377 30.8916C35.9427 31.4388 36.7008 31.7417 37.4877 31.7351C38.2747 31.7286 39.0275 31.413 39.584 30.8565C40.1405 30.3001 40.4561 29.5472 40.4627 28.7602C40.4692 27.9733 40.1663 27.2152 39.6192 26.6495H39.6192ZM38.5235 29.7959C38.242 30.0768 37.8605 30.2346 37.4628 30.2346C37.0651 30.2346 36.6836 30.0768 36.4021 29.7959C36.3801 29.774 36.3568 29.7534 36.3323 29.7343L29.8174 24.6671C29.6911 24.5688 29.5367 24.5136 29.3768 24.5093C29.2168 24.5051 29.0597 24.5521 28.9284 24.6435C28.7971 24.735 28.6985 24.866 28.6469 25.0175C28.5954 25.1689 28.5936 25.3329 28.6419 25.4854L33.8419 41.9094C33.8517 41.9403 33.8636 41.9705 33.8772 41.9999C34.0454 42.3605 34.0634 42.7731 33.9273 43.1469C33.7912 43.5208 33.5122 43.8253 33.1516 43.9934C32.791 44.1615 32.3784 44.1795 32.0046 44.0434C31.6307 43.9073 31.3262 43.6283 31.1581 43.2677C31.1444 43.2383 31.1288 43.2099 31.1114 43.1825L25.1105 33.7379C25.0428 33.6313 24.9493 33.5436 24.8386 33.4828C24.728 33.422 24.6038 33.3901 24.4775 33.3901C24.3513 33.3901 24.227 33.422 24.1164 33.4828C24.0057 33.5436 23.9122 33.6313 23.8445 33.7379L17.8436 43.1825C17.8262 43.2099 17.8106 43.2383 17.7969 43.2677C17.7137 43.4463 17.5961 43.6067 17.4508 43.7398C17.3056 43.8729 17.1356 43.976 16.9505 44.0434C16.7654 44.1108 16.5688 44.1411 16.372 44.1325C16.1752 44.1239 15.982 44.0766 15.8034 43.9934C15.6249 43.9101 15.4645 43.7925 15.3314 43.6473C15.1983 43.5021 15.0951 43.3321 15.0278 43.1469C14.9604 42.9618 14.9301 42.7653 14.9387 42.5685C14.9473 42.3716 14.9945 42.1785 15.0778 41.9999C15.0915 41.9705 15.1033 41.9403 15.1131 41.9094L20.3131 25.4854C20.3614 25.3329 20.3597 25.1689 20.3081 25.0175C20.2566 24.866 20.1579 24.735 20.0266 24.6435C19.8953 24.5521 19.7382 24.5051 19.5783 24.5093C19.4183 24.5136 19.2639 24.5688 19.1376 24.6671L12.6227 29.7343C12.5982 29.7534 12.5749 29.774 12.553 29.7959C12.2717 30.0773 11.8901 30.2353 11.4923 30.2353C11.0945 30.2353 10.7129 30.0773 10.4316 29.796C10.1503 29.5147 9.99221 29.1332 9.99219 28.7354C9.99218 28.3375 10.1502 27.956 10.4315 27.6747C10.4535 27.6526 10.4741 27.6293 10.4932 27.6047L17.8876 18.0977C18.4462 17.5522 19.1967 17.2478 19.9775 17.25H28.9775C29.7583 17.2478 30.5088 17.5522 31.0675 18.0977L38.4618 27.6047C38.4809 27.6293 38.5016 27.6526 38.5235 27.6746C38.8048 27.956 38.9628 28.3375 38.9628 28.7353C38.9628 29.1331 38.8048 29.5146 38.5235 29.7959V29.7959Z" fill="#EB7605"></path>
  </symbol>
	<symbol fill="none" xmlns="http://www.w3.org/2000/svg" viewBox="0 0 40 41" id="bus">
    <path d="M30.4203 25.5529C33.5141 25.4096 33.2156 22.478 33.2156 20.2333C33.2156 17.235 33.362 14.1979 33.2156 11.2034C33.0792 8.41694 30.656 8.43831 28.5715 8.43831C22.3337 8.43831 16.0966 8.43831 9.8588 8.43831C9.8035 8.43202 9.7438 8.43202 9.68033 8.43831C9.57853 8.43831 9.49055 8.45779 9.40885 8.48607C6.34778 9.00955 7.00951 12.6525 7.00951 15.0167C7.00951 16.7995 7.00951 18.5824 7.00951 20.3652C7.00951 21.3066 6.89828 22.3253 7.04785 23.261C7.49089 26.0249 10.5545 25.5529 12.5962 25.5529C16.0809 25.5529 19.5649 25.5529 23.0495 25.5529C25.4966 25.5529 27.9745 25.666 30.4203 25.5529ZM10.2641 23.9818C9.2951 23.9372 8.69244 23.5828 8.57995 22.5182C8.44358 21.2199 8.57995 19.833 8.57995 18.5283C8.57995 16.809 8.57995 15.0902 8.57995 13.3708C8.57995 12.3515 8.17713 10.1615 9.6797 10.0087C14.4828 10.0087 19.2859 10.0087 24.0889 10.0087C26.103 10.0087 28.3283 9.73727 30.328 10.0087C31.3598 10.1489 31.6439 10.8232 31.6439 11.7394C31.6439 12.9806 31.6439 14.2217 31.6439 15.4629C31.6439 17.0528 31.6439 18.6434 31.6439 20.2333C31.6439 21.0546 31.7878 22.0268 31.6439 22.84C31.3291 24.6178 27.9626 23.9825 26.6774 23.9825C21.2258 23.9818 15.7101 24.2345 10.2641 23.9818Z" fill="#EB7605"></path>
    <path d="M13.5722 30.4334C13.3655 28.5248 11.9013 26.9531 9.88337 26.9531C7.86675 26.9531 6.17188 28.6486 6.17188 30.6646C6.17188 32.6234 7.76934 34.285 9.72375 34.3673C11.8026 34.4547 13.3561 32.8685 13.571 30.8984C13.588 30.8268 13.5986 30.7507 13.5942 30.6646C13.5993 30.5798 13.5892 30.5044 13.5722 30.4334ZM7.74357 30.6646C7.74357 27.8977 11.8761 27.9222 12.0238 30.6646C11.8761 33.4065 7.74357 33.4303 7.74357 30.6646Z" fill="#EB7605"></path>
    <path d="M34.0169 30.8984C34.0339 30.8268 34.0446 30.7507 34.0402 30.6646C34.0446 30.5792 34.0345 30.5044 34.0176 30.4334C33.8108 28.5248 32.3466 26.9531 30.3287 26.9531C28.3121 26.9531 26.6172 28.6486 26.6172 30.6646C26.6172 32.6234 28.2147 34.285 30.1691 34.3673C32.2479 34.4547 33.802 32.8685 34.0169 30.8984ZM28.1883 30.6646C28.1883 27.8977 32.3208 27.9222 32.4685 30.6646C32.3214 33.4065 28.1883 33.4303 28.1883 30.6646Z" fill="#EB7605"></path>
    <path d="M39.3607 12.6505C38.9 11.493 38.1 11.2642 37.0958 11.2183C37.0958 11.1423 37.0958 11.0656 37.0958 10.9896C37.0958 8.73793 37.0958 6.4869 37.0958 4.23524C37.0958 2.6736 37.1631 0.932223 35.3657 0.256034C34.1874 -0.187008 32.5441 0.0794457 31.3262 0.0794457C28.5228 0.0794457 25.7194 0.0794457 22.916 0.0794457C17.5492 0.0794457 12.1818 0.0794457 6.815 0.0794457C6.53535 0.0794457 6.2557 0.0794457 5.97605 0.0794457C5.92074 0.0731614 5.86104 0.0731614 5.79757 0.0794457C5.71336 0.0794457 5.63921 0.0938995 5.56945 0.113381C3.55848 0.42948 3.12675 2.0458 3.12675 3.8387C3.12675 5.99421 3.12675 8.15035 3.12675 10.3059C3.12675 10.6088 3.12675 10.9117 3.12675 11.2146C2.07351 11.2504 1.22576 11.454 0.750664 12.6512C0.410685 13.5071 0.515632 14.5012 0.515632 15.4049C0.515632 16.3099 0.409428 17.3015 0.750664 18.1587C1.22827 19.359 2.07036 19.5607 3.12675 19.5959C3.12675 22.6124 3.12675 25.6288 3.12675 28.6453C3.12675 30.5412 3.10161 32.4391 3.12675 34.3351C3.14183 35.46 3.50255 36.4309 4.26421 37.0071C4.25038 38.1433 4.17183 39.2456 5.16914 40.0236C6.02255 40.6897 7.05191 40.6137 8.06683 40.6137C9.04843 40.6137 10.0382 40.6872 10.8847 40.0846C11.7645 39.458 11.872 38.5851 11.8745 37.6463C14.4674 37.6255 17.0628 37.5602 19.6412 37.5602C22.4641 37.5602 25.2952 37.606 28.1256 37.6192C28.1256 38.5317 28.2199 39.3864 29.0362 40.0236C29.8896 40.6897 30.919 40.6137 31.9339 40.6137C32.9155 40.6137 33.9053 40.6872 34.7518 40.0846C35.7994 39.3386 35.7535 38.2426 35.7371 37.1027C37.8235 35.7415 37.0958 31.6259 37.0958 29.39C37.0958 26.1234 37.0958 22.8575 37.0958 19.5909C38.0975 19.5438 38.9025 19.3137 39.3607 18.1587C39.7006 17.3028 39.5957 16.3086 39.5957 15.4049C39.5957 14.4994 39.7019 13.5077 39.3607 12.6505ZM2.25512 17.715C2.11875 17.5491 2.10618 17.0413 2.0867 16.817C2.04711 16.3526 2.0867 15.8693 2.0867 15.4043C2.0867 14.9399 2.04711 14.4547 2.0867 13.9916C2.10556 13.7672 2.11875 13.2601 2.25512 13.0936C2.46125 12.8422 2.7918 12.7775 3.12675 12.7655C3.12675 14.5245 3.12675 16.2835 3.12675 18.0424C2.79243 18.0311 2.46125 17.9664 2.25512 17.715ZM9.64355 38.9741C9.17663 39.1312 8.54506 39.042 8.06683 39.042C7.62755 39.042 7.14743 39.0979 6.71382 39.0081C5.90378 38.8403 5.80888 38.2181 5.81705 37.547C5.8491 37.5495 5.87612 37.5583 5.9088 37.5595C7.37618 37.6274 8.84985 37.6494 10.3254 37.6507C10.3285 38.2225 10.2318 38.7762 9.64355 38.9741ZM9.1031 35.9885C8.06431 35.9885 6.82505 36.1764 5.7982 35.9885C4.26044 35.7069 4.69845 33.4961 4.69845 32.3605C4.69845 27.1182 4.69845 21.8758 4.69845 16.6341C4.69845 12.2244 4.48918 7.75758 4.69845 3.35167C4.7349 2.58939 4.66452 1.76552 5.7982 1.65052C14.6817 1.65052 23.5645 1.65052 32.448 1.65052C33.5967 1.65052 35.2985 1.29294 35.5254 2.84956C35.707 4.09447 35.5254 5.50404 35.5254 6.75838C35.5254 12.2741 35.5254 17.7898 35.5254 23.3049C35.5254 25.8305 35.5254 28.3556 35.5254 30.8812C35.5254 32.1349 35.7076 33.5451 35.5254 34.79C35.2998 36.3284 33.6677 35.9891 32.5309 35.9891C30.2283 35.9891 27.9258 35.9891 25.6238 35.9891C20.1163 35.9885 14.6094 35.9885 9.1031 35.9885ZM33.51 38.9741C33.0431 39.1312 32.4115 39.042 31.9333 39.042C31.494 39.042 31.0139 39.0979 30.5803 39.0081C29.8004 38.8459 29.6841 38.2634 29.6841 37.6217C31.1829 37.6192 32.6805 37.6067 34.1755 37.5602C34.1812 37.5602 34.1849 37.5583 34.1906 37.5583C34.2044 38.1609 34.1309 38.7655 33.51 38.9741ZM38.0246 16.817C38.0058 17.0413 37.9926 17.5485 37.8562 17.715C37.6733 17.9381 37.3912 18.0148 37.0958 18.0374C37.0958 16.2822 37.0958 14.527 37.0958 12.7718C37.3912 12.7944 37.6733 12.8705 37.8562 13.0942C37.9926 13.2601 38.0051 13.7679 38.0246 13.9922C38.0642 14.4566 38.0246 14.9399 38.0246 15.4049C38.0246 15.8687 38.0642 16.3538 38.0246 16.817Z" fill="#EB7605"></path>
  </symbol>
	<symbol fill="none" xmlns="http://www.w3.org/2000/svg" viewBox="0 0 49 35" id="car">
    <path d="M9.75231 17.0687C7.77082 17.0687 6.1589 18.6863 6.1589 20.6733C6.1589 22.6612 7.77082 24.2779 9.75231 24.2779C11.7338 24.2779 13.3457 22.6604 13.3457 20.6733C13.3457 18.6862 11.7338 17.0687 9.75231 17.0687ZM9.75231 22.6755C8.65239 22.6755 7.75718 21.7772 7.75718 20.674C7.75718 19.5701 8.65231 18.6718 9.75231 18.6718C10.8531 18.6718 11.7482 19.5701 11.7482 20.674C11.7482 21.7772 10.8531 22.6755 9.75231 22.6755ZM38.5125 17.0687C36.531 17.0687 34.9191 18.6863 34.9191 20.6733C34.9191 22.6612 36.5311 24.2779 38.5125 24.2779C40.494 24.2779 42.1059 22.6604 42.1059 20.6733C42.106 18.6862 40.494 17.0687 38.5125 17.0687ZM38.5125 22.6755C37.4126 22.6755 36.5173 21.7772 36.5173 20.674C36.5173 19.5701 37.4125 18.6718 38.5125 18.6718C39.6133 18.6718 40.5084 19.5701 40.5084 20.674C40.5084 21.7772 39.6133 22.6755 38.5125 22.6755ZM42.7811 15.9911L40.7028 10.6235H8.38204L6.1949 15.7279C5.04212 16.4647 4.27098 17.751 4.27098 19.2206V25.109C4.27098 26.5649 5.02533 27.8417 6.15969 28.5824V31.1383C6.15969 32.9342 7.61639 34.3958 9.40667 34.3958H11.1098C12.9002 34.3958 14.3569 32.935 14.3569 31.1383V29.2568H34.9198V31.1383C34.9198 32.9342 36.3766 34.3958 38.1668 34.3958H39.87C41.6602 34.3958 43.1169 32.935 43.1169 31.1383V28.1209H43.0458C43.8466 27.3641 44.3537 26.2977 44.3537 25.1097V19.2213C44.3538 17.9086 43.7315 16.7511 42.7811 15.9911ZM9.43475 12.2257H39.6093L40.7317 15.1248C40.562 15.1032 40.3949 15.0728 40.2197 15.0728H8.40526C8.33726 15.0728 8.27325 15.0896 8.20604 15.0928L9.43475 12.2257ZM12.7586 31.1384C12.7586 32.0504 12.0186 32.7927 11.1099 32.7927H9.40674C8.49718 32.7927 7.75804 32.0504 7.75804 31.1384V29.1913C7.97082 29.2249 8.18447 29.2569 8.40604 29.2569H12.7594V31.1384H12.7586ZM41.5187 31.1384C41.5187 32.0504 40.7787 32.7927 39.87 32.7927H38.1669C37.2573 32.7927 36.5182 32.0504 36.5182 31.1384V29.2569H40.2204C40.6771 29.2569 41.1083 29.1641 41.5195 29.0265V31.1384H41.5187ZM42.7555 25.1091C42.7555 26.5122 41.618 27.6537 40.2188 27.6537H8.40526C7.0069 27.6537 5.86855 26.5122 5.86855 25.1091V19.2206C5.86855 17.8174 7.0069 16.6759 8.40526 16.6759H40.2196C41.618 16.6759 42.7563 17.8174 42.7563 19.2206V25.1091H42.7555ZM15.3921 24.2787H33.8176V17.6703H15.3921V24.2787ZM16.9896 19.2733H32.22V22.6755H16.9896V19.2733ZM11.1722 2.73341C11.2402 2.08863 11.7778 1.60306 12.4234 1.60306H37.0998C37.7453 1.60306 38.2837 2.08863 38.3508 2.73263L39.0213 9.10353L40.6108 8.93553L39.9404 2.56463C39.7868 1.10227 38.5653 0 37.0998 0H12.4234C10.9578 0 9.7371 1.10235 9.58275 2.56463L8.91239 8.93553L10.502 9.10353L11.1722 2.73341ZM46.6482 6.78039H43.3027C42.2812 6.78039 41.4508 7.61396 41.4508 8.63788V10.025C41.4508 11.0497 42.282 11.8833 43.3027 11.8833H46.6482C47.6696 11.8833 48.5 11.0497 48.5 10.025V8.63788C48.5 7.61396 47.6696 6.78039 46.6482 6.78039ZM46.9016 10.025C46.9016 10.1658 46.7881 10.2802 46.6482 10.2802H43.3027C43.1619 10.2802 43.0483 10.1659 43.0483 10.025V8.63788C43.0483 8.4971 43.1619 8.38353 43.3027 8.38353H46.6482C46.7881 8.38353 46.9016 8.49788 46.9016 8.63788V10.025ZM7.54925 10.025V8.63788C7.54925 7.61396 6.7189 6.78039 5.69733 6.78039H2.35192C1.33114 6.78039 0.5 7.61396 0.5 8.63788V10.025C0.5 11.0497 1.33114 11.8833 2.35192 11.8833H5.69733C6.7189 11.8833 7.54925 11.0497 7.54925 10.025ZM2.09749 10.025V8.63788C2.09749 8.4971 2.21114 8.38353 2.35192 8.38353H5.69733C5.83733 8.38353 5.95177 8.49788 5.95177 8.63788V10.025C5.95177 10.1658 5.83812 10.2802 5.69733 10.2802H2.35192C2.21192 10.2802 2.09749 10.1658 2.09749 10.025Z" fill="#EB7605"></path>
  </symbol>
	<symbol fill="none" xmlns="http://www.w3.org/2000/svg" viewBox="0 0 24 24" id="speaker">
    <g clip-path="url(#clip0_878_6132)">
      <path d="M23.5376 1.61796C23.5376 1.02224 23.1243 0.539307 22.6145 0.539307C22.1047 0.539307 21.6914 1.02224 21.6914 1.61796V19.4157C21.6914 20.0114 22.1047 20.4944 22.6145 20.4944C23.1243 20.4944 23.5376 20.0114 23.5376 19.4157V1.61796Z" stroke="black" stroke-width="1.5" stroke-linecap="round" stroke-linejoin="round"></path>
      <path fill-rule="evenodd" clip-rule="evenodd" d="M12.4609 6.54722C12.4609 6.54722 18.0364 6.54722 21.6917 1.09155V19.9551C17.9844 14.5592 12.4609 14.5592 12.4609 14.5592V6.54722Z" stroke="black" stroke-width="1.5" stroke-linecap="round" stroke-linejoin="round"></path>
      <path d="M11.7689 5.66284H3.92278C3.54043 5.66284 3.23047 6.02504 3.23047 6.47183V14.5617C3.23047 15.0085 3.54043 15.3707 3.92278 15.3707H11.7689C12.1513 15.3707 12.4612 15.0085 12.4612 14.5617V6.47183C12.4612 6.02504 12.1513 5.66284 11.7689 5.66284Z" stroke="black" stroke-width="1.5" stroke-linecap="round" stroke-linejoin="round"></path>
      <path d="M2.76863 13.7527H1.61478C0.977532 13.7527 0.460938 13.1496 0.460938 12.4038V8.62961C0.460938 7.88466 0.978829 7.28076 1.61478 7.28076H2.76863" stroke="black" stroke-width="1.5" stroke-linecap="round" stroke-linejoin="round"></path>
      <path d="M5.19141 8.08984H10.4991" stroke="black" stroke-width="1.5" stroke-linecap="round" stroke-linejoin="round"></path>
      <path fill-rule="evenodd" clip-rule="evenodd" d="M7.38251 15.3708H4.61328V22.3823C4.61328 22.9789 5.02613 23.4607 5.5354 23.4607H7.94199C8.38698 23.4607 8.89687 22.7407 8.43202 22.1124C8.43202 22.1124 7.38251 20.6614 7.38251 20.1765C7.38251 19.3713 7.38251 15.3708 7.38251 15.3708Z" stroke="black" stroke-width="1.5" stroke-linecap="round" stroke-linejoin="round"></path>
    </g>
    <defs>
      <clipPath id="clip0_878_6132">
        <rect width="24" height="24" fill="white"></rect>
      </clipPath>
    </defs>
  </symbol>
	<symbol fill="none" xmlns="http://www.w3.org/2000/svg" viewBox="0 0 21 20" id="multimedia">
    <path fill-rule="evenodd" clip-rule="evenodd" d="M19.4615 1H1V18.8723H19.4615V1Z" stroke="black" stroke-width="1.5" stroke-linecap="round" stroke-linejoin="round"></path>
    <path fill-rule="evenodd" clip-rule="evenodd" d="M9.31494 18.7413L3.67188 12.2254L12.5951 3.42212L19.4621 11.3512V18.7413H9.31494Z" stroke="black" stroke-width="1.5" stroke-linecap="round" stroke-linejoin="round"></path>
    <path fill-rule="evenodd" clip-rule="evenodd" d="M9.41263 18.8487L1 9.14111L1 18.8487H9.41263Z" stroke="black" stroke-width="1.5" stroke-linecap="round" stroke-linejoin="round"></path>
    <path fill-rule="evenodd" clip-rule="evenodd" d="M4.92368 6.87242C4.15898 6.87242 3.53906 6.18656 3.53906 5.34051C3.53906 4.49446 4.15898 3.80859 4.92368 3.80859C5.68838 3.80859 6.30829 4.49446 6.30829 5.34051C6.30829 6.18656 5.68838 6.87242 4.92368 6.87242Z" stroke="black" stroke-width="1.5" stroke-linecap="round" stroke-linejoin="round"></path>
  </symbol>
	<symbol fill="none" xmlns="http://www.w3.org/2000/svg" viewBox="0 0 54 36" id="handshake">
    <path d="M53.2006 12.3976L47.8209 2.09529C47.5001 1.48749 46.9547 1.02896 46.3008 0.817342C45.6469 0.605728 44.9362 0.657753 44.3201 0.962337L39.0427 3.6009H35.0633L27.6731 0.25706C27.1022 -0.000847897 26.458 -0.0464159 25.8564 0.128564L14.8801 3.32852L9.67855 0.727885C9.06243 0.423409 8.35181 0.37143 7.69795 0.583013C7.04409 0.794596 6.49863 1.25303 6.17769 1.86073L0.798024 12.1632C0.636707 12.4722 0.538548 12.8103 0.509274 13.1576C0.48 13.505 0.520196 13.8547 0.627519 14.1864C0.734841 14.518 0.90714 14.825 1.13436 15.0893C1.36158 15.3537 1.63918 15.5701 1.95095 15.726L7.27966 18.3904L19.1675 27.686C19.4568 27.9131 19.7909 28.0763 20.1478 28.165L32.8259 31.3345C33.0321 31.3859 33.2439 31.4119 33.4565 31.4118C34.1543 31.4121 34.8238 31.1361 35.3186 30.6441L43.368 22.5947C43.3842 22.5785 43.3996 22.5618 43.4145 22.5445L46.7994 18.5846L52.0477 15.9605C52.3594 15.8046 52.637 15.5881 52.8643 15.3237C53.0915 15.0594 53.2638 14.7524 53.3711 14.4208C53.4784 14.0891 53.5186 13.7394 53.4894 13.392C53.4601 13.0447 53.3619 12.7066 53.2006 12.3976L53.2006 12.3976ZM42.6098 20.7925L33.6389 14.2683C33.4876 14.1582 33.305 14.0996 33.1178 14.101C32.9307 14.1023 32.749 14.1636 32.5992 14.2759L29.7993 16.3759C28.737 17.1662 27.4483 17.5931 26.1243 17.5931C24.8003 17.5931 23.5116 17.1662 22.4494 16.3759L21.2635 15.4866C21.1633 15.4114 21.0803 15.3155 21.0203 15.2054C20.9603 15.0954 20.9247 14.9737 20.9158 14.8487C20.9069 14.7236 20.9249 14.5982 20.9688 14.4807C21.0126 14.3633 21.0811 14.2566 21.1698 14.168L29.7305 5.60725C29.8949 5.44372 30.1172 5.35161 30.3491 5.3509H34.8719L34.8739 5.35112L34.8769 5.3509H38.7191L45.2 17.7623L42.6098 20.7925ZM2.29253 13.6476C2.25637 13.5371 2.24277 13.4205 2.25253 13.3046C2.26229 13.1888 2.29522 13.0761 2.34935 12.9732L7.72902 2.67068C7.80377 2.52889 7.91587 2.41025 8.05319 2.32759C8.19051 2.24492 8.34782 2.20138 8.50811 2.20168C8.6427 2.20156 8.77547 2.23287 8.89583 2.29312L13.5616 4.62588L7.37163 16.4798L2.73366 14.1608C2.62952 14.1092 2.53681 14.0371 2.46103 13.949C2.38526 13.8608 2.32796 13.7583 2.29253 13.6476ZM34.0813 29.4066C33.9743 29.5132 33.8415 29.5903 33.6959 29.6306C33.5503 29.6709 33.3968 29.673 33.2501 29.6366L20.572 26.4671C20.4531 26.4376 20.3418 26.3832 20.2454 26.3075L8.86209 17.4064L15.3297 5.0203L26.3461 1.80872C26.5466 1.75023 26.7614 1.76539 26.9517 1.85144L30.8179 3.60091H30.3491C30.0043 3.59996 29.6627 3.66743 29.3441 3.7994C29.0256 3.93137 28.7363 4.12522 28.4932 4.36974L19.9325 12.9305C19.6665 13.1964 19.4608 13.5163 19.3292 13.8687C19.1977 14.221 19.1434 14.5975 19.17 14.9727C19.1967 15.3478 19.3036 15.7129 19.4836 16.0431C19.6636 16.3733 19.9125 16.661 20.2134 16.8867L21.3992 17.776C22.765 18.7921 24.422 19.3408 26.1243 19.3408C27.8266 19.3408 29.4836 18.7921 30.8494 17.776L33.1322 16.0637L41.4066 22.0813L34.0813 29.4066ZM51.7061 13.882C51.6707 13.9928 51.6134 14.0952 51.5376 14.1834C51.4618 14.2716 51.3691 14.3436 51.265 14.3953L46.627 16.7143L40.4371 4.86032L45.1028 2.52755C45.3081 2.42596 45.545 2.40859 45.763 2.47914C45.981 2.5497 46.1628 2.70259 46.2696 2.90524L51.6493 13.2075C51.7034 13.3104 51.7363 13.4232 51.7461 13.539C51.7559 13.6549 51.7423 13.7715 51.7061 13.882V13.882ZM24.3483 35.313C24.3205 35.4246 24.271 35.5295 24.2026 35.6219C24.1343 35.7143 24.0483 35.7923 23.9498 35.8515C23.8512 35.9106 23.742 35.9498 23.6283 35.9666C23.5146 35.9835 23.3987 35.9778 23.2872 35.9498L16.6941 34.3017C16.2929 34.2009 15.921 34.0071 15.6085 33.7361L10.6753 29.4478C10.5883 29.3725 10.5169 29.2808 10.4654 29.1779C10.4139 29.075 10.3831 28.963 10.375 28.8482C10.3668 28.7334 10.3813 28.6181 10.4178 28.509C10.4542 28.3998 10.5119 28.2989 10.5874 28.212C10.6629 28.1252 10.7547 28.0541 10.8578 28.0028C10.9608 27.9515 11.0729 27.9211 11.1877 27.9132C11.3025 27.9053 11.4178 27.9201 11.5268 27.9569C11.6359 27.9936 11.7367 28.0515 11.8233 28.1272L16.7567 32.4155C16.8611 32.5058 16.9852 32.5704 17.119 32.6041L23.7114 34.252C23.9366 34.3083 24.1301 34.4517 24.2495 34.6507C24.369 34.8496 24.4045 35.0879 24.3483 35.313Z" fill="#EB7605"></path>
  </symbol>
	<symbol fill="none" xmlns="http://www.w3.org/2000/svg" viewBox="0 0 48 48" id="partners">
    <g clip-path="url(#clip0_942_18243)">
      <path d="M9.69466 13.643C11.8297 13.643 14.2627 10.486 14.2627 7.71701C14.3032 7.09822 14.2142 6.47778 14.0015 5.89533C13.7887 5.31287 13.4567 4.7812 13.0268 4.33428C12.597 3.88736 12.0786 3.53502 11.5048 3.29977C10.9311 3.06451 10.3146 2.95152 9.69466 2.96801C9.07481 2.95167 8.45837 3.06477 7.88468 3.30008C7.311 3.53538 6.79269 3.88773 6.36283 4.33461C5.93298 4.7815 5.60103 5.31311 5.38818 5.8955C5.17534 6.47789 5.08627 7.09826 5.12666 7.71701C5.12666 10.486 7.56066 13.643 9.69466 13.643ZM9.69466 4.46801C10.1178 4.45099 10.5396 4.52487 10.9318 4.68466C11.3239 4.84445 11.6773 5.08644 11.968 5.39432C12.2588 5.70221 12.4801 6.06884 12.6172 6.4695C12.7543 6.87016 12.8039 7.29556 12.7627 7.71701C12.7627 9.86701 10.7627 12.143 9.69466 12.143C8.62666 12.143 6.62666 9.86701 6.62666 7.71701C6.58545 7.29556 6.63505 6.87016 6.77212 6.4695C6.90919 6.06884 7.13055 5.70221 7.42129 5.39432C7.71202 5.08644 8.06537 4.84445 8.45753 4.68466C8.84969 4.52487 9.27154 4.45099 9.69466 4.46801Z" fill="#EB7605"></path>
      <path d="M9.69922 29.546C9.50031 29.546 9.30954 29.625 9.16889 29.7657C9.02824 29.9063 8.94922 30.0971 8.94922 30.296V42.529C8.94922 42.7279 9.02824 42.9187 9.16889 43.0594C9.30954 43.2 9.50031 43.279 9.69922 43.279C9.89813 43.279 10.0889 43.2 10.2295 43.0594C10.3702 42.9187 10.4492 42.7279 10.4492 42.529V30.3C10.4497 30.2012 10.4307 30.1032 10.3933 30.0118C10.3558 29.9203 10.3007 29.8372 10.231 29.7671C10.1613 29.697 10.0784 29.6414 9.98716 29.6035C9.8959 29.5655 9.79805 29.546 9.69922 29.546Z" fill="#EB7605"></path>
      <path d="M17.867 31.166C18.3293 30.9215 18.716 30.5554 18.9856 30.1073C19.2553 29.6592 19.3975 29.146 19.397 28.623V16.507C19.3973 16.3638 19.3565 16.2235 19.2794 16.1027C19.2023 15.982 19.0921 15.886 18.962 15.826L13.209 13.172C13.1059 13.124 12.9932 13.1002 12.8795 13.1024C12.7658 13.1047 12.6541 13.1329 12.553 13.185L9.694 14.648L6.846 13.186C6.74484 13.1331 6.6328 13.1043 6.51864 13.1019C6.40449 13.0994 6.29133 13.1234 6.188 13.172L0.436002 15.826C0.305786 15.8859 0.195491 15.9819 0.118208 16.1026C0.0409247 16.2233 -0.000100494 16.3637 1.95525e-06 16.507V28.623C-0.000607916 29.1458 0.141465 29.6588 0.410905 30.1067C0.680345 30.5547 1.06693 30.9206 1.529 31.165L3.521 32.222C3.56815 32.2395 3.61713 32.2516 3.667 32.258V42.529C3.667 42.7279 3.74602 42.9187 3.88667 43.0594C4.02732 43.2 4.21809 43.279 4.417 43.279C4.61591 43.279 4.80668 43.2 4.94733 43.0594C5.08798 42.9187 5.167 42.7279 5.167 42.529V20.03C5.167 19.8311 5.08798 19.6404 4.94733 19.4997C4.80668 19.359 4.61591 19.28 4.417 19.28C4.21809 19.28 4.02732 19.359 3.88667 19.4997C3.74602 19.6404 3.667 19.8311 3.667 20.03V30.6L2.232 29.839C2.01101 29.722 1.82609 29.5469 1.69712 29.3327C1.56815 29.1184 1.5 28.8731 1.5 28.623V16.986L6.181 14.827L9.036 20.037C9.10081 20.1548 9.19606 20.2531 9.31181 20.3215C9.42755 20.3899 9.55954 20.426 9.694 20.426C9.82846 20.426 9.96045 20.3899 10.0762 20.3215C10.1919 20.2531 10.2872 20.1548 10.352 20.037L13.215 14.825L17.897 16.985V28.623C17.8972 28.8735 17.829 29.1193 17.6998 29.3339C17.5707 29.5486 17.3854 29.7239 17.164 29.841L15.729 30.602V20.03C15.729 19.8311 15.65 19.6404 15.5093 19.4997C15.3687 19.359 15.1779 19.28 14.979 19.28C14.7801 19.28 14.5893 19.359 14.4487 19.4997C14.308 19.6404 14.229 19.8311 14.229 20.03V42.53C14.229 42.7289 14.308 42.9197 14.4487 43.0604C14.5893 43.201 14.7801 43.28 14.979 43.28C15.1779 43.28 15.3687 43.201 15.5093 43.0604C15.65 42.9197 15.729 42.7289 15.729 42.53V32.265C15.7798 32.2562 15.8294 32.2418 15.877 32.222L17.867 31.166ZM9.7 18.117L8.341 15.637L9.357 16.158C9.4627 16.2127 9.57998 16.2413 9.699 16.2413C9.81802 16.2413 9.9353 16.2127 10.041 16.158L11.064 15.634L9.7 18.117Z" fill="#EB7605"></path>
      <path d="M38.2995 13.643C40.4345 13.643 42.8675 10.486 42.8675 7.71699C42.8898 7.10318 42.7881 6.49118 42.5685 5.91755C42.349 5.34392 42.0161 4.82041 41.5897 4.3783C41.1634 3.9362 40.6522 3.58455 40.0869 3.34437C39.5216 3.10419 38.9137 2.98041 38.2995 2.98041C37.6853 2.98041 37.0774 3.10419 36.5121 3.34437C35.9468 3.58455 35.4357 3.9362 35.0093 4.3783C34.5829 4.82041 34.25 5.34392 34.0305 5.91755C33.811 6.49118 33.7093 7.10318 33.7315 7.71699C33.7285 10.486 36.1615 13.643 38.2995 13.643ZM38.2995 4.46799C38.7226 4.45097 39.1445 4.52485 39.5366 4.68464C39.9288 4.84443 40.2822 5.08642 40.5729 5.3943C40.8636 5.70219 41.085 6.06882 41.2221 6.46948C41.3591 6.87015 41.4087 7.29554 41.3675 7.71699C41.3675 9.86699 39.3675 12.143 38.2995 12.143C37.2315 12.143 35.2315 9.86699 35.2315 7.71699C35.1903 7.29554 35.2399 6.87015 35.377 6.46948C35.514 6.06882 35.7354 5.70219 36.0261 5.3943C36.3169 5.08642 36.6702 4.84443 37.0624 4.68464C37.4545 4.52485 37.8764 4.45097 38.2995 4.46799Z" fill="#EB7605"></path>
      <path d="M38.3008 29.546C38.1019 29.546 37.9111 29.625 37.7705 29.7657C37.6298 29.9063 37.5508 30.0971 37.5508 30.296V42.529C37.5508 42.7279 37.6298 42.9187 37.7705 43.0594C37.9111 43.2 38.1019 43.279 38.3008 43.279C38.4997 43.279 38.6905 43.2 38.8311 43.0594C38.9718 42.9187 39.0508 42.7279 39.0508 42.529V30.3C39.0513 30.2012 39.0323 30.1032 38.9948 30.0118C38.9574 29.9203 38.9022 29.8372 38.8325 29.7671C38.7628 29.697 38.68 29.6414 38.5887 29.6035C38.4975 29.5655 38.3996 29.546 38.3008 29.546Z" fill="#EB7605"></path>
      <path d="M47.5635 15.826L41.8115 13.172C41.7082 13.1239 41.5953 13.1001 41.4815 13.1024C41.3676 13.1046 41.2557 13.1329 41.1545 13.185L38.2995 14.648L35.4505 13.186C35.3495 13.133 35.2376 13.1042 35.1236 13.1017C35.0096 13.0993 34.8966 13.1234 34.7935 13.172L29.0405 15.826C28.9104 15.886 28.8002 15.982 28.7231 16.1027C28.646 16.2234 28.6052 16.3638 28.6055 16.507V28.623C28.6048 29.1459 28.747 29.659 29.0167 30.107C29.2863 30.5549 29.6731 30.9208 30.1355 31.165L32.1255 32.222C32.1732 32.2416 32.2228 32.2564 32.2735 32.266V42.529C32.2735 42.7279 32.3525 42.9187 32.4931 43.0593C32.6338 43.2 32.8246 43.279 33.0235 43.279C33.2224 43.279 33.4131 43.2 33.5538 43.0593C33.6945 42.9187 33.7735 42.7279 33.7735 42.529V20.03C33.7735 19.8311 33.6945 19.6403 33.5538 19.4997C33.4131 19.359 33.2224 19.28 33.0235 19.28C32.8246 19.28 32.6338 19.359 32.4931 19.4997C32.3525 19.6403 32.2735 19.8311 32.2735 20.03V30.6L30.8385 29.838C30.617 29.7212 30.4317 29.5461 30.3025 29.3316C30.1733 29.1171 30.1052 28.8714 30.1055 28.621V16.986L34.7865 14.827L37.6415 20.037C37.7061 20.1548 37.8013 20.2531 37.9169 20.3216C38.0326 20.3901 38.1646 20.4262 38.299 20.4262C38.4334 20.4262 38.5653 20.3901 38.681 20.3216C38.7967 20.2531 38.8918 20.1548 38.9565 20.037L41.8205 14.826L46.4995 16.986V28.623C46.4998 28.8734 46.4319 29.1192 46.3029 29.3338C46.1739 29.5484 45.9888 29.7238 45.7675 29.841L44.3325 30.602V20.03C44.3325 19.8311 44.2535 19.6403 44.1128 19.4997C43.9721 19.359 43.7814 19.28 43.5825 19.28C43.3836 19.28 43.1928 19.359 43.0521 19.4997C42.9115 19.6403 42.8325 19.8311 42.8325 20.03V42.53C42.8325 42.7289 42.9115 42.9197 43.0521 43.0603C43.1928 43.201 43.3836 43.28 43.5825 43.28C43.7814 43.28 43.9721 43.201 44.1128 43.0603C44.2535 42.9197 44.3325 42.7289 44.3325 42.53V32.258C44.3823 32.2516 44.4313 32.2395 44.4785 32.222L46.4705 31.165C46.9325 30.9206 47.3191 30.5546 47.5886 30.1067C47.858 29.6587 48.0001 29.1458 47.9995 28.623V16.507C47.9996 16.3637 47.9585 16.2233 47.8813 16.1026C47.804 15.9819 47.6937 15.8859 47.5635 15.826ZM38.2995 18.117L36.9405 15.637L37.9555 16.158C38.0613 16.2127 38.1788 16.2413 38.298 16.2413C38.4171 16.2413 38.5346 16.2127 38.6405 16.158L39.6635 15.634L38.2995 18.117Z" fill="#EB7605"></path>
      <path d="M29.1928 40.245C29.1236 40.1734 29.0408 40.1163 28.9493 40.077C28.8577 40.0378 28.7593 40.0171 28.6597 40.0163C28.5601 40.0155 28.4614 40.0345 28.3692 40.0723C28.2771 40.11 28.1934 40.1658 28.123 40.2362C28.0526 40.3067 27.9969 40.3904 27.9593 40.4826C27.9216 40.5748 27.9027 40.6736 27.9036 40.7732C27.9045 40.8727 27.9252 40.9712 27.9646 41.0626C28.0039 41.1541 28.0611 41.2369 28.1328 41.306L28.6058 41.779H19.4008L19.8738 41.306C19.9454 41.2369 20.0026 41.1541 20.042 41.0626C20.0813 40.9712 20.1021 40.8727 20.103 40.7732C20.1039 40.6736 20.0849 40.5748 20.0473 40.4826C20.0096 40.3904 19.954 40.3067 19.8836 40.2362C19.8132 40.1658 19.7295 40.11 19.6373 40.0723C19.5452 40.0345 19.4464 40.0155 19.3468 40.0163C19.2472 40.0171 19.1488 40.0378 19.0573 40.077C18.9658 40.1163 18.883 40.1734 18.8138 40.245L17.0558 42C16.9861 42.0697 16.9308 42.1524 16.8931 42.2434C16.8554 42.3344 16.8359 42.432 16.8359 42.5305C16.8359 42.629 16.8554 42.7266 16.8931 42.8176C16.9308 42.9087 16.9861 42.9914 17.0558 43.061L18.8088 44.813C18.951 44.9455 19.139 45.0176 19.3333 45.0142C19.5276 45.0108 19.713 44.932 19.8504 44.7946C19.9878 44.6572 20.0665 44.4718 20.07 44.2775C20.0734 44.0832 20.0013 43.8952 19.8688 43.753L19.3968 43.28H28.6008L28.1288 43.753C28.0551 43.8217 27.996 43.9045 27.955 43.9965C27.914 44.0885 27.892 44.1878 27.8902 44.2885C27.8884 44.3892 27.9069 44.4892 27.9447 44.5826C27.9824 44.676 28.0385 44.7608 28.1097 44.832C28.181 44.9033 28.2658 44.9594 28.3592 44.9971C28.4526 45.0349 28.5526 45.0534 28.6533 45.0516C28.754 45.0498 28.8533 45.0278 28.9453 44.9868C29.0373 44.9458 29.1201 44.8867 29.1888 44.813L30.9418 43.061C31.0115 42.9914 31.0668 42.9087 31.1045 42.8176C31.1422 42.7266 31.1616 42.629 31.1616 42.5305C31.1616 42.432 31.1422 42.3344 31.1045 42.2434C31.0668 42.1524 31.0115 42.0697 30.9418 42L29.1928 40.245Z" fill="#EB7605"></path>
    </g>
    <defs>
      <clipPath id="clip0_942_18243">
        <rect width="48" height="48" fill="white"></rect>
      </clipPath>
    </defs>
  </symbol>
	<symbol fill="none" xmlns="http://www.w3.org/2000/svg" viewBox="0 0 45 36" id="love">
    <path d="M20.8318 14.5481C23.4493 16.7765 26.0263 18.2981 26.1347 18.3618C26.2671 18.4394 26.4191 18.4805 26.5726 18.4805C26.7262 18.4805 26.8771 18.4394 27.0096 18.3618C27.118 18.2981 29.6949 16.7766 32.3125 14.5481C35.9515 11.4502 37.7966 8.5953 37.7966 6.06255C37.7966 2.71958 35.0769 0 31.7341 0C29.5702 0 27.646 1.14108 26.5721 2.88131C25.4983 1.14108 23.574 0 21.4102 0C18.0672 0 15.3477 2.71967 15.3477 6.06255C15.3477 8.59521 17.1927 11.4501 20.8318 14.5481ZM21.4102 1.72528C23.6059 1.72528 25.4567 3.36738 25.7154 5.54486C25.7669 5.97893 26.135 6.30575 26.5721 6.30575C27.0093 6.30575 27.3773 5.97885 27.4288 5.54486C27.6876 3.36738 29.5384 1.72528 31.7341 1.72528C34.1256 1.72528 36.0711 3.67099 36.0711 6.06238C36.0711 9.93928 29.5846 14.7508 26.5721 16.6105C23.5595 14.7507 17.0731 9.93928 17.0731 6.06238C17.0731 3.67082 19.0187 1.72528 21.4102 1.72528Z" fill="#EB7605"></path>
    <path d="M26.5705 14.3711C26.7393 14.3711 26.9097 14.3218 27.0592 14.2188C28.1816 13.4455 29.2188 12.6524 30.1423 11.8617C30.4724 11.5789 30.7905 11.2937 31.088 11.0141C31.435 10.6877 31.4518 10.1417 31.1254 9.79462C30.799 9.44761 30.2531 9.43076 29.9059 9.75715C29.6279 10.0186 29.3298 10.2858 29.0199 10.551C28.1422 11.3028 27.1532 12.0588 26.0804 12.7978C25.688 13.0682 25.5891 13.6053 25.8593 13.9977C26.0267 14.2407 26.2963 14.3711 26.5705 14.3711Z" fill="#EB7605"></path>
    <path d="M32.1514 8.68429C32.3016 8.78871 32.4733 8.83881 32.6433 8.83881C32.9161 8.83881 33.1846 8.70964 33.3523 8.46859C33.3741 8.43739 33.3954 8.4062 33.4163 8.37535C33.6834 7.98072 33.5799 7.44439 33.1853 7.17729C32.7907 6.91037 32.2545 7.01375 31.9873 7.40829C31.9705 7.43313 31.9532 7.45814 31.9357 7.48332C31.6637 7.87459 31.7603 8.41221 32.1514 8.68429Z" fill="#EB7605"></path>
    <path d="M44.0173 22.869C43.039 21.1743 40.926 20.5763 39.2048 21.5062L33.1228 24.7143C33.1199 24.7159 33.1171 24.7174 33.1142 24.7189C32.3435 25.1367 31.4842 25.3799 30.6101 25.43C30.8663 24.9598 31.0119 24.421 31.0119 23.8489C31.0119 22.0204 29.5242 20.5327 27.6957 20.5327H22.7554C19.4128 20.5327 16.5597 21.6473 14.5885 23.66V22.5852C14.5885 21.5736 13.7657 20.7507 12.7542 20.7507H1.36273C0.886289 20.7506 0.5 21.1369 0.5 21.6133V34.6877C0.5 35.1641 0.886289 35.5505 1.36273 35.5505L12.7542 35.5616C13.7657 35.5616 14.5885 34.7388 14.5885 33.7273V32.8712L18.0934 33.7855C19.0048 34.0234 19.9448 34.1439 20.8872 34.1439H28.8178C30.0921 34.1439 31.3581 33.8232 32.4735 33.2195L42.6197 27.8172C43.4784 27.3518 44.0975 26.5779 44.363 25.6381C44.6284 24.6983 44.5056 23.7148 44.0173 22.869ZM7.79825 33.8249H2.22545V22.4759H7.79825V33.8249ZM12.8631 26.2367C12.8597 26.2825 12.8591 26.3284 12.8631 26.3741V31.7545V33.7272C12.8631 33.7872 12.8142 33.8361 12.7542 33.8361H9.52361V22.4759H12.7542C12.8142 22.4759 12.8631 22.5247 12.8631 22.5849V26.2367ZM42.7025 25.1691C42.5646 25.657 42.2433 26.0588 41.8031 26.2972L31.6573 31.6994C30.7882 32.1698 29.8062 32.4185 28.8178 32.4185H20.8872C20.0918 32.4185 19.2984 32.3166 18.529 32.1159L14.5885 31.088V26.5138C16.1104 23.8058 19.0732 22.2577 22.7554 22.2577H27.6957C28.573 22.2577 29.2865 22.9713 29.2865 23.8485C29.2865 24.7258 28.573 25.4394 27.6957 25.4394H21.8043C21.328 25.4394 20.9416 25.8257 20.9416 26.3021C20.9416 26.7785 21.3279 27.1649 21.8043 27.1649H27.6957H30.2718C31.546 27.1649 32.8114 26.8444 33.932 26.2379L40.014 23.0298C40.0169 23.0283 40.0198 23.0268 40.0226 23.0252C40.9167 22.5406 42.0149 22.851 42.5231 23.7315C42.7765 24.1707 42.8402 24.6813 42.7025 25.1691Z" fill="#EB7605"></path>
  </symbol>
	<symbol fill="none" xmlns="http://www.w3.org/2000/svg" viewBox="0 0 48 48" id="45">
    <circle cx="23.5" cy="24" r="21" stroke="#EB7605" stroke-width="1.5"></circle>
    <path d="M20.5083 28V22.442C20.5083 22.19 20.5176 21.882 20.5363 21.518C20.5549 21.154 20.5689 20.846 20.5783 20.594H20.5223C20.4103 20.818 20.2936 21.0467 20.1723 21.28C20.0509 21.504 19.9249 21.7373 19.7943 21.98L18.1703 24.458H23.1403V25.704H16.5743V24.612L20.1023 19.096H22.0203V28H20.5083ZM26.874 28.168C26.3887 28.168 25.9593 28.112 25.586 28C25.2127 27.888 24.8813 27.7387 24.592 27.552C24.3027 27.356 24.0507 27.1507 23.836 26.936L24.578 25.9C24.8487 26.152 25.152 26.376 25.488 26.572C25.824 26.7587 26.216 26.852 26.664 26.852C27 26.852 27.294 26.7867 27.546 26.656C27.8073 26.516 28.0127 26.32 28.162 26.068C28.3113 25.8067 28.386 25.4987 28.386 25.144C28.386 24.612 28.232 24.2013 27.924 23.912C27.6253 23.6227 27.2333 23.478 26.748 23.478C26.468 23.478 26.2253 23.52 26.02 23.604C25.824 23.6787 25.5907 23.8047 25.32 23.982L24.55 23.492L24.816 19.096H29.576V20.454H26.216L26.034 22.61C26.2207 22.5167 26.4027 22.4467 26.58 22.4C26.7667 22.344 26.9767 22.316 27.21 22.316C27.714 22.316 28.176 22.4187 28.596 22.624C29.0253 22.82 29.366 23.1233 29.618 23.534C29.8793 23.9447 30.01 24.4673 30.01 25.102C30.01 25.7553 29.8607 26.3107 29.562 26.768C29.2727 27.2253 28.89 27.5753 28.414 27.818C27.938 28.0513 27.4247 28.168 26.874 28.168Z" fill="#EB7605"></path>
  </symbol>
	<symbol fill="none" xmlns="http://www.w3.org/2000/svg" viewBox="0 0 49 48" id="15">
    <circle cx="24.8281" cy="24" r="21" stroke="#EB7605" stroke-width="1.5"></circle>
    <path d="M18.0223 28V26.684H20.0103V20.832H18.3723V19.824C18.811 19.74 19.1937 19.642 19.5203 19.53C19.847 19.4087 20.1503 19.264 20.4303 19.096H21.6343V26.684H23.3843V28H18.0223ZM27.5381 28.168C27.0527 28.168 26.6234 28.112 26.2501 28C25.8767 27.888 25.5454 27.7387 25.2561 27.552C24.9667 27.356 24.7147 27.1507 24.5001 26.936L25.2421 25.9C25.5127 26.152 25.8161 26.376 26.1521 26.572C26.4881 26.7587 26.8801 26.852 27.3281 26.852C27.6641 26.852 27.9581 26.7867 28.2101 26.656C28.4714 26.516 28.6767 26.32 28.8261 26.068C28.9754 25.8067 29.0501 25.4987 29.0501 25.144C29.0501 24.612 28.8961 24.2013 28.5881 23.912C28.2894 23.6227 27.8974 23.478 27.4121 23.478C27.1321 23.478 26.8894 23.52 26.6841 23.604C26.4881 23.6787 26.2547 23.8047 25.9841 23.982L25.2141 23.492L25.4801 19.096H30.2401V20.454H26.8801L26.6981 22.61C26.8847 22.5167 27.0667 22.4467 27.2441 22.4C27.4307 22.344 27.6407 22.316 27.8741 22.316C28.3781 22.316 28.8401 22.4187 29.2601 22.624C29.6894 22.82 30.0301 23.1233 30.2821 23.534C30.5434 23.9447 30.6741 24.4673 30.6741 25.102C30.6741 25.7553 30.5247 26.3107 30.2261 26.768C29.9367 27.2253 29.5541 27.5753 29.0781 27.818C28.6021 28.0513 28.0887 28.168 27.5381 28.168Z" fill="#EB7605"></path>
  </symbol>
	<symbol fill="none" xmlns="http://www.w3.org/2000/svg" viewBox="0 0 49 48" id="drink">
    <path d="M34.5176 18.788C35.7612 19.1137 37.0735 19.0632 38.2885 18.643C39.5035 18.2229 40.5666 17.4518 41.3434 16.4275C42.1201 15.4031 42.5757 14.1714 42.6525 12.8881C42.7292 11.6048 42.4237 10.3276 41.7746 9.21794C41.1255 8.10828 40.1619 7.21603 39.0056 6.65402C37.8494 6.09201 36.5525 5.88548 35.2789 6.06055C34.0053 6.23562 32.8122 6.78443 31.8505 7.63757C30.8888 8.49071 30.2017 9.60987 29.876 10.8535" stroke="#EB7605" stroke-width="1.5" stroke-linecap="round"></path>
    <path d="M21.6641 28.0048L8.66406 13.049H21.6641H34.6641L21.6641 28.0048ZM21.6641 28.0048V45M21.6641 45H14.1377M21.6641 45H29.1904M24.7841 19.481L10.2241 3" stroke="#EB7605" stroke-width="1.5" stroke-linecap="round" stroke-linejoin="round"></path>
  </symbol>
	<symbol fill="none" xmlns="http://www.w3.org/2000/svg" viewBox="0 0 41 40" id="10">
    <circle cx="20" cy="20" r="19" stroke="#EB7605" stroke-width="2"></circle>
    <path d="M12.7188 26H10.5234V17.7266C9.72135 18.4766 8.77604 19.0312 7.6875 19.3906V17.3984C8.26042 17.2109 8.88281 16.8568 9.55469 16.3359C10.2266 15.8099 10.6875 15.1979 10.9375 14.5H12.7188V26ZM19.7188 14.5C20.8281 14.5 21.6953 14.8958 22.3203 15.6875C23.0651 16.625 23.4375 18.1797 23.4375 20.3516C23.4375 22.5182 23.0625 24.0755 22.3125 25.0234C21.6927 25.8047 20.8281 26.1953 19.7188 26.1953C18.6042 26.1953 17.7057 25.7682 17.0234 24.9141C16.3411 24.0547 16 22.526 16 20.3281C16 18.1719 16.375 16.6198 17.125 15.6719C17.7448 14.8906 18.6094 14.5 19.7188 14.5ZM19.7188 16.3203C19.4531 16.3203 19.2161 16.4062 19.0078 16.5781C18.7995 16.7448 18.638 17.0469 18.5234 17.4844C18.3724 18.0521 18.2969 19.0078 18.2969 20.3516C18.2969 21.6953 18.3646 22.6198 18.5 23.125C18.6354 23.625 18.8047 23.9583 19.0078 24.125C19.2161 24.2917 19.4531 24.375 19.7188 24.375C19.9844 24.375 20.2214 24.2917 20.4297 24.125C20.638 23.9531 20.7995 23.6484 20.9141 23.2109C21.0651 22.6484 21.1406 21.6953 21.1406 20.3516C21.1406 19.0078 21.0729 18.0859 20.9375 17.5859C20.8021 17.0807 20.6302 16.7448 20.4219 16.5781C20.2188 16.4062 19.9844 16.3203 19.7188 16.3203ZM27.8984 24.3516V21.375H24.8984V19.3203H27.8984V16.3438H29.8984V19.3203H32.9062V21.375H29.8984V24.3516H27.8984Z" fill="#EB7605"></path>
  </symbol>
  <symbol fill="none" xmlns="http://www.w3.org/2000/svg" viewBox="0 0 48 48" id="light-man">
    <path d="M41.48 6L35 13.8214M41.48 36L35 28.2907M45 21H36.9544" stroke="#EB7605" stroke-width="1.5" stroke-linecap="round" stroke-linejoin="round"></path>
    <path d="M5.51995 6L12 13.8214M5.51995 36L12 28.2907M2 21H10.0456" stroke="#EB7605" stroke-width="1.5" stroke-linecap="round" stroke-linejoin="round"></path>
    <path d="M19 45V17M28 17V29.3321V45M23.3977 45V29.3321" stroke="#EB7605" stroke-width="1.5" stroke-linecap="round" stroke-linejoin="round"></path>
    <path d="M27.75 29V29C30.0972 29 32 27.0972 32 24.75V19C32 15.6863 29.3137 13 26 13H21C17.6863 13 15 15.6863 15 19V24.75C15 27.0972 16.9028 29 19.25 29V29" stroke="#EB7605" stroke-width="1.5"></path>
    <rect x="20" y="4" width="7" height="7" rx="3.5" stroke="#EB7605" stroke-width="1.5"></rect>
  </symbol>
  <symbol fill="none" xmlns="http://www.w3.org/2000/svg" viewBox="0 0 48 48" id="people-love">
    <g clip-path="url(#clip0_2454_33115)">
      <path d="M12.0549 33.0912L13.2498 30.9191C13.2924 30.8417 13.3133 30.7543 13.3049 30.6664C13.2415 30.0031 12.9699 28.6827 13.8927 28.7506C15.4719 28.8668 18.0244 29.6433 18.1767 28.1516C18.1791 28.1276 18.179 28.1023 18.1771 28.0783L17.9896 25.6535C17.9807 25.5383 18.0137 25.4237 18.0824 25.3308L18.3084 25.0258C18.3729 24.9386 18.37 24.8187 18.3014 24.7347V24.7347C18.1884 24.5966 18.2628 24.388 18.4376 24.3524L18.6092 24.3176C18.7334 24.2923 18.8335 24.2006 18.8695 24.0791L19.1732 23.0538C19.2137 22.9171 19.3127 22.8056 19.4436 22.7492L20.6097 22.247C20.8754 22.1326 20.9803 21.8107 20.8329 21.5617L19.0696 18.582C18.9688 18.4116 18.9843 18.1973 19.085 18.0269C19.3933 17.5052 19.6879 16.713 19.7136 16.3644C19.7355 16.066 19.2393 14.176 18.7123 12.5287C18.5634 12.0635 19.7119 11.1183 20.0349 10.7518V10.7518C20.2142 10.5484 19.9371 10.5112 19.6986 10.3821C18.1766 9.55788 13.0954 6.87846 11.0336 6.69712C1.87492 6.02293 -0.804346 12.6974 1.99896 20.3165C3.48557 24.357 3.67224 26.8153 3.53965 27.911C3.50673 28.1831 3.22229 28.3077 2.9717 28.1966L2.29513 27.8969M2.29513 27.8969L11.0531 32.5309L14.2659 34.3277C14.4176 34.4126 14.5116 34.5728 14.5116 34.7466L14.5116 36.7253C14.5116 37.0664 14.1657 37.2986 13.85 37.1696L1.07653 31.9485C0.82764 31.8467 0.71085 31.5604 0.817576 31.3136L2.29513 27.8969Z" stroke="#EB7605" stroke-width="1.5" stroke-linecap="round"></path>
      <path d="M27.8044 17.9786C26.4262 20.4097 26.444 21.0636 26.7484 23.2268C26.9252 24.4828 24.1045 24.7402 24.4736 25.6672C24.7688 26.4088 25.2999 26.7788 25.5021 27.0583C25.051 27.8669 24.6648 27.5468 24.6648 28.1106C24.6648 28.4574 24.9777 28.8623 24.9777 28.8623C24.9777 28.8623 24.399 29.0527 24.4733 29.2382C24.5476 29.4236 24.7646 29.5432 24.9777 29.9288C25.1077 30.1642 25.1021 31.0855 25.1165 31.8893C25.1346 32.8941 26.7349 32.9216 27.0859 32.8438C27.4369 32.766 29.6891 31.7562 30.9764 32.6599C32.2637 33.5635 34.236 36.8733 33.3752 38.6854C32.6865 40.135 31.9943 41.4335 31.9943 41.4335C31.9943 41.4335 34.5448 39.7535 36.4251 39.4067C39.4061 38.8569 44.026 41.0447 44.026 41.0447C43.2723 38.5577 43.8958 33.8601 44.3037 32.4727C44.8136 30.7384 46.4832 23.788 46.6003 22.5683C47.2565 15.7296 39.224 10.4254 32.3875 13.1804C30.6009 13.9004 23.618 16.3339 25.9523 17.0036C27.8197 17.5394 28.3759 17.2362 29.9249 16.1729C29.0437 16.6015 28.2516 17.1898 27.8044 17.9786Z" stroke="#EB7605" stroke-width="1.5" stroke-linecap="round" stroke-linejoin="round"></path>
      <path d="M30.0212 16.1602C29.3012 17.3602 28.6775 20.0962 30.0215 21.4402C31.7015 23.1202 36.022 21.6802 36.982 24.8002C37.75 27.2962 33.7082 39.4402 32.0282 41.3602" stroke="#EB7605" stroke-width="1.5" stroke-linecap="round" stroke-linejoin="round"></path>
    </g>
    <defs>
      <clipPath id="clip0_2454_33115">
        <rect width="48" height="48" fill="white"></rect>
      </clipPath>
    </defs>
  </symbol>
  <!--      -->
  <symbol fill="none" xmlns="http://www.w3.org/2000/svg" viewBox="0 0 48 48" id="hand-gift">
    <path d="M8.9587 43.471L9.01793 44.2016C9.06123 44.7356 8.67585 45.209 8.14406 45.2748L3.32306 45.8716C2.7579 45.9416 2.2485 45.5262 2.20334 44.9585L1.07935 30.8276C1.03554 30.2767 1.44679 29.7948 1.99766 29.7514L6.81457 29.3719C7.36426 29.3286 7.84528 29.7384 7.88984 30.288L8.04532 32.2056M8.9587 43.471C9.88694 42.7302 12.0158 41.3252 13.1053 41.6318C14.4671 42.015 27.3289 43.471 28.2368 43.471C33.3378 43.471 40.702 35.2762 46.5889 30.8975C46.8467 30.7057 47.0092 30.4043 46.9612 30.0866C46.7801 28.8901 45.9206 27.4761 43.4441 28.7571C41.4419 29.7926 38.7977 31.2962 36.8618 32.4434M8.9587 43.471L8.04532 32.2056M34.8947 33.641C35.3579 33.3459 36.0471 32.9262 36.8618 32.4434M8.04532 32.2056C8.89392 31.6854 10.1252 31.0083 11.4408 30.4148M24.2105 36.114C24.2105 36.114 35.1974 36.5739 35.1974 35.1178C35.1974 32.2823 32.1711 30.5963 29.2961 31.1328C26.4211 31.6692 19.9145 30.5963 17.4178 29.2935C16.1599 28.6372 13.6784 29.4052 11.4408 30.4148M11.4408 30.4148V18.7178M11.4408 18.7178H10.5493C9.99706 18.7178 9.54934 18.2701 9.54934 17.7178V11.3646C9.54934 10.8123 9.99706 10.3646 10.5493 10.3646H21.6546M11.4408 18.7178H24.1513M36.8618 18.7178V32.4434M36.8618 18.7178H37.9046C38.4569 18.7178 38.9046 18.2701 38.9046 17.7178V11.3646C38.9046 10.8123 38.4569 10.3646 37.9046 10.3646H29.2961M36.8618 18.7178H24.1513M24.1513 18.7178V10.3646M24.1513 10.3646H24.7566M24.1513 10.3646H21.6546M29.2961 10.3646C31.2884 10.1347 34.7434 8.9545 32.625 6.07302C30.5066 3.19153 26.4967 7.73345 24.7566 10.3646M29.2961 10.3646H24.7566M24.7566 10.3646C25.8662 7.09482 26.9053 0.647244 22.1842 1.01509C17.4632 1.38294 19.864 7.40136 21.6546 10.3646" stroke="#EB7605" stroke-width="1.5"></path>
  </symbol>
  <symbol fill="none" xmlns="http://www.w3.org/2000/svg" viewBox="0 0 48 48" id="7+">
    <circle cx="24" cy="24" r="22" stroke="#EB7605" stroke-width="1.5"></circle>
    <path d="M19.5623 28C19.6089 27.2067 19.6836 26.4833 19.7863 25.83C19.8983 25.1673 20.0569 24.542 20.2623 23.954C20.4676 23.3567 20.7243 22.778 21.0323 22.218C21.3403 21.6487 21.7183 21.0607 22.1663 20.454H17.9383V19.096H23.9163V20.076C23.3843 20.7293 22.9456 21.35 22.6003 21.938C22.2643 22.526 22.0029 23.1233 21.8163 23.73C21.6296 24.3273 21.4896 24.9713 21.3963 25.662C21.3123 26.3527 21.2469 27.132 21.2003 28H19.5623ZM27.482 26.614V23.968H24.976V22.792H27.482V20.146H28.7V22.792H31.206V23.968H28.7V26.614H27.482Z" fill="#EB7605"></path>
  </symbol>
  <symbol fill="none" xmlns="http://www.w3.org/2000/svg" viewBox="0 0 48 48" id="eye">
    <path d="M7 25C17.4022 33 29.5978 33 40 25" stroke="#EB7605" stroke-width="1.5" stroke-linecap="round"></path>
    <path d="M32.0882 12.084C27.0638 12.084 10.2088 18.5369 6.32849 20.0489C5.86343 20.2301 5.34391 20.0399 5.09778 19.6057L3.52865 16.8375C3.24282 16.3333 3.43297 15.6991 3.95873 15.4551C8.63264 13.2859 29.0303 4.10148 34.6176 6.35238C39.869 8.46794 46 21 46 21C46 21 36.3395 12.084 32.0882 12.084Z" stroke="#EB7605" stroke-width="1.5" stroke-linejoin="round"></path>
    <path d="M9.40273 27C8.84077 28.3327 7.65366 29.4711 6 30.2199M12.3194 28.5714C11.439 30.3026 10.3601 31.5545 8.91663 32.9314M18 30.6667C17.5816 32.7951 16.3318 34.5409 15.236 36.5M20.5 31.1905C20.1383 33.9521 19.7586 35.2746 19 37.4762M25.9307 31.1905C26.2287 33.601 26.4064 34.7739 27.6321 37.4762M28.8474 30.6667C28.9614 33.2786 29.9267 34.1237 31.2779 36.1667M33.7084 28.9643C35.127 31.0303 35.7872 31.9236 37.3542 32.9314M36.8933 27C37.8236 28.7424 38.8635 29.3947 41 30.2353M31.2779 30.1429C32.3911 32.6192 33.0376 33.2695 34.3161 34.8571M23.5002 31.1905V38M15 30C14.0877 32.1621 13 33.5 11.5 35" stroke="#EB7605" stroke-width="1.5" stroke-linecap="round" stroke-linejoin="round"></path>
  </symbol>
  <symbol fill="none" xmlns="http://www.w3.org/2000/svg" viewBox="0 0 48 48" id="stop-hand">
    <circle cx="24" cy="24" r="22" stroke="#EB7605" stroke-width="1.5"></circle>
    <path d="M30.3478 24.0664V18.2991C30.3478 17.2906 31.1654 16.473 32.1739 16.473V16.473C33.1824 16.473 34 17.2906 34 18.2991V29.2895C34 31.8377 32.9611 34.2756 31.1232 36.0406V36.0406C28.5918 38.4714 24.9132 39.2819 21.5947 38.1399L21.0557 37.9545C19.0395 37.2606 17.2885 35.9577 16.0446 34.2258L11.0716 27.3013C10.4473 26.432 10.5182 25.2439 11.2415 24.455V24.455C12.0734 23.5477 13.4783 23.4728 14.402 24.2865L17.5408 27.0516C17.6517 27.1493 17.8261 27.0705 17.8261 26.9227V14.3869C17.8261 13.2703 18.7313 12.3651 19.8478 12.3651V12.3651C20.9644 12.3651 21.8696 13.2703 21.8696 14.3869V22.8216V12.087C21.8696 10.9344 22.8039 10 23.9565 10V10C25.1091 10 26.0435 10.9344 26.0435 12.087V22.8216V14.5173C26.0435 13.3287 27.007 12.3651 28.1957 12.3651V12.3651C29.3843 12.3651 30.3478 13.3287 30.3478 14.5173V24.0664Z" stroke="#EB7605" stroke-width="1.5" stroke-linecap="round"></path>
  </symbol>
  <symbol fill="none" xmlns="http://www.w3.org/2000/svg" viewBox="0 0 48 48" id="12+">
    <circle cx="24" cy="24" r="22" stroke="#EB7605" stroke-width="1.5"></circle>
    <path d="M14.2694 28V26.684H16.2574V20.832H14.6194V19.824C15.0581 19.74 15.4407 19.642 15.7674 19.53C16.0941 19.4087 16.3974 19.264 16.6774 19.096H17.8814V26.684H19.6314V28H14.2694ZM20.9431 28V27.006C21.7645 26.2407 22.4738 25.5453 23.0711 24.92C23.6778 24.2853 24.1445 23.7113 24.4711 23.198C24.8071 22.6753 24.9751 22.19 24.9751 21.742C24.9751 21.266 24.8491 20.8927 24.5971 20.622C24.3545 20.342 23.9905 20.202 23.5051 20.202C23.1598 20.202 22.8425 20.3 22.5531 20.496C22.2731 20.692 22.0118 20.9253 21.7691 21.196L20.9011 20.342C21.3025 19.894 21.7225 19.5487 22.1611 19.306C22.5998 19.054 23.1178 18.928 23.7151 18.928C24.2845 18.928 24.7791 19.04 25.1991 19.264C25.6191 19.488 25.9458 19.8053 26.1791 20.216C26.4125 20.6173 26.5291 21.0933 26.5291 21.644C26.5291 22.1947 26.3751 22.7407 26.0671 23.282C25.7685 23.8233 25.3625 24.3787 24.8491 24.948C24.3358 25.508 23.7665 26.1007 23.1411 26.726C23.3745 26.698 23.6265 26.6747 23.8971 26.656C24.1771 26.6373 24.4245 26.628 24.6391 26.628H26.9631V28H20.9431ZM30.5709 26.614V23.968H28.0649V22.792H30.5709V20.146H31.7889V22.792H34.2949V23.968H31.7889V26.614H30.5709Z" fill="#EB7605"></path>
  </symbol>
  <symbol fill="none" xmlns="http://www.w3.org/2000/svg" viewBox="0 0 48 48" id="18+">
    <circle cx="24" cy="24" r="22" stroke="#EB7605" stroke-width="1.5"></circle>
    <path d="M14.2694 28V26.684H16.2574V20.832H14.6194V19.824C15.0581 19.74 15.4407 19.642 15.7674 19.53C16.0941 19.4087 16.3974 19.264 16.6774 19.096H17.8814V26.684H19.6314V28H14.2694ZM24.0091 28.168C23.4305 28.168 22.9125 28.0653 22.4551 27.86C21.9978 27.6453 21.6385 27.356 21.3771 26.992C21.1158 26.6187 20.9851 26.194 20.9851 25.718C20.9851 25.3447 21.0598 25.018 21.2091 24.738C21.3585 24.4487 21.5545 24.1967 21.7971 23.982C22.0491 23.7673 22.3151 23.5853 22.5951 23.436V23.38C22.2591 23.128 21.9698 22.834 21.7271 22.498C21.4845 22.162 21.3631 21.7607 21.3631 21.294C21.3631 20.818 21.4798 20.4027 21.7131 20.048C21.9465 19.684 22.2638 19.4087 22.6651 19.222C23.0758 19.026 23.5378 18.928 24.0511 18.928C24.8538 18.928 25.4885 19.152 25.9551 19.6C26.4311 20.0387 26.6691 20.6173 26.6691 21.336C26.6691 21.6253 26.6085 21.9007 26.4871 22.162C26.3751 22.4233 26.2258 22.6567 26.0391 22.862C25.8618 23.0673 25.6751 23.24 25.4791 23.38V23.436C25.7498 23.5853 26.0018 23.7673 26.2351 23.982C26.4685 24.1873 26.6551 24.4347 26.7951 24.724C26.9445 25.004 27.0191 25.3447 27.0191 25.746C27.0191 26.2033 26.8931 26.614 26.6411 26.978C26.3891 27.342 26.0391 27.6313 25.5911 27.846C25.1431 28.0607 24.6158 28.168 24.0091 28.168ZM24.5971 22.974C24.8398 22.7313 25.0218 22.484 25.1431 22.232C25.2738 21.98 25.3391 21.714 25.3391 21.434C25.3391 21.1727 25.2878 20.9393 25.1851 20.734C25.0825 20.5287 24.9331 20.37 24.7371 20.258C24.5411 20.1367 24.3031 20.076 24.0231 20.076C23.6778 20.076 23.3885 20.1833 23.1551 20.398C22.9218 20.6127 22.8051 20.9113 22.8051 21.294C22.8051 21.5927 22.8845 21.8447 23.0431 22.05C23.2111 22.246 23.4305 22.4187 23.7011 22.568C23.9718 22.708 24.2705 22.8433 24.5971 22.974ZM24.0371 27.02C24.3265 27.02 24.5785 26.9687 24.7931 26.866C25.0171 26.754 25.1898 26.6 25.3111 26.404C25.4418 26.208 25.5071 25.97 25.5071 25.69C25.5071 25.3727 25.4091 25.1113 25.2131 24.906C25.0265 24.6913 24.7698 24.5093 24.4431 24.36C24.1258 24.2013 23.7665 24.0427 23.3651 23.884C23.0945 24.08 22.8658 24.3227 22.6791 24.612C22.4925 24.892 22.3991 25.2047 22.3991 25.55C22.3991 25.8487 22.4691 26.11 22.6091 26.334C22.7585 26.5487 22.9545 26.7167 23.1971 26.838C23.4491 26.9593 23.7291 27.02 24.0371 27.02ZM30.5709 26.614V23.968H28.0649V22.792H30.5709V20.146H31.7889V22.792H34.2949V23.968H31.7889V26.614H30.5709Z" fill="#EB7605"></path>
  </symbol>
  <symbol fill="none" xmlns="http://www.w3.org/2000/svg" viewBox="0 0 48 48" id="10+">
    <circle cx="24" cy="24" r="22" stroke="#EB7605" stroke-width="1.5"></circle>
    <path d="M14.2694 28V26.684H16.2574V20.832H14.6194V19.824C15.0581 19.74 15.4407 19.642 15.7674 19.53C16.0941 19.4087 16.3974 19.264 16.6774 19.096H17.8814V26.684H19.6314V28H14.2694ZM23.9951 28.168C23.0711 28.168 22.3338 27.7713 21.7831 26.978C21.2418 26.1753 20.9711 25.018 20.9711 23.506C20.9711 22.0033 21.2418 20.8647 21.7831 20.09C22.3338 19.3153 23.0711 18.928 23.9951 18.928C24.9191 18.928 25.6518 19.3153 26.1931 20.09C26.7438 20.8647 27.0191 22.0033 27.0191 23.506C27.0191 25.018 26.7438 26.1753 26.1931 26.978C25.6518 27.7713 24.9191 28.168 23.9951 28.168ZM23.9951 26.908C24.2845 26.908 24.5411 26.8007 24.7651 26.586C24.9891 26.3713 25.1618 26.0167 25.2831 25.522C25.4138 25.018 25.4791 24.346 25.4791 23.506C25.4791 22.666 25.4138 22.0033 25.2831 21.518C25.1618 21.0327 24.9891 20.692 24.7651 20.496C24.5411 20.2907 24.2845 20.188 23.9951 20.188C23.7151 20.188 23.4631 20.2907 23.2391 20.496C23.0151 20.692 22.8378 21.0327 22.7071 21.518C22.5765 22.0033 22.5111 22.666 22.5111 23.506C22.5111 24.346 22.5765 25.018 22.7071 25.522C22.8378 26.0167 23.0151 26.3713 23.2391 26.586C23.4631 26.8007 23.7151 26.908 23.9951 26.908ZM30.5709 26.614V23.968H28.0649V22.792H30.5709V20.146H31.7889V22.792H34.2949V23.968H31.7889V26.614H30.5709Z" fill="#EB7605"></path>
  </symbol>
</svg>